<svg xmlns="http://www.w3.org/2000/svg" width="88" height="88" viewBox="-4 -4.5 88 88" style="--hm-bottom:#1A1A1A;--hm-clothes:#DCE2E8;--hm-hair:#2A2A28;--hm-skin:#EDD0B5;--hm-stroke:#1A1A1A"><g data-hm-layer-slot="bottom" data-hm-part-id="hm1-p-000039" data-hm-selection-slot="bottom" data-hm-source-group-id="bottom" data-hm-source-part-id="007" transform="translate(0, 85)">
<path d="M51.188 90.4502C50.3787 92.2899 48.8813 93.737 47.016 94.4819C45.152 95.2269 43.0707 95.2108 41.2187 94.4352L41.108 94.3898C40.3187 96.6593 39.1427 98.802 38.6453 101.152C38.568 101.511 38.512 101.905 38.684 102.23C38.9307 102.696 39.5253 102.827 40.0467 102.898C41.8533 103.165 43.7293 103.385 45.4787 102.862C48.4 101.994 50.4 99.1558 51.1627 96.1987C51.7213 94.0414 51.7467 91.8026 51.6533 89.5651L51.188 90.4502Z" fill="#000000"/>
<path d="M36.6134 89.6839C35.472 90.8214 34.0814 91.6771 32.5534 92.1844C31.0254 92.6917 29.4 92.8372 27.8054 92.6076C27.3067 92.5529 26.824 92.3993 26.3867 92.1537C25.9614 91.8867 25.6174 91.4582 25.5667 90.9602V90.4743C23.7694 91.9962 21.9587 93.4887 21.348 95.6941C21.2267 96.1347 21.164 96.6206 21.356 97.0291C21.72 97.8101 22.752 97.9436 23.612 97.9636C25.8707 98.0344 28.1614 98.0971 30.3574 97.5711C32.5534 97.0451 34.684 95.8276 35.824 93.8745C36.7307 92.3246 36.936 90.4743 37.1067 88.6867L36.6134 89.6839Z" fill="#000000"/>
<path d="M42.2586 78.7543C42.8933 79.2669 43.6266 79.6421 44.4133 79.8543C45.2 80.0666 46.0226 80.1133 46.828 79.9905C47.6333 79.8677 48.4053 79.578 49.092 79.1401C49.78 78.7022 50.3693 78.1255 50.8213 77.446L51.2386 76.9814C51.172 68.7164 51.3866 53.7044 51.5466 46.8945L41.2186 48.7128C41.6186 55.7336 41.824 70.4867 41.944 78.5033L42.2586 78.7543Z" fill="var(--hm-skin, #FFFFFF)"/>
<path d="M38.0733 76.1978C38.5253 68.8072 38.804 59.3514 38.776 52.89L28.776 50.4456C29.0427 57.1206 29.4987 69.125 29.82 76.8493L30.3733 77.0429C31.6493 77.3005 32.9373 77.5595 34.24 77.5368C35.5427 77.5141 36.876 77.191 37.904 76.39L38.0733 76.1978Z" fill="var(--hm-skin, #FFFFFF)"/>
<path d="M27.256 7.25308C24.2014 20.4642 21.1854 33.6834 18.208 46.9119C17.6334 49.4658 17.532 52.9515 19.996 53.8246C22.04 54.5495 24.0254 52.7312 26.1067 52.1238C30.252 50.9116 34.3827 54.6256 38.692 54.3252C42.0614 54.0902 44.9894 51.4256 48.364 51.5671C50.4334 51.6539 52.2907 52.7913 54.2574 53.4361C56.224 54.0809 58.736 54.0929 59.9827 52.4362C60.9747 51.1172 60.772 49.2842 60.516 47.6515C58.496 34.4577 56.4734 21.2612 54.4507 8.06343L27.256 7.25308Z" fill="var(--hm-bottom, #000000)"/>
<path d="M41.2187 94.4353C43.0707 95.2109 45.152 95.2269 47.016 94.482C48.88 93.7371 50.3774 92.2886 51.188 90.4503L51.6414 89.3008C51.608 88.337 51.5747 88.0393 51.5214 87.0794C51.3534 84.0703 51.2694 80.5913 51.24 76.9334L50.8227 77.4474C50.3694 78.1256 49.7814 78.7023 49.0934 79.1415C48.4054 79.5794 47.6347 79.8691 46.828 79.9932C46.0227 80.116 45.2 80.0707 44.4134 79.8571C43.6267 79.6448 42.892 79.2697 42.2587 78.757L41.944 78.4647C41.9867 81.2682 42.0187 83.9595 42.044 86.4172C42.0667 88.5786 42.076 90.7667 41.5654 92.8666C41.4387 93.3846 41.2827 93.8946 41.1067 94.3979L41.2187 94.4353Z" fill="#FFFFFF"/>
<path d="M25.5666 90.9602C25.6173 91.4582 25.9666 91.8947 26.3866 92.1537C26.8239 92.3994 27.3066 92.5529 27.8053 92.6076C29.3999 92.8359 31.0253 92.6917 32.5533 92.1844C34.0813 91.6771 35.4719 90.8214 36.6133 89.684L37.0559 89.2301L37.1079 88.6961C37.4693 84.9047 37.7973 80.6687 38.0653 76.314L37.8973 76.3887C36.8693 77.1897 35.5359 77.5141 34.2333 77.5355C32.9306 77.5568 31.6439 77.2992 30.3666 77.0415L29.8173 76.9628C29.8706 78.2404 29.9199 79.4472 29.9639 80.5553C30.0386 82.4243 30.0973 84.3747 29.3599 86.0982C28.5599 87.9458 26.9599 89.2862 25.3879 90.6225L25.5666 90.9602Z" fill="#FFFFFF"/>
<path fill-rule="evenodd" clip-rule="evenodd" d="M26.3307 52.8927C26.8777 52.7325 27.4303 52.6708 27.9893 52.6819C28.1488 56.6737 28.3735 61.8841 28.5923 66.9544L28.6027 67.1959C28.8094 71.9592 29.0214 76.884 29.1707 80.5899L29.1708 80.5927C29.2375 82.2782 29.313 84.1887 28.6307 85.7844C27.92 87.4385 26.468 88.668 24.9294 89.9697C23.1174 91.5022 21.244 93.0882 20.5814 95.4819C20.3747 96.2335 20.3934 96.8503 20.636 97.3682C21.2614 98.7099 22.9587 98.75 23.592 98.7646L23.6185 98.7655C24.3449 98.7879 25.1044 98.8114 25.8787 98.8114C27.4094 98.8114 29.0054 98.7193 30.548 98.3481C33.204 97.7127 35.38 96.2281 36.5187 94.2777C37.5487 92.5179 37.7478 90.4368 37.9077 88.7646L37.908 88.7615C38.9504 77.8286 39.6027 64.6446 39.5814 55.0218C39.8705 54.9719 40.1556 54.9081 40.4373 54.8334C40.9635 64.3366 41.1502 77.3942 41.2454 86.4226C41.2667 88.389 41.2894 90.6185 40.7894 92.6744C40.4753 93.9696 39.9622 95.1962 39.4191 96.4945L39.4094 96.5179C38.812 97.9423 38.196 99.4148 37.864 100.982C37.7574 101.477 37.6867 102.055 37.9774 102.605C38.4426 103.485 39.4858 103.629 39.9255 103.689L39.9294 103.689C40.9614 103.843 42.028 103.979 43.0907 103.979C43.972 103.979 44.8507 103.886 45.7094 103.627C49.1947 102.591 51.2134 99.2132 51.94 96.3964C52.696 93.4647 52.52 90.4249 52.3494 87.4852L52.3227 87.0313C51.7913 77.5367 52.104 63.3199 52.3313 53.5583C52.8753 53.7837 53.4355 54.0098 54.0067 54.197C55.18 54.5815 56.4147 54.723 57.484 54.5948C58.832 54.4333 59.916 53.8526 60.62 52.9181C61.788 51.3641 61.5867 49.3216 61.3054 47.53C59.4595 35.4734 57.6113 23.4145 55.763 11.3545L55.24 7.94191C55.1734 7.50537 54.7654 7.20633 54.328 7.27174C53.892 7.33849 53.592 7.747 53.6587 8.18489C55.6786 21.3647 57.6972 34.5432 59.7158 47.7217L59.724 47.7756C59.9654 49.3122 60.1347 50.9009 59.3427 51.9542C58.3147 53.3199 56.0947 53.1957 54.5054 52.6751C53.904 52.4775 53.316 52.2332 52.6934 51.9742C51.3427 51.4122 49.944 50.8315 48.3974 50.766C46.4147 50.6846 44.6227 51.4576 42.8907 52.2065C41.4414 52.834 40.072 53.4254 38.6374 53.5255C36.8562 53.6494 35.0857 53.0149 33.2117 52.3433L33.2027 52.34C30.8427 51.4936 28.4014 50.6192 25.884 51.3548C25.1347 51.5724 24.42 51.9222 23.7307 52.2612L23.727 52.2631C22.4352 52.8964 21.319 53.4437 20.264 53.0689C18.012 52.2719 18.7187 48.2896 18.9894 47.0881C21.952 33.9223 24.996 20.5817 28.036 7.43328C28.136 7.00207 27.868 6.5722 27.4374 6.47208C27.0067 6.37195 26.5774 6.64029 26.4774 7.0715C23.4374 20.2226 20.392 33.5672 17.428 46.7357C16.5107 50.8114 17.3707 53.7431 19.7294 54.5788C21.4174 55.1782 23.02 54.3932 24.4334 53.7004C25.0907 53.3773 25.7134 53.0729 26.3307 52.8927ZM32.6614 53.8486C34.3756 54.464 36.1406 55.0969 37.9816 55.1411C37.9917 61.1356 37.7407 68.5035 37.2976 75.8379C36.3135 76.5497 35.089 76.719 34.22 76.7345C33.0227 76.7568 31.7882 76.5116 30.5933 76.2703C30.4879 73.7735 30.37 71.0376 30.2527 68.3168L30.1965 67.0133C29.9809 62.0186 29.7588 56.8738 29.5988 52.888C30.5956 53.1073 31.6148 53.473 32.6614 53.8486ZM34.248 78.3352C35.3308 78.3167 36.3224 78.1123 37.1786 77.7365C36.9363 81.4634 36.6457 85.15 36.316 88.6106L36.3154 88.6174C36.3048 88.7277 36.294 88.84 36.2828 88.9539C36.1983 88.9923 36.1191 89.0461 36.0494 89.1152C35.0014 90.1592 33.7054 90.9575 32.3014 91.4235C30.8974 91.8894 29.3827 92.0242 27.9187 91.8146L27.892 91.8106C27.504 91.7679 27.1347 91.6504 26.7934 91.4622C26.552 91.3086 26.384 91.0804 26.3627 90.8774C26.3619 90.8697 26.361 90.862 26.36 90.8543C27.8417 89.5925 29.312 88.2527 30.1014 86.4146C30.9279 84.4844 30.8401 82.29 30.7694 80.5252C30.7366 79.7106 30.7007 78.8364 30.6624 77.9186C31.7669 78.1379 32.9021 78.3392 34.0734 78.3392C34.132 78.3392 34.1908 78.3392 34.248 78.3352ZM25.0788 91.947C23.7293 93.1263 22.5613 94.328 22.124 95.9077C22 96.3576 22.0347 96.5806 22.0854 96.6874C22.2227 96.9824 22.744 97.1413 23.636 97.1626L23.6421 97.1628C25.8136 97.2309 28.0527 97.301 30.176 96.7915C32.4094 96.2562 34.2187 95.0453 35.1387 93.47C35.5219 92.815 35.7691 92.0728 35.9384 91.3165C34.9882 92.0188 33.9268 92.5723 32.8067 92.944C31.6694 93.3218 30.4694 93.5127 29.272 93.5127C28.748 93.5127 28.224 93.4767 27.7054 93.4019C27.1014 93.3338 26.5267 93.1496 25.996 92.8519C25.9867 92.8466 25.9774 92.8412 25.9667 92.8345C25.5924 92.6036 25.288 92.2956 25.0788 91.947ZM48.3294 52.3667C49.1462 52.4013 49.9402 52.6235 50.7453 52.9201C50.5883 59.6279 50.3814 68.611 50.4415 76.7403C50.3306 76.8004 50.2323 76.8877 50.1574 77.0002C49.764 77.5902 49.2614 78.0828 48.664 78.4633C48.0667 78.8438 47.408 79.0908 46.708 79.1976C46.008 79.3044 45.3067 79.2643 44.6227 79.0801C43.9387 78.8945 43.312 78.5755 42.7614 78.1296C42.7542 78.1238 42.7469 78.1181 42.7396 78.1126C42.6183 70.2809 42.4107 61.4121 42.02 54.4814C42.0168 54.4245 42.0077 54.3694 41.9933 54.3166C42.5116 54.1155 43.0206 53.8954 43.524 53.6777L43.5272 53.6763C45.1647 52.9679 46.7118 52.2987 48.3294 52.3667ZM42.8454 86.4039C42.8248 84.4502 42.7999 82.3079 42.7682 80.0536C43.2208 80.2994 43.7011 80.4912 44.2054 80.6274C44.776 80.7822 45.356 80.8596 45.94 80.8596C46.276 80.8596 46.612 80.8343 46.9494 80.7809C47.8707 80.6407 48.736 80.315 49.5227 79.8143C49.8612 79.5984 50.1764 79.3555 50.467 79.087C50.5088 81.9681 50.5898 84.6965 50.7254 87.1221L50.7526 87.589C50.7934 88.2951 50.8346 89.0073 50.8624 89.7205C50.6874 89.7986 50.5396 89.9393 50.456 90.1285C49.7267 91.7852 48.4 93.0682 46.72 93.7397C45.2337 94.3331 43.6168 94.3895 42.1079 93.9101C42.1943 93.6265 42.2737 93.3402 42.344 93.0509C42.8909 90.8046 42.8668 88.4746 42.8455 86.4165L42.8454 86.4039ZM41.5817 95.4232C41.3587 96.0037 41.1203 96.5735 40.8854 97.1346L40.8829 97.1405C40.2905 98.5561 39.7303 99.8947 39.4294 101.315C39.352 101.671 39.3667 101.804 39.3934 101.853C39.4174 101.899 39.5427 102.017 40.156 102.101C41.9467 102.365 43.676 102.563 45.252 102.091C47.12 101.536 49.4494 99.6444 50.3907 95.9959C50.6793 94.8767 50.8184 93.7187 50.8708 92.545C49.9559 93.7323 48.7374 94.6576 47.3134 95.2269C46.2987 95.6314 45.236 95.8343 44.1747 95.8343C43.3012 95.8343 42.4277 95.6971 41.5817 95.4232Z" fill="var(--hm-stroke, #000000)"/>
</g><g data-hm-layer-slot="body" data-hm-part-id="hm1-p-000030" data-hm-selection-slot="body" data-hm-source-group-id="body" data-hm-source-part-id="006" transform="translate(0, 51)">
<path d="M45.2493 0C45.3693 1.34667 45.92 4.38933 47.9693 3.93333L48.1893 4.26667C48.0893 6.356 47.0306 7.82933 45.372 9.356C43.6866 10.8827 41.5373 11.8 39.2693 11.9613C37.2693 12.108 35.1426 11.6293 33.6466 10.288C32.1506 8.94667 31.364 7.088 32.3546 5.49467H32.4986C32.9493 5.508 33.364 5.272 33.7453 5.032C34.2306 4.72533 35.232 3.468 35.532 3.10667C35.932 2.588 36.0946 0.621333 36.3 0H45.2493V0Z" fill="var(--hm-skin, #FFFFFF)"/>
<path d="M48.208 3.2C50.5667 3.832 52.396 5.64933 53.8693 7.51067C55.476 9.54267 56.736 11.8253 57.6 14.2667C58.084 15.6307 58.8493 17.1653 59.1653 18.576L59.5867 19.8667C61.8693 29.6973 62.2773 39.8373 62.4267 49.9467L62.56 50.0987C63.3813 53.104 66.448 60.704 67.1147 63.904C67.136 64.1773 67.0907 64.452 66.9813 64.704C65.648 66.304 63.3813 65.904 61.628 66.448L55.432 67.6813C46.564 69.272 37.664 69.6613 28.78 68.1627L27.104 67.9667L21.3707 66.8693C20.8533 66.7707 20.2853 66.6387 19.9827 66.2027C19.732 65.8453 19.7333 65.3747 19.752 64.9387C19.828 63.2053 20.028 61.4853 20.228 59.764L21.1427 51.8787H21.0733C19.7187 51.7133 18.6307 51.5493 17.276 51.3853C17.8373 45.192 18.5573 39.0147 19.436 32.852C20.2 27.4853 21.0893 22.1173 22.668 16.932C24.0707 12.324 26.296 7.55867 30.5213 5.248L36.388 5.648L48.208 3.2Z" fill="var(--hm-clothes, #FFFFFF)"/>
<path d="M52.792 57.9907C51.508 58.4053 49.8453 59.876 50.9253 61.3C51.524 62.0853 52.4253 62.508 53.2533 63C53.892 63.38 54.06 64.6587 54.308 65.3373C54.9306 67.048 56.144 68.4467 58.128 68.3187C60.1493 68.1853 61.4066 66.464 61.7906 64.6067C62.208 62.5933 61.6573 59.98 61.3226 57.9907H52.792Z" fill="var(--hm-skin, #FFFFFF)"/>
<path d="M19.748 65.2986C18.4053 65.2466 17.112 64.4346 16.5787 63.2346C16.712 61.1013 17.112 58.568 15.3787 56.8346C15.112 55.768 15.912 54.968 16.8453 54.62L20.8453 54.4106L19.748 65.2986Z" fill="var(--hm-skin, #FFFFFF)"/>
<path d="M36.4 5.65601L37.6774 11.2C39.708 10.4867 41.744 9.77201 43.6774 8.82668C44.3734 8.48668 45.072 8.10268 45.576 7.51468C46.172 6.82001 46.4387 5.91468 46.6907 5.03068C47.0694 3.69735 47.4507 2.36401 47.576 0.981348C45.9254 1.10801 44.4 1.86668 42.9227 2.61201C40.9614 3.60001 39 4.59068 36.4 5.65601Z" fill="var(--hm-clothes, #FFFFFF)"/>
<path d="M35 3L34.4733 3.96535C34.4013 4.16802 34.3733 4.38402 34.388 4.59868C34.4787 5.22002 35.2187 5.47602 35.832 5.60535C35.1427 7.26002 34.1467 8.77068 32.8987 10.0574C32.208 9.31602 31.6827 8.43735 31.3573 7.47735C31.032 6.51735 30.916 5.50002 31.0147 4.49202L35 2.5C35.248 2.90667 35.1467 3.12267 35 3Z" fill="var(--hm-clothes, #FFFFFF)"/>
<path d="M51.5413 54.4987C51.3306 55.5187 51.2613 56.5613 51.3333 57.6C51.3306 57.66 51.3386 57.72 51.36 57.776C51.3813 57.832 51.4133 57.884 51.4546 57.928C51.5386 57.9787 51.6373 58.0013 51.7346 57.9907L60.8013 57.9653C60.9386 57.976 61.076 57.9507 61.2013 57.8933C61.4573 57.748 61.4773 57.3933 61.468 57.0933L61.372 54.636L51.5413 54.4987Z" fill="var(--hm-clothes, #FFFFFF)"/>
<path d="M17.6866 51.66C17.2586 52.56 17.172 53.58 17.092 54.5733C18.2266 54.9187 19.4053 55.0987 20.5906 55.1067L21.012 51.9707L17.6866 51.66Z" fill="var(--hm-clothes, #FFFFFF)"/>
<path d="M59.164 19.376C58.7974 19.376 58.468 19.1227 58.384 18.7507C58.192 17.8947 57.8067 16.9507 57.4334 16.0373C57.2294 15.54 57.02 15.0253 56.8454 14.5347C56.008 12.1693 54.796 9.97332 53.2414 8.00665C52.1067 6.57332 50.3294 4.59732 48 3.97199C47.5734 3.85732 47.32 3.41865 47.4347 2.99199C47.5494 2.56532 47.988 2.31199 48.4147 2.42665C51.2027 3.17332 53.2214 5.40265 54.496 7.01332C56.16 9.11865 57.4587 11.468 58.3534 13.9987C58.5147 14.4533 58.7094 14.928 58.9147 15.4307C59.3134 16.4053 59.724 17.4133 59.9454 18.4C60.0414 18.8307 59.7707 19.2587 59.34 19.356C59.2814 19.3693 59.2227 19.376 59.164 19.376Z" fill="var(--hm-stroke, #000000)"/>
<path d="M25.9014 68.5427C25.852 68.5427 25.8014 68.5373 25.7507 68.528L21.224 67.6613C20.6987 67.556 19.8334 67.3813 19.332 66.6693C18.94 66.1107 18.932 65.468 18.956 64.9107C19.0334 63.148 19.2387 61.384 19.436 59.6787L21.052 45.744C22.1507 36.34 23.2854 26.6147 25.496 17.232C25.5974 16.8027 26.028 16.5347 26.4587 16.6373C26.888 16.7387 27.1547 17.1693 27.0534 17.6C24.864 26.8933 23.7347 36.572 22.6414 45.932L21.0254 59.8653C20.8307 61.544 20.6294 63.2787 20.5534 64.9827C20.544 65.1947 20.5267 65.592 20.64 65.752C20.7734 65.9413 21.248 66.0373 21.5307 66.0933L26.0507 66.9587C26.484 67.0413 26.7694 67.4613 26.6854 67.8947C26.612 68.276 26.2774 68.5427 25.9014 68.5427Z" fill="var(--hm-stroke, #000000)"/>
<path d="M40.2627 69.9053C36.2773 69.9053 32.4213 69.5867 28.6453 68.9493C28.2093 68.876 27.916 68.4627 27.9893 68.028C28.0627 67.592 28.4747 67.2973 28.9107 67.372C37.1307 68.7587 45.7587 68.6013 55.288 66.892C55.7227 66.8133 56.1387 67.1027 56.216 67.5387C56.2947 67.9733 56.0053 68.3893 55.5693 68.4667C50.2213 69.4253 45.1453 69.9053 40.2627 69.9053Z" fill="var(--hm-stroke, #000000)"/>
<path d="M61.6253 67.2453C61.284 67.2453 60.968 67.0253 60.8613 66.6827C60.7307 66.26 60.9667 65.812 61.388 65.6813C62.0213 65.4853 62.6893 65.4013 63.3347 65.3213C64.5347 65.172 65.5787 65.0414 66.28 64.2854C66.3067 64.196 66.3187 64.1013 66.316 64.008C65.928 62.1973 64.74 58.876 63.6907 55.9413C62.8933 53.7107 62.1387 51.604 61.7853 50.308C61.6693 49.8813 61.92 49.4413 62.3467 49.3253C62.772 49.2093 63.2133 49.46 63.3293 49.8867C63.668 51.124 64.4107 53.2027 65.1987 55.4027C66.3293 58.564 67.4987 61.8333 67.896 63.74C67.9027 63.7733 67.908 63.8067 67.9107 63.8414C67.9413 64.2427 67.8733 64.6507 67.7147 65.02C67.684 65.0907 67.644 65.156 67.5947 65.2147C66.4893 66.5413 64.92 66.7374 63.5347 66.9094C62.932 66.984 62.3613 67.056 61.864 67.2107C61.784 67.2333 61.704 67.2453 61.6253 67.2453Z" fill="var(--hm-stroke, #000000)"/>
<path d="M57.8814 69.3414C55.944 69.3414 54.3787 68.0747 53.5587 65.8227C53.4854 65.62 53.4227 65.3933 53.3574 65.1533C53.264 64.8133 53.0467 64.0174 52.848 63.9C52.7067 63.816 52.5654 63.7347 52.4227 63.6533C51.7014 63.2413 50.884 62.7733 50.292 61.9947C49.652 61.1547 49.6987 60.3973 49.8507 59.9107C50.1934 58.8173 51.3827 58.0827 52.3827 57.76C52.8027 57.6254 53.2547 57.8547 53.3894 58.276C53.524 58.6973 53.2947 59.148 52.8734 59.2827C52.132 59.5227 51.5027 59.988 51.3774 60.3894C51.3534 60.4654 51.2907 60.6667 51.564 61.0253C51.96 61.5453 52.5707 61.8947 53.216 62.264C53.3667 62.3507 53.5174 62.436 53.6654 62.524C54.4187 62.9707 54.6854 63.9467 54.9 64.7294C54.956 64.936 55.0107 65.132 55.0614 65.2733C55.4934 66.4587 56.3654 67.844 58.08 67.7333C59.2067 67.6587 60.5667 66.812 61.0134 64.6587C61.356 63.0013 61.0454 61.2173 60.7454 59.4907C60.7094 59.2827 60.6734 59.076 60.6387 58.8693C60.5654 58.4333 60.8587 58.0213 61.2947 57.948C61.7307 57.8733 62.1427 58.168 62.216 58.604C62.2507 58.808 62.2854 59.012 62.3214 59.2174C62.6467 61.0907 62.984 63.028 62.58 64.984C62.0627 67.4827 60.3387 69.1893 58.1867 69.3307C58.084 69.3387 57.9814 69.3414 57.8814 69.3414Z" fill="var(--hm-stroke, #000000)"/>
<path d="M19.656 66.0866C19.6467 66.0866 19.6374 66.0866 19.6294 66.0866C18.8267 66.06 18.0494 65.8106 17.3814 65.364C16.7134 64.9186 16.184 64.2973 15.852 63.5666C15.7974 63.4466 15.7734 63.316 15.7814 63.1853C15.7947 62.964 15.812 62.7373 15.8294 62.508C15.968 60.6346 16.1107 58.6973 14.8147 57.4C14.712 57.2973 14.64 57.1693 14.604 57.028C14.272 55.7 15.0614 54.4306 16.568 53.8693C16.9814 53.7146 17.4427 53.9253 17.5974 54.34C17.752 54.7533 17.5414 55.2146 17.1267 55.3693C16.9454 55.4373 16.104 55.788 16.1307 56.4626C17.748 58.26 17.5694 60.6733 17.4254 62.6253C17.4147 62.776 17.4027 62.924 17.3934 63.072C17.6027 63.4586 17.904 63.788 18.2707 64.0333C18.6907 64.3133 19.1787 64.4706 19.684 64.4866C20.1254 64.5013 20.472 64.8706 20.4574 65.3133C20.4414 65.7453 20.0854 66.0866 19.656 66.0866Z" fill="var(--hm-stroke, #000000)"/>
<path d="M37.6827 11.996C37.5494 11.996 37.4147 11.9626 37.2974 11.8986C37.0974 11.7893 36.9494 11.6013 36.8974 11.38L35.62 5.83598C35.532 5.45464 35.7334 5.06531 36.096 4.91598C38.6387 3.87464 40.6 2.88531 42.4974 1.93064L42.5614 1.89864C44.0227 1.16131 45.6787 0.32531 47.5134 0.18531C47.748 0.166643 47.9787 0.25331 48.144 0.42131C48.3094 0.58931 48.392 0.82131 48.3707 1.05464C48.24 2.49731 47.848 3.87731 47.4694 5.21064L47.4574 5.25064C47.2107 6.11731 46.904 7.19464 46.18 8.03731C45.5867 8.72931 44.7947 9.17198 44.0254 9.54664C42.0534 10.5106 39.968 11.244 37.9507 11.952C37.8667 11.9813 37.7747 11.996 37.6827 11.996ZM37.332 6.13464L38.256 10.148C39.9707 9.54131 41.7054 8.89998 43.3254 8.10798C43.8974 7.82798 44.544 7.48798 44.968 6.99464C45.4627 6.41731 45.696 5.60131 45.92 4.81198L45.9307 4.77198C46.2054 3.80398 46.4694 2.87598 46.636 1.93998C45.48 2.21731 44.3654 2.77864 43.28 3.32664L43.2147 3.35998C41.452 4.24931 39.6294 5.16664 37.332 6.13464Z" fill="var(--hm-stroke, #000000)"/>
<path d="M32.8987 10.8573C32.896 10.8573 32.8933 10.8573 32.8907 10.8573C32.672 10.8547 32.4627 10.7627 32.3133 10.6027C31.54 9.77332 30.964 8.80798 30.6 7.73332C30.236 6.65865 30.108 5.54265 30.2187 4.41332C30.244 4.14798 30.4013 3.91332 30.6347 3.78665L34.9373 1.46665C35.2413 1.30265 35.616 1.35198 35.8667 1.58932C36.1173 1.82665 36.188 2.19865 36.0413 2.51065L35.2173 4.26398C35.1947 4.33732 35.184 4.41332 35.184 4.49065C35.2093 4.52665 35.364 4.68932 35.9973 4.82265C36.2307 4.87198 36.4293 5.02265 36.54 5.23332C36.6507 5.44398 36.6627 5.69332 36.5707 5.91332C35.84 7.66798 34.7973 9.24932 33.4733 10.6147C33.3227 10.7693 33.1147 10.8573 32.8987 10.8573ZM31.784 4.98665C31.7587 5.74665 31.8707 6.49598 32.116 7.22132C32.312 7.79998 32.5853 8.33865 32.932 8.83198C33.644 7.99332 34.2467 7.07598 34.7333 6.09065C34.0667 5.78132 33.6853 5.31998 33.596 4.71465C33.5933 4.69465 33.5907 4.67598 33.5893 4.65598C33.5733 4.42932 33.5893 4.20532 33.636 3.98532L31.784 4.98665Z" fill="var(--hm-stroke, #000000)"/>
<path d="M21.0733 52.68C21.0413 52.68 21.008 52.6787 20.976 52.6747C20.3067 52.5933 19.6933 52.5107 19.1013 52.4307C18.4933 52.3493 17.864 52.264 17.18 52.1813C16.7507 52.1293 16.44 51.7453 16.48 51.3147C17.04 45.132 17.768 38.8827 18.6453 32.74C19.3867 27.5333 20.2947 21.9867 21.904 16.7C23.8173 10.4387 26.4347 6.57867 30.1427 4.55067C30.5307 4.33867 31.016 4.48134 31.228 4.86934C31.44 5.25734 31.2973 5.74267 30.9093 5.95467C27.592 7.76934 25.216 11.332 23.4333 17.1667C21.856 22.3493 20.96 27.8227 20.228 32.9653C19.3907 38.8267 18.6907 44.7853 18.1427 50.688C18.548 50.74 18.9347 50.792 19.3147 50.844C19.9027 50.9227 20.5093 51.0053 21.1693 51.0853C21.608 51.1387 21.92 51.5373 21.8667 51.976C21.816 52.3827 21.472 52.68 21.0733 52.68Z" fill="var(--hm-stroke, #000000)"/>
<path d="M34.1134 69.668C33.7134 69.668 33.368 69.3693 33.32 68.9627C31.8867 56.9187 32.6654 44.6667 33.4174 32.8173L35.0974 6.34932C35.1254 5.90799 35.5067 5.57732 35.9467 5.60132C36.388 5.62932 36.7227 6.00933 36.6947 6.45066L35.0147 32.9187C34.2667 44.696 33.4934 56.8747 34.9094 68.7733C34.9614 69.212 34.648 69.6106 34.2094 69.6626C34.1774 69.6666 34.1454 69.668 34.1134 69.668Z" fill="var(--hm-stroke, #000000)"/>
<path d="M62.4827 55.376C62.4787 55.376 62.4734 55.376 62.4694 55.376L50.8614 55.1853C50.4654 55.1786 50.1334 54.8826 50.0814 54.4893C48.5014 42.4586 47.9494 30.2106 48.4414 18.0866C48.4587 17.6453 48.8307 17.304 49.2734 17.32C49.7147 17.3373 50.0587 17.7106 50.04 18.152C49.5614 29.956 50.0787 41.8773 51.5787 53.5973L61.6734 53.7626C61.668 53.2773 61.664 52.7933 61.6587 52.3106C61.5547 41.604 61.456 31.492 59.0187 20.984C58.9187 20.5533 59.1867 20.124 59.6174 20.024C60.048 19.924 60.4774 20.192 60.5774 20.6226C63.0547 31.3013 63.1534 41.4986 63.2587 52.296C63.2654 53.0506 63.2734 53.8066 63.2814 54.568C63.284 54.784 63.1987 54.992 63.0454 55.144C62.8974 55.292 62.6934 55.376 62.4827 55.376Z" fill="var(--hm-stroke, #000000)"/>
<path d="M51.6893 58.7933C51.4613 58.7933 51.2347 58.7306 51.0387 58.612C50.9787 58.576 50.924 58.532 50.876 58.4813C50.7587 58.3586 50.6693 58.2146 50.6093 58.0546C50.5573 57.9146 50.532 57.768 50.532 57.6186C50.4587 56.52 50.5347 55.416 50.7573 54.3386C50.8467 53.9053 51.2693 53.6266 51.7027 53.7173C52.136 53.8066 52.4133 54.2293 52.324 54.6626C52.152 55.4946 52.0813 56.344 52.112 57.192L60.6693 57.168C60.6693 57.1533 60.6693 57.1373 60.668 57.12L60.572 54.6666C60.5547 54.2253 60.8987 53.8533 61.34 53.836C61.784 53.816 62.1533 54.1626 62.1707 54.604L62.2667 57.0613C62.276 57.344 62.3013 58.188 61.596 58.588C61.576 58.5986 61.556 58.6093 61.5347 58.6186C61.2987 58.728 61.0373 58.7773 60.7773 58.764L51.7667 58.7893C51.7413 58.792 51.7147 58.7933 51.6893 58.7933Z" fill="var(--hm-stroke, #000000)"/>
<path d="M20.5907 55.9067H20.5854C19.3214 55.8987 18.068 55.7067 16.8587 55.3387C16.4987 55.2293 16.264 54.884 16.2947 54.5093C16.376 53.5027 16.468 52.3613 16.964 51.316C17.1534 50.9173 17.6307 50.748 18.0307 50.9373C18.4294 51.1267 18.5987 51.604 18.4094 52.004C18.128 52.596 18.016 53.2827 17.9467 53.9787C18.8134 54.1907 19.7027 54.3013 20.596 54.3067C21.0374 54.3093 21.3934 54.6707 21.3907 55.112C21.388 55.552 21.0294 55.9067 20.5907 55.9067Z" fill="var(--hm-stroke, #000000)"/>
</g><g data-hm-layer-slot="head" data-hm-part-id="hm1-p-000010" data-hm-selection-slot="head" data-hm-source-group-id="head" data-hm-source-part-id="010" transform="translate(0, -0.5)">
<path d="M26.0587 31.6613C26.8227 29.3427 28.6947 27.528 30.7987 26.2867C32.9947 24.992 35.7653 24.244 38.0867 25.2973C37.7533 25.9973 38.1507 27.2027 38.9467 27.4707L40.1053 28.3787C40.8253 28.0307 41.7267 28.2453 42.3453 28.7533C42.964 29.2613 43.3373 30.0067 43.5813 30.768C44.08 32.3213 44.1027 33.9853 44.0187 35.6147C43.9707 36.5107 43.8987 37.4427 44.2293 38.2813C44.56 39.12 44.7987 39.288 44.4507 39.8293L45.284 49.3053C47.0253 50.34 47.9387 51.9587 48.896 52.1667C50.5773 52.5333 52.136 50.356 52.672 50.0333C53.9533 49.2667 55.844 50.504 57.012 49.5747C58.0627 48.7373 57.496 47.088 57.0387 45.824C54.788 39.596 57.5853 31.992 54.0187 26.412C53.1733 25.1147 52.0347 24.032 50.696 23.2547C49.3573 22.476 47.8533 22.0227 46.308 21.9293L42.5333 20.248C41.6507 18.8347 39.7227 18.4467 38.0773 18.712C36.432 18.9773 34.908 19.7427 33.284 20.116C32.3307 20.3347 31.3467 20.416 30.4067 20.6893C28.6667 21.2 27.164 22.3267 25.8773 23.6C22.5333 26.9333 20.356 31.3867 19.68 36.0547C19.004 40.7227 19.8133 45.58 21.852 49.8333C22.4293 51.0333 23.132 52.2253 24.2067 53.0133C25.2813 53.8013 26.804 54.1027 27.9613 53.4413C28.732 53 29.4107 52.148 30.2867 52.296C30.724 52.3707 31.0747 52.6893 31.4867 52.8627C32.324 53.2173 33.3227 52.908 34.02 52.3293L35.8667 51.8507L35.944 49.6027" fill="var(--hm-hair, #000000)"/>
<path d="M45.2987 52.1947C45.1453 50.3707 45.4813 48.9373 46.2747 47.2867C46.4533 46.9133 46.8413 46.9173 47.224 46.796C47.5627 46.6893 47.8987 46.5667 48.2267 46.428C48.8947 46.1507 49.5253 45.792 50.1067 45.3613C51.256 44.4933 52.1507 43.2747 52.488 41.8613C52.7933 40.58 52.5787 39.0547 51.148 38.3333C50.1453 37.8267 49.2453 38.0067 47.716 39.3507L46.316 39.6C45.444 39.812 44.5613 39.116 44.2293 38.2827C43.8973 37.4493 43.9707 36.516 44.0187 35.616C44.1027 33.9867 44.08 32.3227 43.5813 30.7693C43.3373 30.008 42.964 29.2613 42.3453 28.7547C41.7267 28.248 40.8253 28.032 40.1053 28.38L38.9467 27.4707C38.1467 27.204 37.7533 25.9987 38.0867 25.2987C35.7653 24.2453 32.9947 24.9933 30.7987 26.288C28.6947 27.528 26.8227 29.344 26.0587 31.6627L25.3333 33.4667C24.5333 34.6667 24.4 36.1333 24 37.6C24 38.0213 22.3787 43.712 26.1333 47.4667C27.4667 48.8 29.2 49.3333 31 49.7333C32.6147 49.9827 34.3787 50.2333 35.9333 49.6C35.844 50.988 35.8307 51.9787 35.8947 53.368" fill="var(--hm-skin, #FFFFFF)"/>
<path d="M26.5267 54.6C25.5773 54.6 24.5813 54.28 23.7347 53.6587C22.4627 52.7253 21.676 51.3093 21.132 50.18C19 45.732 18.204 40.6747 18.8893 35.94C19.5987 31.0387 21.8814 26.456 25.3134 23.0333C26.9414 21.4227 28.532 20.4053 30.1827 19.9213C30.7773 19.748 31.3747 19.648 31.9507 19.552C32.352 19.4853 32.732 19.4213 33.1067 19.336C33.78 19.1813 34.436 18.9547 35.1307 18.7147C36.0307 18.404 36.9627 18.0813 37.952 17.9227C39.6587 17.6467 42.0627 17.98 43.2134 19.8253C43.448 20.2 43.3334 20.6933 42.9587 20.928C42.584 21.1627 42.0907 21.048 41.856 20.6733C41.36 19.8787 40.0387 19.208 38.2054 19.504C37.3534 19.6413 36.5267 19.9267 35.652 20.2293C34.948 20.472 34.22 20.724 33.464 20.8987C33.0427 20.9947 32.6214 21.0653 32.2147 21.1333C31.6587 21.2267 31.1347 21.3133 30.6307 21.46C29.244 21.8667 27.8733 22.7547 26.4413 24.1707C23.2533 27.348 21.1334 31.6107 20.4734 36.172C19.8334 40.596 20.5787 45.3267 22.5747 49.4907C23.0653 50.5107 23.7 51.652 24.6814 52.3707C25.596 53.0413 26.7827 53.1973 27.5667 52.7493C27.7494 52.6453 27.9413 52.4987 28.1453 52.3453C28.732 51.9013 29.4627 51.348 30.4214 51.5107C30.8374 51.5813 31.172 51.7787 31.4413 51.9373C31.5693 52.0133 31.6907 52.084 31.7987 52.1293C32.356 52.3653 33.06 52.092 33.5107 51.7173C33.8507 51.436 34.3547 51.4827 34.6374 51.8227C34.92 52.1627 34.872 52.6667 34.532 52.9493C33.5267 53.784 32.208 54.0413 31.176 53.604C30.972 53.5173 30.7907 53.4107 30.6307 53.3173C30.4507 53.2107 30.28 53.1107 30.1547 53.0893C29.8774 53.0427 29.5054 53.324 29.1107 53.6227C28.876 53.8 28.632 53.984 28.3614 54.14C27.8134 54.4467 27.1813 54.6 26.5267 54.6Z" fill="var(--hm-stroke, #000000)"/>
<path d="M49.2933 53.0067C49.108 53.0067 48.92 52.988 48.7267 52.9453C47.5067 52.68 46.1773 50.8587 46.3533 48.9947C46.3947 48.5547 46.7867 48.232 47.2253 48.2733C47.6653 48.3147 47.988 48.7053 47.9467 49.1453C47.8547 50.1133 48.5987 51.28 49.0667 51.3813C49.92 51.5667 50.9467 50.5573 51.56 49.9533C51.8453 49.6733 52.0507 49.4707 52.26 49.344C53.116 48.832 54.0613 48.952 54.8973 49.0573C55.6907 49.1573 56.1947 49.2 56.5133 48.9453C57.0907 48.4853 56.7187 47.284 56.2867 46.092C55.244 43.2067 55.236 40.0733 55.228 37.044C55.2187 33.2947 55.2093 29.7547 53.3453 26.8387C52.576 25.6573 51.52 24.6533 50.2947 23.9413C49.0693 23.2293 47.6747 22.808 46.2613 22.724C45.82 22.6973 45.484 22.3187 45.5107 21.8773C45.5373 21.436 45.916 21.1 46.3573 21.1267C48.02 21.2267 49.66 21.7213 51.1 22.5587C52.54 23.396 53.7813 24.576 54.6907 25.972C56.8093 29.2853 56.8187 33.228 56.8293 37.0413C56.8373 39.9333 56.8453 42.9253 57.7933 45.5493C58.2587 46.8333 59.036 48.984 57.5133 50.1973C56.644 50.892 55.5653 50.756 54.6987 50.6467C54.064 50.5667 53.4653 50.4907 53.0867 50.7173C53.028 50.7573 52.8373 50.9453 52.6853 51.0947C51.9333 51.8307 50.7387 53.0067 49.2933 53.0067Z" fill="var(--hm-stroke, #000000)"/>
<path d="M45.9947 40.4373C44.8733 40.4373 43.876 39.564 43.4853 38.5747C43.108 37.6173 43.164 36.6053 43.212 35.7133L43.22 35.572C43.292 34.1613 43.3027 32.5147 42.82 31.012C42.576 30.2493 42.2547 29.7133 41.8373 29.3707C41.5 29.0933 41.0813 29.072 40.596 29.3067C40.1987 29.4987 39.72 29.332 39.528 28.9347C39.336 28.5373 39.5027 28.0587 39.9 27.8667C40.9507 27.3587 42.0267 27.456 42.8533 28.1347C43.5147 28.6773 44.0027 29.4587 44.344 30.524C44.9053 32.272 44.8987 34.0987 44.8187 35.656L44.8107 35.8C44.7667 36.6 44.7253 37.356 44.9747 37.988C45.164 38.468 45.684 38.9293 46.128 38.8213C46.5573 38.7173 46.9893 38.98 47.0947 39.4093C47.1987 39.8387 46.936 40.2707 46.5067 40.376C46.3333 40.4173 46.1627 40.4373 45.9947 40.4373Z" fill="var(--hm-stroke, #000000)"/>
<path d="M26.0587 32.4613C25.976 32.4613 25.892 32.448 25.808 32.4213C25.388 32.2827 25.16 31.8307 25.2987 31.4107C26.248 28.5267 28.5933 26.6573 30.392 25.5973C33.236 23.92 36.1613 23.5453 38.4173 24.5693C38.6133 24.6587 38.764 24.8213 38.8387 25.024C38.9133 25.2267 38.9013 25.448 38.8093 25.6427C38.716 25.84 38.7013 26.076 38.772 26.2427C38.8147 26.3427 38.88 26.4013 38.984 26.436C39.4027 26.576 39.6293 27.0293 39.4893 27.448C39.3493 27.8667 38.896 28.0933 38.4773 27.9533C37.9387 27.7733 37.5213 27.388 37.3 26.868C37.16 26.5373 37.1053 26.1667 37.1373 25.7973C34.7787 25.1107 32.244 26.364 31.2053 26.976C28.996 28.2773 27.4387 30.0307 26.8187 31.912C26.708 32.248 26.3947 32.4613 26.0587 32.4613Z" fill="var(--hm-stroke, #000000)"/>
<path d="M45.2787 52.3187C44.868 52.3187 44.5173 52.0027 44.4827 51.5853C44.3133 49.5773 44.704 48.6573 45.5333 46.9307C45.8373 46.3 46.412 46.1613 46.756 46.0787C46.8307 46.06 46.9013 46.044 46.9627 46.024C47.28 45.924 47.5933 45.8093 47.896 45.6813C48.508 45.428 49.0827 45.1013 49.6107 44.7093C50.6747 43.9053 51.416 42.8227 51.6907 41.6667C51.832 41.084 52.024 39.668 50.7747 39.0373C50.2293 38.7613 49.6947 38.6533 48.2293 39.9413C47.8973 40.2333 47.392 40.2 47.1 39.868C46.808 39.536 46.8413 39.0307 47.1733 38.7387C49.2773 36.8893 50.4947 37.1027 51.4947 37.608C53.0467 38.392 53.7173 40.0893 53.2453 42.0387C52.8853 43.5533 51.9347 44.9573 50.5693 45.988C49.932 46.4613 49.2413 46.8533 48.5133 47.1547C48.168 47.3 47.8067 47.4333 47.4427 47.5467C47.332 47.5813 47.2253 47.608 47.132 47.6307C47.0733 47.6453 46.9973 47.6627 46.948 47.6787C46.1813 49.2787 45.944 49.88 46.0773 51.448C46.1147 51.888 45.788 52.276 45.348 52.312C45.324 52.3173 45.3013 52.3187 45.2787 52.3187Z" fill="var(--hm-stroke, #000000)"/>
<path d="M35.884 53.4987C35.4587 53.4987 35.1053 53.164 35.0853 52.7347C35.0427 51.796 35.0333 51.324 35.06 50.68C33.4573 50.9893 31.8253 50.7053 30.5667 50.4853C28.5333 50.1267 26.9533 49.4027 25.736 48.2707C23.4987 46.1867 22.4547 42.808 22.8707 38.9987C23.0267 37.5867 23.608 35.4853 24.428 33.3773C24.588 32.9653 25.052 32.7613 25.464 32.9213C25.876 33.0813 26.08 33.5453 25.92 33.9573C25.0107 36.296 24.5707 38.1853 24.4613 39.1733C24.1 42.4733 24.9613 45.3627 26.8267 47.0987C27.824 48.0267 29.1 48.6013 30.8427 48.908C32.624 49.2187 34.2133 49.428 35.62 48.8533C35.8747 48.7493 36.1653 48.784 36.3893 48.944C36.6133 49.1053 36.7387 49.3693 36.7213 49.644C36.636 50.9853 36.6213 51.2813 36.6853 52.6573C36.7053 53.0987 36.364 53.4733 35.9227 53.4933C35.9093 53.4987 35.8973 53.4987 35.884 53.4987Z" fill="var(--hm-stroke, #000000)"/>
<path d="M29.124 37.3467C29.6395 37.3467 30.0573 36.8393 30.0573 36.2134C30.0573 35.5874 29.6395 35.08 29.124 35.08C28.6085 35.08 28.1907 35.5874 28.1907 36.2134C28.1907 36.8393 28.6085 37.3467 29.124 37.3467Z" fill="var(--hm-stroke, #000000)"/>
<path d="M33.6573 37.66C34.1728 37.66 34.5907 37.1526 34.5907 36.5267C34.5907 35.9008 34.1728 35.3933 33.6573 35.3933C33.1419 35.3933 32.724 35.9008 32.724 36.5267C32.724 37.1526 33.1419 37.66 33.6573 37.66Z" fill="var(--hm-stroke, #000000)"/>
</g><g data-hm-layer-slot="item" data-hm-part-id="hm1-p-000041" data-hm-selection-slot="item" data-hm-source-group-id="item" data-hm-source-part-id="000" transform="translate(0, 0)">
</g><g data-hm-layer-slot="glasses" data-hm-part-id="hm1-p-000056" data-hm-selection-slot="glasses" data-hm-source-group-id="glasses" data-hm-source-part-id="000" transform="translate(0, 0)"></g></svg>