<svg xmlns="http://www.w3.org/2000/svg" width="88" height="88" viewBox="-4 -4.5 88 88" style="--hm-bottom:#756E62;--hm-clothes:#DCE2E8;--hm-hair:#6B4E37;--hm-skin:#EDD0B5;--hm-stroke:#1A1A1A"><g data-hm-layer-slot="bottom" data-hm-part-id="hm1-p-000039" data-hm-selection-slot="bottom" data-hm-source-group-id="bottom" data-hm-source-part-id="007" transform="translate(0, 85)">
<path d="M51.188 90.4502C50.3787 92.2899 48.8813 93.737 47.016 94.4819C45.152 95.2269 43.0707 95.2108 41.2187 94.4352L41.108 94.3898C40.3187 96.6593 39.1427 98.802 38.6453 101.152C38.568 101.511 38.512 101.905 38.684 102.23C38.9307 102.696 39.5253 102.827 40.0467 102.898C41.8533 103.165 43.7293 103.385 45.4787 102.862C48.4 101.994 50.4 99.1558 51.1627 96.1987C51.7213 94.0414 51.7467 91.8026 51.6533 89.5651L51.188 90.4502Z" fill="#000000"/>
<path d="M36.6134 89.6839C35.472 90.8214 34.0814 91.6771 32.5534 92.1844C31.0254 92.6917 29.4 92.8372 27.8054 92.6076C27.3067 92.5529 26.824 92.3993 26.3867 92.1537C25.9614 91.8867 25.6174 91.4582 25.5667 90.9602V90.4743C23.7694 91.9962 21.9587 93.4887 21.348 95.6941C21.2267 96.1347 21.164 96.6206 21.356 97.0291C21.72 97.8101 22.752 97.9436 23.612 97.9636C25.8707 98.0344 28.1614 98.0971 30.3574 97.5711C32.5534 97.0451 34.684 95.8276 35.824 93.8745C36.7307 92.3246 36.936 90.4743 37.1067 88.6867L36.6134 89.6839Z" fill="#000000"/>
<path d="M42.2586 78.7543C42.8933 79.2669 43.6266 79.6421 44.4133 79.8543C45.2 80.0666 46.0226 80.1133 46.828 79.9905C47.6333 79.8677 48.4053 79.578 49.092 79.1401C49.78 78.7022 50.3693 78.1255 50.8213 77.446L51.2386 76.9814C51.172 68.7164 51.3866 53.7044 51.5466 46.8945L41.2186 48.7128C41.6186 55.7336 41.824 70.4867 41.944 78.5033L42.2586 78.7543Z" fill="var(--hm-skin, #FFFFFF)"/>
<path d="M38.0733 76.1978C38.5253 68.8072 38.804 59.3514 38.776 52.89L28.776 50.4456C29.0427 57.1206 29.4987 69.125 29.82 76.8493L30.3733 77.0429C31.6493 77.3005 32.9373 77.5595 34.24 77.5368C35.5427 77.5141 36.876 77.191 37.904 76.39L38.0733 76.1978Z" fill="var(--hm-skin, #FFFFFF)"/>
<path d="M27.256 7.25308C24.2014 20.4642 21.1854 33.6834 18.208 46.9119C17.6334 49.4658 17.532 52.9515 19.996 53.8246C22.04 54.5495 24.0254 52.7312 26.1067 52.1238C30.252 50.9116 34.3827 54.6256 38.692 54.3252C42.0614 54.0902 44.9894 51.4256 48.364 51.5671C50.4334 51.6539 52.2907 52.7913 54.2574 53.4361C56.224 54.0809 58.736 54.0929 59.9827 52.4362C60.9747 51.1172 60.772 49.2842 60.516 47.6515C58.496 34.4577 56.4734 21.2612 54.4507 8.06343L27.256 7.25308Z" fill="var(--hm-bottom, #000000)"/>
<path d="M41.2187 94.4353C43.0707 95.2109 45.152 95.2269 47.016 94.482C48.88 93.7371 50.3774 92.2886 51.188 90.4503L51.6414 89.3008C51.608 88.337 51.5747 88.0393 51.5214 87.0794C51.3534 84.0703 51.2694 80.5913 51.24 76.9334L50.8227 77.4474C50.3694 78.1256 49.7814 78.7023 49.0934 79.1415C48.4054 79.5794 47.6347 79.8691 46.828 79.9932C46.0227 80.116 45.2 80.0707 44.4134 79.8571C43.6267 79.6448 42.892 79.2697 42.2587 78.757L41.944 78.4647C41.9867 81.2682 42.0187 83.9595 42.044 86.4172C42.0667 88.5786 42.076 90.7667 41.5654 92.8666C41.4387 93.3846 41.2827 93.8946 41.1067 94.3979L41.2187 94.4353Z" fill="#FFFFFF"/>
<path d="M25.5666 90.9602C25.6173 91.4582 25.9666 91.8947 26.3866 92.1537C26.8239 92.3994 27.3066 92.5529 27.8053 92.6076C29.3999 92.8359 31.0253 92.6917 32.5533 92.1844C34.0813 91.6771 35.4719 90.8214 36.6133 89.684L37.0559 89.2301L37.1079 88.6961C37.4693 84.9047 37.7973 80.6687 38.0653 76.314L37.8973 76.3887C36.8693 77.1897 35.5359 77.5141 34.2333 77.5355C32.9306 77.5568 31.6439 77.2992 30.3666 77.0415L29.8173 76.9628C29.8706 78.2404 29.9199 79.4472 29.9639 80.5553C30.0386 82.4243 30.0973 84.3747 29.3599 86.0982C28.5599 87.9458 26.9599 89.2862 25.3879 90.6225L25.5666 90.9602Z" fill="#FFFFFF"/>
<path fill-rule="evenodd" clip-rule="evenodd" d="M26.3307 52.8927C26.8777 52.7325 27.4303 52.6708 27.9893 52.6819C28.1488 56.6737 28.3735 61.8841 28.5923 66.9544L28.6027 67.1959C28.8094 71.9592 29.0214 76.884 29.1707 80.5899L29.1708 80.5927C29.2375 82.2782 29.313 84.1887 28.6307 85.7844C27.92 87.4385 26.468 88.668 24.9294 89.9697C23.1174 91.5022 21.244 93.0882 20.5814 95.4819C20.3747 96.2335 20.3934 96.8503 20.636 97.3682C21.2614 98.7099 22.9587 98.75 23.592 98.7646L23.6185 98.7655C24.3449 98.7879 25.1044 98.8114 25.8787 98.8114C27.4094 98.8114 29.0054 98.7193 30.548 98.3481C33.204 97.7127 35.38 96.2281 36.5187 94.2777C37.5487 92.5179 37.7478 90.4368 37.9077 88.7646L37.908 88.7615C38.9504 77.8286 39.6027 64.6446 39.5814 55.0218C39.8705 54.9719 40.1556 54.9081 40.4373 54.8334C40.9635 64.3366 41.1502 77.3942 41.2454 86.4226C41.2667 88.389 41.2894 90.6185 40.7894 92.6744C40.4753 93.9696 39.9622 95.1962 39.4191 96.4945L39.4094 96.5179C38.812 97.9423 38.196 99.4148 37.864 100.982C37.7574 101.477 37.6867 102.055 37.9774 102.605C38.4426 103.485 39.4858 103.629 39.9255 103.689L39.9294 103.689C40.9614 103.843 42.028 103.979 43.0907 103.979C43.972 103.979 44.8507 103.886 45.7094 103.627C49.1947 102.591 51.2134 99.2132 51.94 96.3964C52.696 93.4647 52.52 90.4249 52.3494 87.4852L52.3227 87.0313C51.7913 77.5367 52.104 63.3199 52.3313 53.5583C52.8753 53.7837 53.4355 54.0098 54.0067 54.197C55.18 54.5815 56.4147 54.723 57.484 54.5948C58.832 54.4333 59.916 53.8526 60.62 52.9181C61.788 51.3641 61.5867 49.3216 61.3054 47.53C59.4595 35.4734 57.6113 23.4145 55.763 11.3545L55.24 7.94191C55.1734 7.50537 54.7654 7.20633 54.328 7.27174C53.892 7.33849 53.592 7.747 53.6587 8.18489C55.6786 21.3647 57.6972 34.5432 59.7158 47.7217L59.724 47.7756C59.9654 49.3122 60.1347 50.9009 59.3427 51.9542C58.3147 53.3199 56.0947 53.1957 54.5054 52.6751C53.904 52.4775 53.316 52.2332 52.6934 51.9742C51.3427 51.4122 49.944 50.8315 48.3974 50.766C46.4147 50.6846 44.6227 51.4576 42.8907 52.2065C41.4414 52.834 40.072 53.4254 38.6374 53.5255C36.8562 53.6494 35.0857 53.0149 33.2117 52.3433L33.2027 52.34C30.8427 51.4936 28.4014 50.6192 25.884 51.3548C25.1347 51.5724 24.42 51.9222 23.7307 52.2612L23.727 52.2631C22.4352 52.8964 21.319 53.4437 20.264 53.0689C18.012 52.2719 18.7187 48.2896 18.9894 47.0881C21.952 33.9223 24.996 20.5817 28.036 7.43328C28.136 7.00207 27.868 6.5722 27.4374 6.47208C27.0067 6.37195 26.5774 6.64029 26.4774 7.0715C23.4374 20.2226 20.392 33.5672 17.428 46.7357C16.5107 50.8114 17.3707 53.7431 19.7294 54.5788C21.4174 55.1782 23.02 54.3932 24.4334 53.7004C25.0907 53.3773 25.7134 53.0729 26.3307 52.8927ZM32.6614 53.8486C34.3756 54.464 36.1406 55.0969 37.9816 55.1411C37.9917 61.1356 37.7407 68.5035 37.2976 75.8379C36.3135 76.5497 35.089 76.719 34.22 76.7345C33.0227 76.7568 31.7882 76.5116 30.5933 76.2703C30.4879 73.7735 30.37 71.0376 30.2527 68.3168L30.1965 67.0133C29.9809 62.0186 29.7588 56.8738 29.5988 52.888C30.5956 53.1073 31.6148 53.473 32.6614 53.8486ZM34.248 78.3352C35.3308 78.3167 36.3224 78.1123 37.1786 77.7365C36.9363 81.4634 36.6457 85.15 36.316 88.6106L36.3154 88.6174C36.3048 88.7277 36.294 88.84 36.2828 88.9539C36.1983 88.9923 36.1191 89.0461 36.0494 89.1152C35.0014 90.1592 33.7054 90.9575 32.3014 91.4235C30.8974 91.8894 29.3827 92.0242 27.9187 91.8146L27.892 91.8106C27.504 91.7679 27.1347 91.6504 26.7934 91.4622C26.552 91.3086 26.384 91.0804 26.3627 90.8774C26.3619 90.8697 26.361 90.862 26.36 90.8543C27.8417 89.5925 29.312 88.2527 30.1014 86.4146C30.9279 84.4844 30.8401 82.29 30.7694 80.5252C30.7366 79.7106 30.7007 78.8364 30.6624 77.9186C31.7669 78.1379 32.9021 78.3392 34.0734 78.3392C34.132 78.3392 34.1908 78.3392 34.248 78.3352ZM25.0788 91.947C23.7293 93.1263 22.5613 94.328 22.124 95.9077C22 96.3576 22.0347 96.5806 22.0854 96.6874C22.2227 96.9824 22.744 97.1413 23.636 97.1626L23.6421 97.1628C25.8136 97.2309 28.0527 97.301 30.176 96.7915C32.4094 96.2562 34.2187 95.0453 35.1387 93.47C35.5219 92.815 35.7691 92.0728 35.9384 91.3165C34.9882 92.0188 33.9268 92.5723 32.8067 92.944C31.6694 93.3218 30.4694 93.5127 29.272 93.5127C28.748 93.5127 28.224 93.4767 27.7054 93.4019C27.1014 93.3338 26.5267 93.1496 25.996 92.8519C25.9867 92.8466 25.9774 92.8412 25.9667 92.8345C25.5924 92.6036 25.288 92.2956 25.0788 91.947ZM48.3294 52.3667C49.1462 52.4013 49.9402 52.6235 50.7453 52.9201C50.5883 59.6279 50.3814 68.611 50.4415 76.7403C50.3306 76.8004 50.2323 76.8877 50.1574 77.0002C49.764 77.5902 49.2614 78.0828 48.664 78.4633C48.0667 78.8438 47.408 79.0908 46.708 79.1976C46.008 79.3044 45.3067 79.2643 44.6227 79.0801C43.9387 78.8945 43.312 78.5755 42.7614 78.1296C42.7542 78.1238 42.7469 78.1181 42.7396 78.1126C42.6183 70.2809 42.4107 61.4121 42.02 54.4814C42.0168 54.4245 42.0077 54.3694 41.9933 54.3166C42.5116 54.1155 43.0206 53.8954 43.524 53.6777L43.5272 53.6763C45.1647 52.9679 46.7118 52.2987 48.3294 52.3667ZM42.8454 86.4039C42.8248 84.4502 42.7999 82.3079 42.7682 80.0536C43.2208 80.2994 43.7011 80.4912 44.2054 80.6274C44.776 80.7822 45.356 80.8596 45.94 80.8596C46.276 80.8596 46.612 80.8343 46.9494 80.7809C47.8707 80.6407 48.736 80.315 49.5227 79.8143C49.8612 79.5984 50.1764 79.3555 50.467 79.087C50.5088 81.9681 50.5898 84.6965 50.7254 87.1221L50.7526 87.589C50.7934 88.2951 50.8346 89.0073 50.8624 89.7205C50.6874 89.7986 50.5396 89.9393 50.456 90.1285C49.7267 91.7852 48.4 93.0682 46.72 93.7397C45.2337 94.3331 43.6168 94.3895 42.1079 93.9101C42.1943 93.6265 42.2737 93.3402 42.344 93.0509C42.8909 90.8046 42.8668 88.4746 42.8455 86.4165L42.8454 86.4039ZM41.5817 95.4232C41.3587 96.0037 41.1203 96.5735 40.8854 97.1346L40.8829 97.1405C40.2905 98.5561 39.7303 99.8947 39.4294 101.315C39.352 101.671 39.3667 101.804 39.3934 101.853C39.4174 101.899 39.5427 102.017 40.156 102.101C41.9467 102.365 43.676 102.563 45.252 102.091C47.12 101.536 49.4494 99.6444 50.3907 95.9959C50.6793 94.8767 50.8184 93.7187 50.8708 92.545C49.9559 93.7323 48.7374 94.6576 47.3134 95.2269C46.2987 95.6314 45.236 95.8343 44.1747 95.8343C43.3012 95.8343 42.4277 95.6971 41.5817 95.4232Z" fill="var(--hm-stroke, #000000)"/>
</g><g data-hm-layer-slot="body" data-hm-part-id="hm1-p-000031" data-hm-selection-slot="body" data-hm-source-group-id="body" data-hm-source-part-id="007" transform="translate(0, 51)">
<g clip-path="url(#clip0_2_1901)">
<path d="M45.2494 0C45.3694 1.34667 45.92 4.38933 47.9694 3.93333L48.1894 4.26667C48.0894 6.356 47.0307 7.82933 45.372 9.356C43.6867 10.8827 41.5374 11.8 39.2694 11.9613C37.2694 12.108 35.1427 11.6293 33.6467 10.288C32.1507 8.94667 31.364 7.088 32.3547 5.49467H32.4987C32.9494 5.508 33.364 5.272 33.7454 5.032C34.2307 4.72533 35.232 3.468 35.532 3.10667C35.932 2.588 36.0947 0.621333 36.3 0H45.2494V0Z" fill="var(--hm-skin, #FFFFFF)"/>
<path d="M16.94 54.632C16.0067 54.98 15.2067 55.78 15.4734 56.8467C17.2067 58.58 16.8067 61.1133 16.6734 63.2467C16.944 63.8413 17.376 64.348 17.9187 64.7107C18.4627 65.0733 19.096 65.2773 19.7494 65.2987L20.8667 55.116L16.94 54.632Z" fill="var(--hm-skin, #FFFFFF)"/>
<path d="M48.3013 3.21467C50.66 3.84667 52.4893 5.664 53.9627 7.524C55.5693 9.55733 56.8307 11.8413 57.696 14.284C58.18 15.6467 58.9453 17.1827 59.2613 18.5933L59.6827 19.8747C61.9493 29.6507 62.368 39.7307 62.52 49.784L62.6533 50.1067C63.4667 53.1133 66.5333 60.7133 67.2 63.9133C67.2213 64.1867 67.176 64.4613 67.0667 64.7133C65.7333 66.3133 63.4667 65.9133 61.7133 66.456L55.5173 67.6907C46.6493 69.2813 43.4827 70.4693 34.6 68.972L34.2 68.872C33.616 63.96 33.1853 58.856 32.936 53.7133L32.8747 53.98C32.0333 58.8973 31.2453 63.4467 31.08 68.432L31.0547 68.644C29.144 68.2787 23.368 67.2453 21.4547 66.88C20.9373 66.78 20.3693 66.6493 20.0667 66.2133C19.816 65.856 19.8173 65.3853 19.836 64.9493C19.912 63.216 20.112 61.4947 20.312 59.7733L21.2267 51.8947H21.1573C19.8027 51.7307 18.7147 51.5667 17.36 51.4027C17.9213 45.208 18.6413 39.0307 19.52 32.8693C20.2853 27.5027 21.1733 22.1347 22.752 16.9493C24.1547 12.3413 27.8467 6.24267 32.072 3.932L34.7027 4.352C36.436 6.07467 39.352 6.44 41.4507 5.196L48.3013 3.21467Z" fill="var(--hm-clothes, #FFFFFF)"/>
<path d="M52.8813 58C51.5973 58.4147 49.936 60.0987 51.0213 61.5227C51.6187 62.308 52.5213 62.7307 53.3493 63.2227C53.988 63.6027 54.156 64.8813 54.4027 65.56C55.0267 67.2707 56.2387 68.6707 58.224 68.5413C60.2453 68.408 61.5027 66.6867 61.8867 64.8293C62.304 62.816 61.636 59.896 61.3013 57.904L52.8813 58Z" fill="var(--hm-skin, #FFFFFF)"/>
<path d="M51.6347 54.5106C51.4267 55.5306 51.3573 56.5733 51.4307 57.612C51.428 57.672 51.4373 57.732 51.4573 57.788C51.4787 57.844 51.5107 57.896 51.552 57.94C51.636 57.9906 51.7347 58.0133 51.832 58.0013L60.8987 57.976C61.036 57.9866 61.1733 57.9626 61.2987 57.9053C61.5533 57.76 61.5733 57.4053 61.5653 57.112L61.4667 54.6546L51.6347 54.5106Z" fill="var(--hm-clothes, #FFFFFF)"/>
<path d="M17.78 51.6707C17.3533 52.572 17.2653 53.5907 17.1853 54.5853C18.32 54.9307 19.4986 55.1107 20.684 55.1187L21.0453 52.0267L17.78 51.6707Z" fill="var(--hm-clothes, #FFFFFF)"/>
<path d="M34.2773 25.1386L34.3813 5.39064C34.3813 4.61864 34.5333 1.91198 34.7693 1.53731C33.036 2.67331 31.9787 4.55598 30.9813 6.36664C30.4093 7.40531 29.8187 8.51864 29.8973 9.69998C30.008 11.3853 31.4347 12.7333 31.6787 14.404C31.96 16.3293 30.6227 18.1293 30.4787 20.0693C30.4053 21.1093 30.8133 23.4026 31.0867 24.4133L33.0787 31.768L33.0107 38.4733C35.3253 33.6466 38.0293 29.016 41.0973 24.6293C42.052 23.2613 43.0973 21.7413 42.892 20.0853C42.7587 19.0186 42.1213 17.9453 42.484 16.9333C42.6387 16.5013 42.96 16.1533 43.272 15.8173L47.78 10.9826C48.088 10.652 48.4053 10.3053 48.54 9.87331C48.692 9.37998 48.584 8.84798 48.4747 8.34264L47.1013 2.01464C46.98 1.45598 46.7467 0.783976 46.1813 0.69331C44.8253 1.58664 43.6213 2.91864 42.5667 4.31331C37.9893 10.3733 35.848 17.7866 34.3 25.296" fill="var(--hm-clothes, #FFFFFF)"/>
<path d="M41.4506 5.196C39.352 6.44 36.436 6.07467 34.7026 4.352V21.9333L41.4506 5.196Z" fill="var(--hm-clothes, #FFFFFF)"/>
<path fill-rule="evenodd" clip-rule="evenodd" d="M34.4721 69.76C37.4014 70.2547 39.7201 70.4614 41.8201 70.4614C45.2107 70.4614 48.0334 69.9213 51.94 69.172L52.2538 69.1122C53.2671 68.9189 54.3186 68.7184 55.4861 68.508C56.2036 69.0585 57.0481 69.3493 57.9787 69.3493C58.0774 69.3493 58.176 69.3466 58.272 69.3386C59.6841 69.245 60.9119 68.478 61.7355 67.2557C61.8068 67.2537 61.8781 67.2416 61.9494 67.2187C62.4467 67.064 63.0161 66.9933 63.6187 66.9187C65.0054 66.7467 66.5761 66.5507 67.6814 65.224C67.7307 65.1653 67.7707 65.1 67.8014 65.0293C67.9601 64.66 68.0281 64.252 67.9974 63.8507C67.9947 63.8173 67.9894 63.7827 67.9827 63.7493C67.5895 61.859 66.4339 58.6238 65.3138 55.4879L65.2764 55.3834C64.4937 53.192 63.7565 51.1283 63.4227 49.8973C63.4012 49.8182 63.3686 49.7451 63.3269 49.6792C63.2264 39.9406 62.9879 30.6381 60.7147 20.8373C60.6147 20.4067 60.1854 20.1387 59.7547 20.2387C59.3241 20.3387 59.0561 20.768 59.1561 21.1987C61.5601 31.5653 61.6521 41.4413 61.7481 51.8973L61.7483 51.9293C61.7536 52.5428 61.7588 53.1588 61.7654 53.7773L51.6707 53.612C50.1707 41.892 49.6534 29.9693 50.132 18.1667C50.1507 17.7253 49.8067 17.352 49.3654 17.3347C48.9227 17.3187 48.5507 17.66 48.5334 18.1013C48.0414 30.2253 48.5934 42.472 50.1734 54.504C50.2145 54.8147 50.4303 55.0647 50.7144 55.1593C50.6033 55.9774 50.5756 56.8052 50.6307 57.6307C50.6294 57.7787 50.656 57.924 50.708 58.0667C50.7667 58.2253 50.856 58.368 50.972 58.4907C50.9835 58.5024 50.9952 58.5138 51.0072 58.5248C50.5225 58.8905 50.1207 59.3589 49.944 59.9226C49.7907 60.4093 49.744 61.1666 50.384 62.0066C50.9774 62.7866 51.796 63.2546 52.5187 63.6666L52.6205 63.7251C52.7277 63.7865 52.8348 63.8479 52.94 63.9106C53.1373 64.0285 53.3531 64.8144 53.4474 65.1582L53.4494 65.1653C53.5147 65.4053 53.5774 65.6306 53.6507 65.8346C53.8211 66.3021 54.0238 66.7271 54.2554 67.1071C53.3163 67.2807 52.4399 67.4479 51.64 67.6014L51.6376 67.6018C45.5498 68.7669 42.1724 69.4132 34.9347 68.2147C34.3994 63.6041 34.0107 58.8995 33.7726 54.225L33.7947 54.0973C33.8214 53.9413 33.8012 53.7882 33.7442 53.6525C33.5052 48.7065 33.4352 43.7998 33.5387 39.08C33.6187 39.0107 33.6867 38.924 33.7361 38.8214C36.0241 34.048 38.7227 29.428 41.7574 25.0894C42.7254 23.7027 43.9307 21.976 43.6907 19.992C43.6387 19.5654 43.5254 19.164 43.4147 18.776C43.24 18.1614 43.0894 17.6307 43.2414 17.2054C43.3402 16.9275 43.6003 16.647 43.8521 16.3754L43.8614 16.3654L48.3694 11.5307L48.3717 11.5282C48.7046 11.17 49.1192 10.7239 49.3081 10.112C49.5258 9.40684 49.3733 8.70033 49.2614 8.18222L48.3682 4.06728C50.5628 4.76682 52.2451 6.64487 53.3347 8.02002C54.8907 9.98802 56.104 12.1854 56.9414 14.552C57.116 15.0414 57.3254 15.5547 57.528 16.0507L57.5338 16.0648C57.9053 16.9751 58.289 17.9151 58.48 18.768C58.564 19.14 58.8934 19.3934 59.26 19.3934C59.3187 19.3934 59.3774 19.3867 59.436 19.3734C59.8667 19.276 60.1374 18.848 60.0414 18.4174C59.82 17.4294 59.408 16.42 59.0094 15.444C58.804 14.9427 58.6107 14.4694 58.4494 14.016C57.5534 11.484 56.2547 9.13335 54.5894 7.02669C53.3134 5.41602 51.2947 3.18802 48.508 2.44135C48.3405 2.39633 48.1712 2.40804 48.0203 2.46468L47.8867 1.84936C47.6374 0.688023 47.1067 0.0346898 46.3107 -0.0933102C46.1134 -0.12531 45.9107 -0.0826436 45.744 0.0280231C44.4894 0.853356 43.2427 2.09869 41.9307 3.83336C41.7899 4.01977 41.6514 4.20745 41.5151 4.39634C41.3598 4.38627 41.2 4.42131 41.0561 4.50667C39.3532 5.51686 36.9459 5.2644 35.4597 3.95234C35.6013 3.44338 35.7611 2.97858 35.8467 2.83067C36.048 2.51201 35.9987 2.09734 35.7307 1.83334C35.4627 1.56934 35.0467 1.52801 34.732 1.73467C33.9628 2.23891 33.2536 2.72021 32.6115 3.2457C32.522 3.25945 32.4334 3.28873 32.3494 3.33466C27.6987 5.87866 23.356 12.2613 22 16.716C20.3947 21.9893 19.4854 27.5413 18.7414 32.756C17.8654 38.9 17.136 45.148 16.576 51.3307C16.5533 51.5752 16.6437 51.8048 16.8047 51.967C16.5865 52.6361 16.4951 53.3229 16.4346 53.9735C15.0765 54.5735 14.3825 55.7803 14.6974 57.04C14.7334 57.1813 14.8054 57.3093 14.9081 57.412C16.2041 58.7093 16.0614 60.6467 15.9227 62.52L15.92 62.5564C15.9036 62.7733 15.8874 62.9877 15.8747 63.1973C15.8667 63.328 15.8907 63.4587 15.9454 63.5787C16.2774 64.3093 16.8067 64.9307 17.4747 65.376C17.9762 65.712 18.5402 65.9363 19.1306 66.0382C19.1883 66.2588 19.2807 66.4765 19.4254 66.6827C19.922 67.3896 20.7536 67.5595 21.3149 67.6742L21.3174 67.6747C22.1752 67.8382 23.8253 68.1389 25.5235 68.4483L27.285 68.7694C28.7674 69.0397 30.1603 69.2937 30.9174 69.4387C30.9667 69.448 31.016 69.4534 31.0667 69.4534C31.2347 69.4534 31.4014 69.4 31.54 69.2973C31.72 69.1667 31.836 68.9667 31.8627 68.7467L31.888 68.5347C31.8907 68.512 31.892 68.4894 31.8934 68.4667C31.9775 65.9286 32.255 63.4975 32.6203 61.062C32.8365 63.7134 33.1002 66.3553 33.4107 68.9654C33.4494 69.2947 33.6881 69.5667 34.0107 69.6467L34.4107 69.7467C34.4279 69.7512 34.446 69.7549 34.4634 69.7583L34.4721 69.76ZM29.4776 7.61351C26.7368 10.422 24.4218 14.2512 23.5294 17.1813C22.0427 22.0627 21.1734 27.028 20.324 32.9813C19.488 38.8427 18.7867 44.8013 18.24 50.704C18.5695 50.7464 18.8868 50.7889 19.1982 50.8305L19.3787 50.8547C19.754 50.9049 20.1377 50.9562 20.5378 51.0076L21.1093 46.08C22.2129 36.5713 23.3542 26.7378 25.592 17.2427C25.6934 16.8133 26.124 16.5467 26.5547 16.648C26.984 16.7493 27.2507 17.18 27.1494 17.6107C24.9323 27.0177 23.7963 36.806 22.6977 46.2718L21.12 59.8747C20.9254 61.552 20.724 63.288 20.648 64.9933C20.6387 65.2054 20.6214 65.6027 20.7347 65.7627C20.8659 65.9483 21.3187 66.0416 21.6227 66.1042L21.628 66.1053C22.5677 66.2851 24.5071 66.638 26.3987 66.9822L26.4894 66.9987C27.8747 67.2507 29.296 67.5093 30.3227 67.7C30.5174 63.5587 31.1894 59.716 31.8987 55.66C31.9356 55.4478 31.9727 55.2352 32.01 55.0219L32.0108 55.017L32.0112 55.0151C32.0622 54.7229 32.1135 54.4296 32.1643 54.1352C31.7779 46.4329 31.7976 38.814 32.2414 31.8254C32.2431 31.8042 32.2453 31.7831 32.2484 31.762L30.3147 24.6227C30.0414 23.6133 29.596 21.2107 29.6814 20.0133C29.7507 19.076 30.052 18.2107 30.344 17.3733L30.3449 17.371C30.6926 16.3718 31.0213 15.4273 30.888 14.52C30.792 13.8627 30.452 13.2227 30.092 12.5453L30.0889 12.5394C29.6365 11.6866 29.1692 10.8055 29.1 9.75201C29.0489 8.98962 29.2205 8.27253 29.4776 7.61351ZM33.8787 31.7502L33.9427 31.4174C35.572 22.5334 37.4188 12.4639 43.2067 4.79602C44.2414 3.42669 45.216 2.40269 46.1694 1.68269C46.2161 1.79069 46.2707 1.94936 46.3214 2.18536L47.6947 8.51336L47.6964 8.52107C47.7786 8.90316 47.8714 9.33408 47.7774 9.63869C47.697 9.8997 47.4471 10.1685 47.2044 10.4297L47.1961 10.4387L42.6867 15.2747L42.6795 15.2825C42.3501 15.6385 41.9412 16.0803 41.732 16.6654C41.4067 17.5734 41.6547 18.4454 41.8734 19.2134C41.972 19.5574 42.0641 19.8814 42.1001 20.184C42.2667 21.5614 41.2987 22.9494 40.444 24.1734C37.944 27.7494 35.6667 31.5134 33.6547 35.396C33.7031 34.2646 33.7618 33.1461 33.8307 32.0429C33.8644 31.9505 33.8813 31.8514 33.8787 31.7502ZM32.9237 28.1375L31.8587 24.2053C31.5814 23.1787 31.2134 21.0133 31.276 20.1293C31.3293 19.4047 31.5836 18.6747 31.8526 17.9022L31.854 17.8981C32.2498 16.7601 32.6586 15.5846 32.4694 14.2893C32.3336 13.36 31.9119 12.5662 31.5044 11.7992L31.4961 11.7835C31.1079 11.0508 30.7411 10.3586 30.6947 9.64801C30.6347 8.73601 31.0854 7.83601 31.6814 6.75334C32.2067 5.80001 32.8787 5.08401 33.7014 4.42134C33.628 4.78934 33.5814 5.12934 33.5814 5.38667L33.4774 25.1347C33.4771 25.1792 33.4805 25.2229 33.4873 25.2655C33.2898 26.229 33.1034 27.1876 32.9237 28.1375ZM35.1126 18.4503C36.2739 14.3273 37.8149 10.2751 40.0621 6.58704C39.6115 6.6841 39.1505 6.73201 38.6894 6.73201C37.4578 6.73201 36.2225 6.3918 35.1796 5.73553L35.1126 18.4503ZM18.0414 53.9907C18.0985 53.4186 18.1836 52.8519 18.3697 52.3369C18.6263 52.3706 18.8768 52.4041 19.1241 52.4371L19.3934 52.473L19.3944 52.4731L19.3954 52.4732C19.7064 52.5146 20.0238 52.5568 20.3532 52.5992L20.1556 54.3029C19.4427 54.265 18.7348 54.1603 18.0414 53.9907ZM17.1499 55.4092C18.0708 55.6738 19.016 55.8369 19.9709 55.8949L19.5252 59.7385C19.3497 61.2547 19.169 62.8166 19.0783 64.3834C18.8262 64.3067 18.5857 64.1931 18.3641 64.0453C17.9974 63.8 17.6961 63.4707 17.4867 63.084C17.4927 62.99 17.4997 62.896 17.5067 62.8014L17.5098 62.7599L17.5189 62.6352C17.6629 60.6836 17.8408 58.2713 16.2241 56.4747C16.2 55.8656 16.8834 55.5205 17.1499 55.4092ZM53.4763 58.7955C53.3968 59.0246 53.2144 59.2151 52.9654 59.2946C52.224 59.5333 51.5947 59.9986 51.4694 60.4C51.4454 60.476 51.3827 60.6786 51.656 61.0373C52.0484 61.5538 52.6527 61.9001 53.2926 62.267L53.3107 62.2773C53.46 62.3626 53.6094 62.448 53.7561 62.5346C54.5107 62.984 54.7774 63.96 54.9907 64.7426C55.0467 64.9493 55.1014 65.1453 55.1521 65.2866C55.5827 66.468 56.46 67.856 58.1694 67.7426C59.2947 67.668 60.6547 66.8213 61.1014 64.6666C61.4437 63.0152 61.1354 61.2374 60.8371 59.5166L60.836 59.5106C60.7989 59.3 60.7632 59.0906 60.7274 58.8813L60.7267 58.8773C60.721 58.843 60.7175 58.8089 60.7161 58.7751L53.4763 58.7955ZM62.1109 58.2106C62.2088 58.3197 62.2779 58.4569 62.304 58.612C62.3337 58.7896 62.3642 58.9672 62.395 59.1457L62.4107 59.2373L62.4119 59.2441C62.7355 61.1114 63.0702 63.0423 62.6654 64.9906C62.633 65.1469 62.5959 65.3001 62.5543 65.45C62.8448 65.4037 63.1359 65.3676 63.4227 65.332L63.4243 65.3318C64.625 65.1826 65.667 65.053 66.3694 64.296C66.3961 64.2067 66.4081 64.112 66.4054 64.0187C66.0201 62.216 64.8387 58.9107 63.7947 55.992L63.7773 55.9432C63.6348 55.5441 63.4937 55.1491 63.3562 54.7621C63.3235 54.9108 63.2486 55.0484 63.1387 55.1573C62.9894 55.3067 62.7854 55.3907 62.5747 55.3907H62.5614L62.2961 55.3863L62.364 57.0787C62.3699 57.2888 62.3838 57.7978 62.1109 58.2106ZM60.6942 55.36L52.322 55.2225C52.2237 55.8766 52.1868 56.5387 52.2107 57.2L60.768 57.176C60.768 57.1671 60.768 57.1576 60.7676 57.1479C60.7674 57.1431 60.7671 57.1382 60.7667 57.1333L60.6942 55.36Z" fill="var(--hm-stroke, #000000)"/>
</g>
<defs>
<clipPath id="clip0_2_1901">
<rect width="80" height="80" fill="#FFFFFF"/>
</clipPath>
</defs>
</g><g data-hm-layer-slot="head" data-hm-part-id="hm1-p-000021" data-hm-selection-slot="head" data-hm-source-group-id="head" data-hm-source-part-id="021" transform="translate(0, -0.5)">
<path d="M35.9373 49.6027C35.848 50.9907 35.8347 51.9813 35.8987 53.3707L45.2987 52.184C45.1453 50.36 45.4813 48.9267 46.2747 47.276C46.4533 46.9027 46.8413 46.9067 47.224 46.7853C47.56 46.684 47.8987 46.5507 48.2267 46.4173C48.8947 46.14 49.5253 45.7813 50.1067 45.3507C51.256 44.4827 52.1507 43.264 52.488 41.8507C52.7933 40.5693 52.5787 39.044 51.148 38.3227C50.1453 37.816 49.2453 37.996 47.716 39.34L47.4667 37.8667L45.2667 36.3333L47.224 26.8667C45.6387 29.3107 42.24 34.2 41.3333 34.2C38.2 34.2 30.156 31.4 27.212 30.2C26.772 30.7693 26.3933 31.3787 26.1373 32.0493L25.3373 33.4693C24.5373 34.6693 24.404 36.136 24.004 37.6027C24.004 38.024 22.3827 43.7147 26.1373 47.4693C27.4707 48.8027 29.204 49.336 31.004 49.736C32.6147 49.988 34.3787 50.2387 35.9373 49.6027Z" fill="var(--hm-skin, #FFFFFF)"/>
<path d="M20.1333 61.8667C18.9333 58.8 18.5333 55.6 18 52.2667C16.8 45.6 17.0667 39.2 19.0667 32.9333C20.5333 28.4 23.1867 25.3773 26.7867 22.044C29.32 19.7773 31.9 17.8867 35.3667 18.02C36.3 18.1533 37.42 18.3747 38.3533 18.3747C40.68 18.5987 45.9613 18.8547 48.5333 21.7333C48.9333 22.2667 49.6 22.5333 50.2667 22.8C50.6973 23.068 51.1 23.3813 51.4667 23.7333C52 24.4 52.4 25.2 52.8 25.8667C54.6667 29.4667 55.6 33.0667 56.6667 36.9333C59.6813 48.812 58.9453 56.9627 57.7187 74.5253C57.2573 74.5187 55.088 74.5333 54.5333 74.5333C52.9333 74.5333 51.2 74.4 49.6 74.4C47.8667 74.2667 47.804 74.6293 46.204 73.9627C45.9373 73.8293 46.0707 73.296 45.9373 73.0293C45.6707 66.7627 45.3333 51.3333 45.3333 51.3333C45.2 49.8667 45.6 48.5333 46.2667 47.2C47.6 46.5333 49.2 46.2667 50.4 45.2C50.6667 44.9333 50.8 44.6667 51.0667 44.5333C52.2667 43.3333 52.8 41.7333 52.4 40C52.2667 39.0667 51.7333 38.4 50.7733 38.1707C49.6053 37.7827 48.532 38.612 47.7067 39.3413C47.5933 38.86 47.528 38.3293 47.3587 37.8653C47.128 37.236 46.1587 36.7467 45.5827 36.4427C45.5013 36.4 45.24 36.32 45.1907 36.2507C45.1413 36.1813 45.1907 35.9933 45.2107 35.8747C45.2573 35.5893 45.304 35.3053 45.352 35.0227C45.452 34.44 45.5587 33.8573 45.6693 33.2773C46.1133 30.9853 46.6533 28.7147 47.288 26.468C45.6 29.0667 44.4 31.8667 41.7333 33.8667C40.8 34.4 39.8667 34.1333 38.9333 33.8667C34.8 32.9333 31.0667 31.6 27.2 30C26.8227 30.2573 26.5413 30.632 26.4 31.0667C24.9333 33.7333 23.8667 36.4 23.6 39.3333C23.4667 41.0667 23.4667 42.8 24.1333 44.4C24.2667 44.6667 24.4 45.0667 24.5333 45.3333C25.4667 47.6 27.7333 49.0667 30.176 49.6C32.0173 50 34.124 50.336 35.9227 49.6C35.8467 50.6827 35.8587 51.7693 35.9587 52.8493C34.5707 52.34 33.0173 52.5213 31.6 52.9467C26.884 54.3587 20.2667 61.8667 20.1333 61.8667Z" fill="var(--hm-hair, #000000)"/>
<path d="M47.3094 38.5027C47.1094 38.5027 46.9094 38.428 46.7547 38.2787C46.1867 37.732 45.5347 37.2893 44.8174 36.964C44.4894 36.816 44.3013 36.468 44.3573 36.112C44.6187 34.4253 44.936 32.7387 45.3027 31.064C44.5613 32.068 43.8 32.9747 42.9974 33.8107C42.7227 34.1227 42.4013 34.3853 42.04 34.592C42.0293 34.5987 42.0173 34.604 42.0067 34.6107C41.1747 35.036 40.2694 34.9053 39.4854 34.748C35.3507 33.9347 31.3107 32.6453 27.468 30.9133L26.5747 32.2027C26.3227 32.5653 25.824 32.656 25.4614 32.4053C25.0987 32.1533 25.008 31.656 25.2587 31.292L26.5333 29.452C26.7547 29.132 27.1747 29.0173 27.528 29.1827C31.4374 31.0013 35.564 32.3467 39.796 33.1787C40.3347 33.2867 40.888 33.3747 41.2613 33.1933C41.4653 33.0733 41.648 32.9227 41.8027 32.744C41.8107 32.7347 41.82 32.724 41.8293 32.7147C43.528 30.948 45.0387 28.8387 46.5813 26.0787C46.78 25.724 47.2107 25.5747 47.5854 25.7293C47.96 25.8853 48.16 26.296 48.0493 26.6867C47.2053 29.6653 46.5267 32.72 46.028 35.78C46.6973 36.1427 47.312 36.5933 47.864 37.1253C48.1827 37.432 48.192 37.9387 47.8854 38.256C47.728 38.42 47.5187 38.5027 47.3094 38.5027Z" fill="var(--hm-stroke, #000000)"/>
<path d="M49.7573 75.4133C48.8893 75.4133 47.9853 75.3427 46.7373 75.076C46.3693 75.0253 46.024 74.8733 45.7387 74.6347C45.7133 74.6133 45.6893 74.5907 45.6667 74.5667C45.256 74.128 45.2293 73.5613 45.216 73.2573C44.932 67.536 44.7293 61.3507 44.6147 54.8787C44.6067 54.4373 44.9587 54.072 45.4 54.064C45.4053 54.064 45.4093 54.064 45.4147 54.064C45.8493 54.064 46.2067 54.4133 46.2147 54.8493C46.3293 61.3053 46.532 67.4733 46.8147 73.18C46.8213 73.308 46.8293 73.4 46.8413 73.4547C46.88 73.4733 46.9227 73.4867 46.9667 73.492C46.992 73.4947 47.0173 73.4987 47.0427 73.504C48.772 73.876 49.7413 73.832 51.084 73.772C51.6813 73.7453 52.3587 73.716 53.188 73.7173C53.6293 73.7187 53.9867 74.0787 53.9853 74.52C53.984 74.9613 53.6267 75.3173 53.1853 75.3173C53.1533 75.3147 53.1213 75.3173 53.0893 75.3173C52.3387 75.3173 51.7107 75.3453 51.1547 75.3707C50.6693 75.3933 50.2187 75.4133 49.7573 75.4133Z" fill="var(--hm-stroke, #000000)"/>
<path d="M57.1347 75.3147C56.472 75.3147 55.9187 75.3013 55.092 75.2427C54.6507 75.212 54.3187 74.8293 54.3507 74.388C54.3813 73.9467 54.764 73.616 55.2053 73.6453C55.9227 73.696 56.412 73.7107 56.9813 73.712C57.0627 70.6747 57.2693 67.624 57.4693 64.6667C57.9933 56.9267 58.488 49.6173 56.9933 42.2053C55.832 36.4533 54.5973 32.148 52.9907 28.2467C52.3 26.5707 51.476 24.86 50.1373 23.7133C49.8013 23.4253 49.7627 22.9213 50.0507 22.5853C50.3387 22.2507 50.8427 22.2107 51.1787 22.4987C52.7747 23.8653 53.704 25.776 54.4707 27.6373C56.1173 31.6373 57.38 36.0333 58.5613 41.8893C60.0973 49.512 59.5733 57.2707 59.0653 64.7747C58.8493 67.968 58.6253 71.2693 58.5627 74.5253C58.5547 74.9587 58.2013 75.3067 57.768 75.3093C57.54 75.3133 57.332 75.3147 57.1347 75.3147Z" fill="var(--hm-stroke, #000000)"/>
<path d="M20.2253 62.696C20.22 62.696 20.216 62.696 20.2107 62.696C19.968 62.692 19.376 62.592 19.14 61.7307C16.504 52.1467 15.8867 44.0467 17.2493 36.9667C18.8653 28.5773 23.6787 22.1267 31.172 18.312C33.3013 17.232 35.0493 16.9787 36.5147 17.5387C36.928 17.696 37.1347 18.1587 36.976 18.572C36.8187 18.9853 36.356 19.192 35.9427 19.0333C34.9227 18.644 33.5987 18.8747 31.896 19.7387C24.86 23.32 20.3387 29.3827 18.82 37.2693C17.524 43.996 18.0947 51.7213 20.564 60.872C20.6227 60.8947 20.68 60.924 20.7347 60.96C21.0733 61.1867 21.2213 61.6347 21.0907 62.0493C20.972 62.4387 20.624 62.696 20.2253 62.696Z" fill="var(--hm-stroke, #000000)"/>
<path d="M48.8027 22.844C48.584 22.844 48.368 22.756 48.2094 22.5813C47.3347 21.616 46.3253 20.8347 45.2067 20.2573C42.512 18.8653 39.9227 19.0307 39.0707 19.0853C38.628 19.112 38.2494 18.7787 38.2214 18.3373C38.1934 17.896 38.528 17.516 38.9693 17.488C39.9293 17.4267 42.852 17.2413 45.9414 18.836C47.2294 19.5013 48.392 20.4 49.3947 21.508C49.6907 21.836 49.6667 22.3413 49.3387 22.6387C49.1867 22.776 48.9947 22.844 48.8027 22.844Z" fill="var(--hm-stroke, #000000)"/>
<path d="M45.2787 52.3187C44.868 52.3187 44.5174 52.004 44.4827 51.5867C44.3134 49.5787 44.704 48.6587 45.5334 46.932C45.8374 46.3013 46.412 46.1627 46.756 46.0787C46.8307 46.0613 46.9014 46.044 46.9627 46.024C47.28 45.924 47.5934 45.8093 47.896 45.6813C48.508 45.4267 49.0827 45.1013 49.6107 44.7093C50.6747 43.9053 51.416 42.824 51.6907 41.6667C51.832 41.084 52.024 39.668 50.7747 39.0373C50.2294 38.7613 49.6947 38.6533 48.2294 39.9413C47.8974 40.2333 47.392 40.2 47.1 39.868C46.808 39.536 46.8414 39.0307 47.1734 38.7387C49.2774 36.8893 50.4934 37.1027 51.4947 37.608C53.0467 38.392 53.7174 40.0893 53.2454 42.0387C52.8854 43.5533 51.9347 44.9573 50.568 45.988C49.9307 46.4613 49.24 46.8533 48.512 47.1547C48.168 47.3 47.8054 47.4333 47.4427 47.5467C47.3307 47.5827 47.2254 47.608 47.132 47.6307C47.072 47.6453 46.9974 47.6627 46.948 47.6787C46.1814 49.2787 45.944 49.88 46.0774 51.448C46.1147 51.888 45.788 52.276 45.348 52.312C45.324 52.3173 45.3014 52.3187 45.2787 52.3187Z" fill="var(--hm-stroke, #000000)"/>
<path d="M35.8854 53.4987C35.46 53.4987 35.1067 53.164 35.0867 52.7347C35.044 51.796 35.0347 51.324 35.0614 50.68C33.4587 50.9893 31.8267 50.7053 30.568 50.4853C28.5347 50.128 26.9547 49.4027 25.7374 48.2707C23.5 46.1867 22.456 42.8067 22.872 38.9987C23.028 37.5867 23.6094 35.4853 24.4294 33.3773C24.5894 32.9653 25.0534 32.7613 25.4654 32.9213C25.8774 33.0813 26.0814 33.5453 25.9214 33.9573C25.012 36.296 24.572 38.1853 24.4627 39.1733C24.1014 42.4733 24.9627 45.3627 26.828 47.0987C27.8254 48.0267 29.1014 48.6013 30.844 48.908C32.6254 49.2187 34.2147 49.428 35.6214 48.8547C35.876 48.7507 36.1667 48.7853 36.3907 48.9453C36.6147 49.1067 36.74 49.3707 36.7227 49.6453C36.6374 50.9867 36.6227 51.2827 36.6867 52.6587C36.7067 53.1 36.3654 53.4747 35.924 53.4947C35.9094 53.4987 35.8974 53.4987 35.8854 53.4987Z" fill="var(--hm-stroke, #000000)"/>
<path d="M29.124 37.3467C29.6395 37.3467 30.0573 36.8393 30.0573 36.2134C30.0573 35.5874 29.6395 35.08 29.124 35.08C28.6085 35.08 28.1907 35.5874 28.1907 36.2134C28.1907 36.8393 28.6085 37.3467 29.124 37.3467Z" fill="var(--hm-stroke, #000000)"/>
<path d="M33.6573 37.66C34.1728 37.66 34.5907 37.1526 34.5907 36.5267C34.5907 35.9008 34.1728 35.3933 33.6573 35.3933C33.1419 35.3933 32.724 35.9008 32.724 36.5267C32.724 37.1526 33.1419 37.66 33.6573 37.66Z" fill="var(--hm-stroke, #000000)"/>
</g><g data-hm-layer-slot="item" data-hm-part-id="hm1-p-000041" data-hm-selection-slot="item" data-hm-source-group-id="item" data-hm-source-part-id="000" transform="translate(0, 0)">
</g><g data-hm-layer-slot="glasses" data-hm-part-id="hm1-p-000056" data-hm-selection-slot="glasses" data-hm-source-group-id="glasses" data-hm-source-part-id="000" transform="translate(0, 0)"></g></svg>