<svg xmlns="http://www.w3.org/2000/svg" width="88" height="88" viewBox="-4 -4.5 88 88" style="--hm-bottom:#3C4650;--hm-clothes:#F1EEE6;--hm-hair:#4A3A2E;--hm-skin:#E3C0A4;--hm-stroke:#1A1A1A"><g data-hm-layer-slot="bottom" data-hm-part-id="hm1-p-000033" data-hm-selection-slot="bottom" data-hm-source-group-id="bottom" data-hm-source-part-id="001" transform="translate(0, 85)">
<path d="M42.8347 88.3303C42.6547 90.027 41.7813 92.4834 40.5213 94.833C40.2333 95.367 35.6893 99.5896 38.388 102.443C41.8547 104.579 47.188 103.377 49.588 100.04C50.388 98.838 50.9213 97.77 51.188 96.435C51.988 93.765 51.4547 91.095 51.5613 88.4718" fill="#000000"/>
<path d="M29.6507 86.1288C28.5213 88.5585 25.588 90.561 23.588 92.163L22.388 93.3645C22.2547 93.765 21.988 94.032 21.7213 94.299C21.332 95.036 21.192 95.8784 21.3213 96.702C21.588 97.3695 22.2547 97.9035 22.9213 97.9035C26.9213 98.571 31.3213 98.7045 34.6547 95.901C35.7213 94.9665 36.388 93.6315 36.788 92.2965C37.3213 90.4275 37.188 88.4251 37.3413 86.528" fill="#000000"/>
<path d="M39.824 88.4024C43.1053 87.6561 46.5227 88.2836 49.8893 88.2902C55.7133 88.2996 61.356 86.4426 66.888 84.6056L63.22 70.9659C62.5453 68.4575 61.8667 65.949 61.4507 63.3778C61.3987 63.0654 61.4507 63.578 61.344 63.0988C60.4933 59.0898 59.9547 55.0207 59.7333 50.9289C59.4293 44.2379 58.876 37.5349 57.8507 30.7531C56.5173 22.0756 54.784 13.7986 53.3053 5.24121L25.7213 5.42277C20.8173 33.4831 21.9307 62.0108 22.2547 66.252C22.7 72.2836 22.0973 78.3471 20.4707 84.1718C25.2947 85.4987 31.7787 85.715 36.78 85.5962C38.236 85.5615 38.6 85.5815 39.968 85.3946" fill="var(--hm-bottom, #000000)"/>
<path fill-rule="evenodd" clip-rule="evenodd" d="M39.2573 88.9684C39.4093 89.1206 39.6133 89.2034 39.824 89.2034C39.8827 89.2034 39.9427 89.1967 40.004 89.1887C40.644 89.0431 41.289 88.9524 41.9409 88.9005C41.6459 90.4417 40.8687 92.4894 39.828 94.4339C39.784 94.4967 39.6453 94.6582 39.5227 94.801C38.4107 96.1 35.028 100.054 37.808 102.994C37.856 103.043 37.9107 103.089 37.9693 103.125C39.236 103.904 40.7853 104.31 42.408 104.31C43.116 104.31 43.8387 104.233 44.5587 104.077C46.904 103.565 48.9747 102.265 50.2373 100.508L50.2533 100.484C51.2 99.0623 51.6973 97.9423 51.9653 96.6286C52.533 94.7086 52.4614 92.8258 52.3921 91.0044L52.392 91.0016C52.3654 90.3118 52.3405 89.6518 52.3485 88.9978C57.4652 88.5864 62.3707 86.9563 67.1367 85.3726L67.1427 85.3706C67.544 85.2371 67.7733 84.8126 67.6627 84.4027L63.972 70.6789C63.3213 68.2546 62.6493 65.7488 62.2413 63.251C62.188 62.9332 62.104 62.5114 61.9933 61.9987C61.2 58.3555 60.7107 54.6202 60.5373 50.8969C60.1987 43.4396 59.58 36.8126 58.6467 30.6356C57.8347 25.353 56.86 20.1358 55.9173 15.0908C55.308 11.8335 54.6787 8.46391 54.0987 5.10906C54.0227 4.67251 53.6093 4.38148 53.1733 4.45624C52.7373 4.531 52.4467 4.94619 52.5213 5.3814C53.0992 8.71894 53.7242 12.0657 54.3288 15.3031L54.344 15.3846C55.284 20.4162 56.256 25.62 57.064 30.8759C57.9893 36.9955 58.6027 43.5677 58.9387 50.969C59.116 54.7831 59.6173 58.6078 60.4293 62.3365C60.5333 62.8158 60.6133 63.2229 60.6613 63.5086C61.0819 66.0793 61.7629 68.6193 62.4218 71.077L65.92 84.085C60.752 85.7991 55.4187 87.4906 49.9347 87.4906H49.892C48.8764 87.4879 47.8269 87.4263 46.8119 87.3668L46.7827 87.3651C44.828 87.2489 42.816 87.1301 40.8267 87.4078C41.2707 84.4481 40.8787 81.5285 40.4973 78.6942L40.4886 78.6297C40.4422 78.2869 40.3959 77.9451 40.352 77.6022C40.268 76.9654 40.1853 76.3406 40.1027 75.7252L40.1016 75.7175C39.4754 71.0283 38.9347 66.9797 39.056 62.1603C39.0667 61.7184 38.7173 61.3499 38.276 61.3393C37.8333 61.3339 37.4667 61.6783 37.456 62.1202C37.3307 67.0675 37.88 71.1779 38.5159 75.9369C38.5397 76.1161 38.5638 76.297 38.588 76.4783C38.6464 76.9166 38.7055 77.3605 38.764 77.8092C38.8075 78.1491 38.8534 78.4902 38.8994 78.8324L38.9103 78.9136C39.1532 80.7226 39.401 82.5674 39.4187 84.4078C39.3472 84.4216 39.2763 84.4455 39.208 84.4801C38.0173 85.0822 36.564 85.165 35.2947 85.1957C30.6267 85.3065 25.9733 84.7698 21.4533 83.6044C22.948 77.9186 23.4867 72.0646 23.052 66.1906C22.5933 60.1858 21.836 32.3003 26.5093 5.56027C26.5853 5.12506 26.2933 4.70987 25.8587 4.63378C25.424 4.55768 25.0093 4.85005 24.9333 5.28526C20.232 32.1895 20.996 60.2672 21.4573 66.3121C21.8973 72.2689 21.3053 78.2056 19.7 83.9568C19.6427 84.1624 19.6693 84.3813 19.7747 84.5669C19.8787 84.7525 20.0533 84.8886 20.2587 84.9447C22.9447 85.6826 25.6788 86.2035 28.4378 86.5045C28.42 86.5328 28.4038 86.5624 28.3893 86.5935C27.6237 88.24 26.1706 89.2833 24.6315 90.3884L24.6253 90.3929C24.1147 90.7586 23.588 91.1365 23.0853 91.5396C23.0627 91.5583 23.0413 91.577 23.02 91.5984L21.82 92.7999C21.732 92.8866 21.6653 92.9948 21.6267 93.1123C21.5573 93.3232 21.4013 93.4861 21.1533 93.7344C21.0973 93.7904 21.0493 93.8545 21.012 93.9253C20.5453 94.809 20.3733 95.8397 20.5293 96.8276C20.5387 96.8863 20.5547 96.9437 20.5773 96.9998C20.9693 97.9783 21.8947 98.6685 22.8467 98.7032C24.2053 98.9275 25.6933 99.1117 27.2147 99.1117C29.9453 99.1117 32.784 98.5203 35.168 96.5138C35.17 96.5118 35.172 96.5101 35.174 96.5085L35.1763 96.5066L35.18 96.5032C36.2427 95.5713 37.0413 94.2337 37.556 92.5155C37.9557 91.1176 38.0053 89.685 38.0532 88.299L38.0533 88.2956L38.0538 88.2822C38.0736 87.6958 38.0923 87.1419 38.1373 86.5921C38.1391 86.5699 38.1399 86.5478 38.1398 86.5259C38.5498 86.4383 38.9582 86.3215 39.3579 86.1651C39.3005 86.8543 39.2 87.5412 39.044 88.2235C38.9827 88.4918 39.0627 88.7735 39.2573 88.9684ZM50.7479 89.0851C50.4778 89.0927 50.2072 89.0966 49.936 89.0966H49.8907C48.8284 89.0939 47.7557 89.031 46.7179 88.9701L46.6893 88.9684C45.6265 88.9052 44.5905 88.8439 43.5744 88.842C43.299 90.6095 42.4397 92.9496 41.2267 95.2122C41.144 95.3644 41.0173 95.5153 40.7373 95.8423C39.1053 97.75 37.4333 100.144 38.9 101.816C40.36 102.678 42.2907 102.931 44.2173 102.511C46.1773 102.083 47.8933 101.017 48.9307 99.583C49.756 98.3415 50.1827 97.3829 50.404 96.2775L50.4054 96.271C50.4103 96.249 50.4154 96.226 50.4227 96.2041C50.9253 94.526 50.8613 92.8439 50.7933 91.0617L50.7912 91.0055C50.7677 90.376 50.7436 89.7312 50.7479 89.0851ZM34.1 86.8124C32.6832 86.8124 31.2687 86.7548 29.8596 86.64C29.9364 86.8365 29.9361 87.0628 29.84 87.269C28.896 89.2982 27.1987 90.517 25.5573 91.6945C25.076 92.0389 24.58 92.3954 24.12 92.7625L23.0707 93.8131C22.8893 94.231 22.6173 94.53 22.3747 94.7757C22.1213 95.303 22.0227 95.9011 22.0947 96.4818C22.264 96.8262 22.6253 97.1039 22.9187 97.1039C22.9627 97.1039 23.0067 97.1079 23.0507 97.1146C26.512 97.6926 30.9 98.0064 34.132 95.2936C34.9613 94.5647 35.5973 93.478 36.02 92.0669C36.3627 90.8668 36.4093 89.5318 36.4533 88.2408C36.4702 87.7495 36.488 87.245 36.5218 86.7447C36.115 86.7739 35.7163 86.7875 35.3333 86.7963C34.9213 86.807 34.5107 86.8124 34.1 86.8124Z" fill="var(--hm-stroke, #000000)"/>
<path d="M38.2533 60.7906C37.8347 60.7906 37.4827 60.4635 37.456 60.0403C37.1653 55.3998 36.8013 50.3896 36.4147 45.083L36.3999 44.8803C36.0312 39.8117 35.6503 34.5765 35.324 29.4808C35.2227 28.4128 34.3653 27.3061 33.1587 27.3822C32.7173 27.4075 32.3387 27.0725 32.312 26.6306C32.2853 26.1887 32.6213 25.8096 33.0627 25.7829C35.2333 25.656 36.7533 27.5304 36.9187 29.346L36.9188 29.3491L36.9193 29.3567C36.9197 29.3603 36.92 29.364 36.92 29.3673C37.2456 34.4474 37.6254 39.6699 37.9934 44.7289L38.0121 44.986C38.3982 50.2881 38.763 55.2974 39.0533 59.9402C39.0813 60.382 38.7453 60.7625 38.3053 60.7892C38.2881 60.7906 38.2706 60.7906 38.2533 60.7906Z" fill="var(--hm-stroke, #000000)"/>
</g><g data-hm-layer-slot="body" data-hm-part-id="hm1-p-000027" data-hm-selection-slot="body" data-hm-source-group-id="body" data-hm-source-part-id="003" transform="translate(0, 51)">
<path d="M45.2493 0C45.3693 1.34667 45.92 4.38933 47.9693 3.93333L48.1893 4.26667C48.0893 6.356 47.0306 7.82933 45.372 9.356C43.6866 10.8827 41.5373 11.8 39.2693 11.9613C37.2693 12.108 35.1426 11.6293 33.6466 10.288C32.1506 8.94667 31.364 7.088 32.3546 5.49467H32.4986C32.9493 5.508 33.364 5.272 33.7453 5.032C34.2306 4.72533 35.232 3.468 35.532 3.10667C35.932 2.588 36.0946 0.621333 36.3 0H45.2493V0Z" fill="var(--hm-skin, #FFFFFF)"/>
<path d="M56.9453 16.4227C56.6547 16.892 56.34 17.3453 56.004 17.7827C54.8533 19.268 53.3533 20.544 51.56 21.116L51.3013 21.5267C51.1573 33.6707 51.756 45.824 52.9427 58.3267C52.4813 58.3653 52.044 58.5467 51.6893 58.8453C51.3347 59.144 51.0813 59.544 50.964 59.992C50.8467 60.44 50.8693 60.9133 51.032 61.3467C51.1933 61.78 51.4853 62.1533 51.868 62.4147C52.2813 62.6947 52.7773 62.8307 53.2013 63.096C55.1453 64.308 54.912 67.6507 56.9667 68.6613C58.4827 69.4067 60.3827 68.2693 61.0693 66.724C61.756 65.1787 61.568 63.4067 61.364 61.7293C60.4933 54.5933 58.4173 33.6907 58.0547 29.316L57.0347 17.0133L56.9453 16.4227Z" fill="var(--hm-skin, #FFFFFF)"/>
<path d="M23.3333 16.7827C21.352 29.4107 19.388 41.7453 18.4293 54.964C17.9987 54.912 17.5613 54.9867 17.1707 55.176C16.78 55.3653 16.452 55.664 16.2267 56.0347C16.0013 56.4053 15.8853 56.8333 15.896 57.2667C15.9053 57.7013 16.04 58.1227 16.2827 58.4827C16.4267 58.6933 16.6067 58.8827 16.7387 59.0987C17.076 59.6613 17.0573 60.3613 17.0173 61.0173C16.9427 62.2427 16.8453 63.5333 17.372 64.6427C17.8987 65.752 19.3067 66.548 20.3853 65.9613C21.1373 65.5507 21.46 64.6573 21.7187 63.8413C22.0827 62.764 22.392 61.668 22.644 60.5587C22.9307 59.192 23.044 57.7947 23.1587 56.4013L23.8253 48.2307L25.3333 19.356C24.9267 18.272 24.268 17.3013 23.412 16.5213L23.3333 16.7827Z" fill="var(--hm-skin, #FFFFFF)"/>
<path d="M58.944 38.596C60.5306 41.872 61.8 45.116 61.8 45.116C61.9293 45.5013 61.924 45.9187 61.7853 46.3C61.4213 47.0453 60.1653 47.0747 59.7653 46.3493L58.944 38.596Z" fill="var(--hm-clothes, #FFFFFF)"/>
<path d="M25.3333 19.356C24.6933 17.656 23.444 16.2547 21.8293 15.4227C23.3307 14.4893 24.088 12.756 24.992 11.2347C27.1773 7.58533 30.5533 4.8 34.5507 3.348C34.168 3.768 33.532 4.51466 33.6173 5.37733C33.6733 5.98 34.0893 6.50533 34.6053 6.82266C35.1213 7.14 35.7253 7.27733 36.324 7.36533C38.844 7.724 41.4133 7.284 43.6693 6.10666C44.8693 5.47466 46.0347 4.54133 46.3107 3.088C48.1253 2.71466 50 3.60533 51.3493 4.87466C52.6987 6.144 53.6507 7.76533 54.732 9.27466C55.8133 10.784 57.1053 12.2333 58.828 12.916C57.9987 14.6027 57.1613 16.3013 56.0107 17.788C54.86 19.2747 53.36 20.5493 51.5667 21.1213L51.308 21.532C51.204 30.3067 51.488 39.0853 52.1 47.9973L52.0933 48.072C50.3893 49.492 47.8747 49.296 45.7307 48.7267C43.5867 48.1573 41.4227 47.284 39.2267 47.6013C38.1427 47.7587 37.1187 48.2027 36.04 48.3893C32.5947 48.9853 29.0787 46.9227 25.6507 47.604C24.5013 47.8347 23.3093 48.368 22.2093 47.9653C20.9053 47.4893 20.4067 45.5893 21.3093 44.5347C23.212 36.4933 24.628 28.3453 25.5493 20.1347L25.3333 19.356Z" fill="var(--hm-clothes, #FFFFFF)"/>
<path d="M48.6733 49.9573C47.7187 49.9573 46.664 49.804 45.5133 49.4987C45.0773 49.3827 44.636 49.2533 44.2107 49.1293C42.516 48.632 40.9147 48.1627 39.3293 48.392C38.8147 48.4667 38.3027 48.6173 37.76 48.776C37.2493 48.9253 36.72 49.0813 36.1653 49.1773C34.3213 49.496 32.5067 49.124 30.752 48.7627C29.0173 48.4067 27.38 48.0707 25.7973 48.388C25.5373 48.44 25.2733 48.508 24.9933 48.5813C24.0547 48.8267 22.9907 49.104 21.9253 48.716C21.0653 48.4013 20.4013 47.6347 20.148 46.6653C19.9147 45.772 20.0693 44.86 20.56 44.1787C22.676 35.2147 24.1933 26.024 25.0707 16.856C25.1133 16.416 25.504 16.0947 25.9427 16.136C26.3827 16.1787 26.7053 16.5693 26.6627 17.008C25.772 26.3053 24.2293 35.628 22.076 44.716C22.0467 44.84 21.988 44.9547 21.9053 45.052C21.6533 45.3467 21.5747 45.7973 21.6947 46.2587C21.816 46.7213 22.1067 47.0773 22.472 47.212C23.0667 47.4293 23.8053 47.236 24.588 47.032C24.8787 46.956 25.1787 46.8773 25.4827 46.8173C27.3827 46.436 29.2587 46.8213 31.0733 47.1947C32.756 47.54 34.3467 47.8667 35.892 47.6C36.3573 47.52 36.82 47.384 37.3093 47.24C37.8813 47.072 38.472 46.8987 39.1 46.808C41.032 46.528 42.8773 47.0693 44.6613 47.5933C45.0773 47.7147 45.508 47.8413 45.924 47.952C48.4653 48.6267 50.364 48.46 51.5693 47.456C51.9093 47.1733 52.4133 47.2187 52.696 47.5587C52.9787 47.8987 52.9333 48.4027 52.5933 48.6853C51.5773 49.532 50.2653 49.9573 48.6733 49.9573Z" fill="var(--hm-stroke, #000000)"/>
<path d="M51.5667 21.9214C51.228 21.9214 50.9133 21.704 50.8053 21.364C50.6707 20.9427 50.904 20.4934 51.324 20.3587C53.1733 19.7694 54.5493 18.368 55.3787 17.2973C56.3213 16.08 57.06 14.6814 57.752 13.2907C56.1293 12.4014 54.952 10.9547 54.0827 9.74002C53.8133 9.36402 53.5507 8.97868 53.296 8.60668C52.5053 7.44935 51.7587 6.35735 50.8027 5.45735C49.604 4.32935 48.196 3.73468 46.9453 3.80935C46.532 5.00668 45.5587 6.01602 44.0427 6.81335C41.62 8.07735 38.9133 8.54135 36.212 8.15602C35.6213 8.06935 34.86 7.91735 34.1867 7.50268C33.4067 7.02268 32.896 6.25602 32.8213 5.44935C32.8133 5.37068 32.8093 5.29468 32.8093 5.22135C29.7533 6.72402 27.312 8.91602 25.6787 11.644C25.52 11.9107 25.3667 12.1827 25.2053 12.472C24.6387 13.48 24.0573 14.5147 23.2187 15.336C24.5147 16.2667 25.512 17.56 26.0827 19.072C26.2387 19.4853 26.0293 19.9467 25.616 20.1027C25.2027 20.2587 24.7413 20.0494 24.5853 19.636C24.0133 18.1187 22.9053 16.8747 21.464 16.132C21.208 16 21.0427 15.7414 21.0307 15.4534C21.0187 15.1654 21.1627 14.8934 21.408 14.7414C22.4613 14.0867 23.1173 12.9214 23.8107 11.6867C23.9707 11.4027 24.136 11.1094 24.3053 10.824C26.4787 7.19335 29.9333 4.43868 34.296 2.85335C34.6427 2.72802 35.0293 2.85469 35.2333 3.16002C35.4373 3.46535 35.408 3.87202 35.16 4.14402C35.0933 4.21735 35.02 4.29202 34.944 4.36935C34.56 4.75868 34.3827 4.97735 34.4133 5.29735C34.4413 5.60402 34.676 5.92535 35.024 6.14002C35.4467 6.40002 35.9773 6.50535 36.44 6.57335C38.804 6.91068 41.1773 6.50268 43.2987 5.39735C44.612 4.70535 45.3413 3.90002 45.524 2.93869C45.584 2.62002 45.8307 2.36935 46.1493 2.30402C48.0173 1.92002 50.1653 2.66268 51.8973 4.29202C52.98 5.31068 53.812 6.52802 54.616 7.70535C54.8653 8.07068 55.124 8.44802 55.3827 8.80935C56.2587 10.032 57.476 11.52 59.1227 12.1734C59.3307 12.256 59.4933 12.4214 59.5747 12.6294C59.6547 12.8374 59.6453 13.0694 59.5467 13.2707C58.712 14.9667 57.8507 16.7213 56.644 18.2787C55.256 20.072 53.5853 21.3187 51.8107 21.884C51.7293 21.9094 51.6467 21.9214 51.5667 21.9214Z" fill="var(--hm-stroke, #000000)"/>
<path d="M60.7547 47.676C60.0307 47.676 59.3867 47.3187 59.064 46.7347C58.8507 46.348 58.9907 45.8614 59.3787 45.648C59.7653 45.4347 60.252 45.5747 60.4653 45.9627C60.504 46.032 60.6307 46.08 60.7693 46.076C60.8907 46.0734 61.0027 46.0307 61.0507 45.972C61.108 45.7814 61.1067 45.576 61.0467 45.3867C60.936 45.1054 59.712 42.0187 58.224 38.944C58.032 38.5467 58.1973 38.068 58.5947 37.8747C58.992 37.6827 59.4707 37.848 59.664 38.2467C61.2453 41.5134 62.532 44.7907 62.5453 44.824C62.5507 44.836 62.5547 44.848 62.5587 44.8614C62.744 45.416 62.7373 46.024 62.5373 46.5734C62.528 46.6 62.516 46.6254 62.504 46.6507C62.204 47.264 61.5547 47.6574 60.8093 47.676C60.792 47.676 60.7733 47.676 60.7547 47.676Z" fill="var(--hm-stroke, #000000)"/>
<path d="M57.9893 69.6947C57.5067 69.6947 57.0387 69.5894 56.6133 69.38C55.2773 68.7227 54.736 67.3547 54.2573 66.1467C53.8653 65.1574 53.496 64.2227 52.7773 63.7747C52.624 63.6787 52.4387 63.596 52.2427 63.508C51.9867 63.3934 51.6947 63.264 51.4187 63.076C50.8947 62.72 50.5 62.2187 50.2773 61.6254C50.0547 61.032 50.0227 60.3947 50.184 59.7827C50.3453 59.1707 50.6867 58.632 51.172 58.224C51.4453 57.9947 51.7533 57.8174 52.0827 57.6974C50.884 44.844 50.368 33 50.504 21.5107C50.5093 21.072 50.8667 20.72 51.304 20.72C51.3067 20.72 51.3107 20.72 51.3133 20.72C51.7547 20.7254 52.1093 21.088 52.104 21.5294C51.9667 33.1694 52.5013 45.1787 53.7413 58.244C53.7613 58.4574 53.696 58.6694 53.5587 58.8334C53.4213 58.9974 53.224 59.1 53.0107 59.1174C52.7107 59.1414 52.432 59.2574 52.2013 59.4507C51.9707 59.644 51.8093 59.8987 51.7333 60.1894C51.6573 60.48 51.672 60.7827 51.7773 61.064C51.8827 61.3454 52.0707 61.5827 52.3187 61.752C52.4773 61.86 52.6813 61.9507 52.8973 62.0467C53.124 62.148 53.38 62.2627 53.628 62.4174C54.7933 63.144 55.3 64.4254 55.748 65.5574C56.156 66.5867 56.54 67.5587 57.3213 67.9427C57.8187 68.1867 58.3293 68.092 58.6707 67.968C59.3747 67.7134 60.0293 67.0974 60.34 66.3987C60.9133 65.1094 60.7907 63.628 60.572 61.8254C59.7093 54.752 57.636 33.9254 57.26 29.3814L56.24 17.0787C56.204 16.6387 56.5307 16.252 56.9707 16.2147C57.4107 16.18 57.7973 16.5054 57.8347 16.9454L58.8547 29.248C59.2307 33.7827 61.3 54.5707 62.1613 61.6307C62.3573 63.244 62.6013 65.2507 61.804 67.0467C61.3187 68.14 60.328 69.068 59.2187 69.4707C58.8053 69.62 58.392 69.6947 57.9893 69.6947Z" fill="var(--hm-stroke, #000000)"/>
<path d="M19.5893 66.9587C19.3027 66.9587 19.0093 66.912 18.7187 66.8173C17.8427 66.532 17.0493 65.8307 16.6493 64.9867C16.0493 63.724 16.136 62.3187 16.212 61.0773L16.2187 60.9693C16.2533 60.404 16.2667 59.868 16.052 59.5107C16.0067 59.436 15.9333 59.344 15.856 59.2467C15.7827 59.1547 15.7 59.0493 15.6213 58.936C15.2893 58.444 15.108 57.876 15.0947 57.2867C15.0813 56.6987 15.236 56.1213 15.5427 55.6187C15.8493 55.116 16.2907 54.7147 16.82 54.4573C17.0947 54.324 17.3853 54.2333 17.684 54.1853C18.6373 41.536 20.464 29.896 22.3973 17.5867L22.5427 16.6587C22.6107 16.2227 23.02 15.9253 23.4573 15.992C23.8933 16.06 24.192 16.4693 24.124 16.9067L23.9787 17.8347C22.0147 30.344 20.16 42.1613 19.228 55.0227C19.212 55.2413 19.108 55.4427 18.9387 55.5813C18.7707 55.72 18.552 55.7853 18.3347 55.7587C18.0547 55.7253 17.7733 55.7733 17.52 55.896C17.2667 56.0187 17.0547 56.2107 16.9093 56.452C16.7627 56.692 16.6893 56.968 16.6947 57.2493C16.7013 57.5307 16.788 57.8027 16.9453 58.036C16.9893 58.1 17.048 58.1747 17.1093 58.252C17.208 58.3773 17.32 58.5173 17.42 58.6813C17.872 59.436 17.8627 60.2733 17.8147 61.0653L17.808 61.1747C17.74 62.2733 17.6707 63.4093 18.0933 64.2987C18.3093 64.752 18.748 65.144 19.2133 65.2947C19.4187 65.3613 19.7227 65.4093 20.0027 65.2573C20.4787 64.9973 20.7347 64.2947 20.956 63.5987C20.9573 63.5933 20.9587 63.5893 20.9613 63.584C21.3147 62.5387 21.6173 61.464 21.8627 60.3867C22.136 59.0827 22.2493 57.7053 22.3587 56.3733L23.028 48.1653C23.064 47.7253 23.4507 47.396 23.8907 47.4333C24.3307 47.4693 24.6587 47.856 24.6227 48.296L23.9533 56.5053C23.84 57.8893 23.7213 59.32 23.428 60.7227C23.4267 60.7267 23.4267 60.732 23.4253 60.736C23.168 61.8653 22.8507 62.9933 22.48 64.0893C22.244 64.8347 21.848 66.0733 20.7693 66.6627C20.408 66.86 20.0053 66.9587 19.5893 66.9587Z" fill="var(--hm-stroke, #000000)"/>
</g><g data-hm-layer-slot="head" data-hm-part-id="hm1-p-000002" data-hm-selection-slot="head" data-hm-source-group-id="head" data-hm-source-part-id="002" transform="translate(0, -0.5)">
<path d="M22.376 39.312C21.1573 38.7627 20.4093 37.5053 19.9827 36.2453C18.804 32.756 19.548 28.7987 21.4333 25.6347C23.3187 22.4707 26.2453 20.0347 29.4333 18.18C31.9013 16.744 34.6333 15.6053 37.4907 15.5627C40.348 15.52 43.3387 16.74 44.852 19.1627L46.744 20.8293C49.144 20.4627 51.4813 21.7973 53.324 23.3787C55.5907 25.32 57.48 27.7467 58.5467 30.5333C59.6133 33.32 59.8147 36.476 58.844 39.2973C57.9613 41.8587 55.6907 44.2653 52.9893 44.0573" fill="var(--hm-hair, #000000)"/>
<path d="M35.8853 53.3654C35.8213 51.976 35.8347 50.9854 35.9227 49.5974C34.2587 50.2774 32.4187 49.9974 30.704 49.6987C29.06 49.4094 27.5227 48.8414 26.2813 47.6867C23.952 45.5174 23.3333 42.1334 23.6667 39.088C23.8 37.8787 24.3147 35.8814 25.1747 33.6694L26.196 32.2187C27.196 30.5734 28.448 29.0534 30.0293 27.952C31.6107 26.8507 33.5453 26.2027 35.4627 26.364C35.996 26.4094 36.5467 26.5227 36.9947 26.8227C37.4427 27.1227 37.776 27.6374 37.7373 28.1747L39.7533 29.3374C40.6107 28.752 41.872 29.204 42.4667 30.0614C43.0613 30.9187 43.1427 32.0174 43.1067 33.056C43.0707 34.0947 42.9373 35.1507 43.18 36.16C43.3893 36.9747 43.828 37.712 44.4453 38.284C45.0627 38.856 45.8307 39.2387 46.6587 39.3854L47.7013 39.3347C49.2307 37.9907 50.1307 37.8107 51.1347 38.3174C52.564 39.0387 52.7787 40.564 52.468 41.8454C52.132 43.2587 51.236 44.4774 50.0867 45.3454C49.5067 45.776 48.8747 46.1347 48.2067 46.412C47.8787 46.5507 47.544 46.6734 47.204 46.78C46.8213 46.9014 46.4347 46.8974 46.2547 47.2707C45.4627 48.9214 45.1253 50.488 45.28 52.312" fill="var(--hm-skin, #FFFFFF)"/>
<path d="M46.66 40.192C46.6133 40.192 46.5667 40.188 46.5187 40.18C45.5373 40.0053 44.632 39.5547 43.9013 38.8773C43.1707 38.2 42.6533 37.3307 42.4053 36.3653C42.1827 35.4373 42.2307 34.5347 42.2773 33.66C42.288 33.4507 42.3 33.2427 42.3067 33.0347C42.3347 32.24 42.3027 31.236 41.8093 30.524C41.4653 30.028 40.672 29.6853 40.204 30.0053C39.8387 30.2547 39.3413 30.16 39.092 29.796C38.8427 29.4307 38.9373 28.9333 39.3013 28.684C40.3427 27.9733 42.1267 28.176 43.1227 29.6133C43.8853 30.712 43.9413 32.0493 43.9053 33.092C43.8973 33.3107 43.8867 33.5293 43.8747 33.748C43.832 34.5427 43.792 35.292 43.9573 35.9813C44.1253 36.6373 44.4827 37.2373 44.988 37.7067C45.4933 38.176 46.1187 38.4867 46.7973 38.608C47.232 38.6853 47.5227 39.1013 47.4453 39.536C47.3773 39.92 47.04 40.192 46.66 40.192Z" fill="var(--hm-stroke, #000000)"/>
<path d="M26.1907 33.024C26.0493 33.024 25.9067 32.9867 25.7773 32.908C25.4 32.6787 25.2787 32.1867 25.508 31.8093C26.6813 29.8733 28.0467 28.356 29.5693 27.3C31.4173 26.0173 33.5333 25.404 35.5253 25.572C36.324 25.64 36.9307 25.8267 37.4333 26.1627C38.156 26.644 38.5867 27.4587 38.5307 28.2387C38.4987 28.68 38.1173 29.0107 37.6747 28.9787C37.2347 28.9467 36.9027 28.564 36.9347 28.1227C36.9493 27.9187 36.7867 27.6547 36.5467 27.4947C36.2813 27.3173 35.9027 27.2107 35.3907 27.168C33.7667 27.0307 32.0227 27.5453 30.48 28.616C29.144 29.544 27.9307 30.8973 26.8747 32.64C26.7253 32.8867 26.4613 33.024 26.1907 33.024Z" fill="var(--hm-stroke, #000000)"/>
<path d="M53.3147 44.864C53.184 44.864 53.0547 44.8587 52.924 44.8493C52.484 44.816 52.1533 44.4307 52.188 43.9907C52.2213 43.5507 52.6067 43.2213 53.0467 43.2547C55.3387 43.432 57.3147 41.264 58.084 39.032C58.956 36.4973 58.8533 33.5787 57.796 30.8147C56.844 28.3293 55.1173 25.9653 52.8 23.9813C50.6507 22.1373 48.6533 21.3413 46.8613 21.6147C46.424 21.6813 46.016 21.3813 45.9493 20.9453C45.8827 20.5093 46.1827 20.1 46.6187 20.0333C48.8933 19.6853 51.3227 20.6053 53.84 22.7667C56.3573 24.9227 58.2427 27.508 59.2893 30.2427C60.4813 33.3573 60.5907 36.6627 59.596 39.5533C59.092 41.0147 58.2147 42.3493 57.124 43.312C55.9653 44.3307 54.656 44.8627 53.3147 44.864Z" fill="var(--hm-stroke, #000000)"/>
<path d="M22.376 40.1053C22.2667 40.1053 22.1573 40.0827 22.0507 40.036C20.7933 39.476 19.8173 38.252 19.2253 36.4933C18.0427 33.0053 18.6107 28.7893 20.7427 25.2173C22.512 22.2533 25.3 19.6507 29.0267 17.4813C32.1107 15.6867 34.8733 14.796 37.4747 14.756C40.8707 14.704 43.9627 16.2267 45.5267 18.732C45.7613 19.1067 45.6467 19.6 45.272 19.8347C44.8973 20.0693 44.404 19.9547 44.1693 19.58C42.9187 17.5787 40.3027 16.3147 37.4987 16.356C35.18 16.392 32.672 17.212 29.832 18.8653C26.3413 20.8973 23.7453 23.3107 22.116 26.0387C20.22 29.2133 19.7053 32.9307 20.74 35.9827C21.0507 36.9067 21.6427 38.104 22.7013 38.576C23.1053 38.756 23.2867 39.228 23.1067 39.632C22.9747 39.928 22.6813 40.1053 22.376 40.1053Z" fill="var(--hm-stroke, #000000)"/>
<path d="M45.2787 52.3187C44.868 52.3187 44.5173 52.004 44.4827 51.5853C44.3133 49.5773 44.704 48.6587 45.5333 46.9307C45.8373 46.3 46.412 46.1613 46.756 46.0787C46.8307 46.06 46.9013 46.044 46.9627 46.024C47.28 45.924 47.5933 45.8093 47.896 45.6813C48.508 45.428 49.0827 45.1013 49.6107 44.7093C50.6747 43.9053 51.416 42.824 51.6907 41.6667C51.832 41.084 52.024 39.668 50.7747 39.0373C50.2293 38.7613 49.6947 38.6533 48.2293 39.9413C47.8973 40.2333 47.392 40.2 47.1 39.868C46.808 39.536 46.8413 39.0307 47.1733 38.7387C49.2773 36.8893 50.4933 37.1027 51.4947 37.608C53.0467 38.392 53.7173 40.0893 53.2453 42.0387C52.8853 43.5533 51.9347 44.9573 50.5693 45.988C49.932 46.4613 49.2413 46.8533 48.5133 47.1547C48.168 47.3 47.8067 47.4333 47.4427 47.5467C47.332 47.5813 47.2253 47.608 47.132 47.6307C47.0733 47.6453 46.9973 47.6627 46.948 47.6787C46.1813 49.2787 45.944 49.88 46.0773 51.448C46.1147 51.888 45.788 52.2747 45.348 52.312C45.324 52.3173 45.3013 52.3187 45.2787 52.3187Z" fill="var(--hm-stroke, #000000)"/>
<path d="M35.8853 53.4987C35.46 53.4987 35.1067 53.164 35.0867 52.7347C35.044 51.796 35.0347 51.324 35.0613 50.68C33.4587 50.9893 31.8267 50.7053 30.568 50.4853C28.5347 50.1267 26.9547 49.4027 25.7373 48.2707C23.5 46.1867 22.456 42.808 22.872 38.9987C23.028 37.5867 23.6093 35.4853 24.4293 33.3773C24.5893 32.9653 25.0533 32.7613 25.4653 32.9213C25.8773 33.0813 26.0813 33.5453 25.9213 33.9573C25.012 36.296 24.572 38.1853 24.4627 39.1733C24.1013 42.4733 24.9627 45.3627 26.828 47.0987C27.8253 48.0267 29.1013 48.6013 30.844 48.908C32.6253 49.2187 34.216 49.428 35.6213 48.8533C35.876 48.7493 36.1667 48.784 36.3907 48.944C36.6147 49.1053 36.74 49.3693 36.7227 49.644C36.6373 50.9853 36.6227 51.2813 36.6867 52.6573C36.7067 53.0987 36.3653 53.4733 35.924 53.4933C35.9093 53.4987 35.8973 53.4987 35.8853 53.4987Z" fill="var(--hm-stroke, #000000)"/>
<path d="M29.124 37.3467C29.6395 37.3467 30.0573 36.8393 30.0573 36.2134C30.0573 35.5874 29.6395 35.08 29.124 35.08C28.6085 35.08 28.1907 35.5874 28.1907 36.2134C28.1907 36.8393 28.6085 37.3467 29.124 37.3467Z" fill="var(--hm-stroke, #000000)"/>
<path d="M33.6573 37.66C34.1728 37.66 34.5907 37.1526 34.5907 36.5266C34.5907 35.9007 34.1728 35.3933 33.6573 35.3933C33.1419 35.3933 32.724 35.9007 32.724 36.5266C32.724 37.1526 33.1419 37.66 33.6573 37.66Z" fill="var(--hm-stroke, #000000)"/>
</g><g data-hm-layer-slot="item" data-hm-part-id="hm1-p-000041" data-hm-selection-slot="item" data-hm-source-group-id="item" data-hm-source-part-id="000" transform="translate(0, 0)">
</g><g data-hm-layer-slot="glasses" data-hm-part-id="hm1-p-000058" data-hm-selection-slot="glasses" data-hm-source-group-id="glasses" data-hm-source-part-id="002" transform="translate(0, 0)">
  <g transform="scale(0.06667)">
    <circle cx="421.08" cy="582.96" r="30.37" fill="#FFFFFF" stroke="var(--hm-stroke, #000000)" stroke-width="22.68" stroke-linecap="round" stroke-linejoin="round"/>
    <circle cx="509.68" cy="587.87" r="30.37" fill="#FFFFFF" stroke="var(--hm-stroke, #000000)" stroke-width="22.68" stroke-linecap="round" stroke-linejoin="round"/>
    <path d="M456.45,586.77s7.81,4.42,18.27.72" fill="none" stroke="var(--hm-stroke, #000000)" stroke-width="22.68" stroke-linecap="round" stroke-linejoin="round"/>
  </g>
</g></svg>