<svg xmlns="http://www.w3.org/2000/svg" width="88" height="88" viewBox="-4 -4.5 88 88" style="--hm-bottom:#756E62;--hm-clothes:#DCE2E8;--hm-hair:#6B4E37;--hm-skin:#F3DCC8;--hm-stroke:#1A1A1A"><g data-hm-layer-slot="bottom" data-hm-part-id="hm1-p-000040" data-hm-selection-slot="bottom" data-hm-source-group-id="bottom" data-hm-source-part-id="008" transform="translate(0, 85)">
<path d="M42.2186 90.7373C43.5693 91.4555 45.2133 91.4408 46.6866 91.027C48.16 90.6131 49.4986 89.8375 50.82 89.0672L51.6906 89.5358C51.72 92.4301 51.9866 95.5006 50.6533 98.1706C49.5866 100.173 47.9866 101.909 45.9866 102.843C43.72 103.778 40.7866 103.911 38.92 102.176C38.6533 101.397 38.6533 100.551 38.92 99.7726C39.8533 97.7701 40.7866 95.7676 41.5866 93.7651C41.8533 92.9641 41.72 92.0296 41.7306 91.1218L42.2186 90.7373Z" fill="#000000"/>
<path d="M37.1826 85.1423C35.088 87.2556 31.8106 88.1073 28.9533 87.2783L29.068 87.1928C28.788 87.6214 28.5213 88.0219 28.2546 88.4224C27.988 88.5559 27.8546 88.8229 27.588 89.0899C25.188 91.3594 20.6546 93.0949 21.4546 96.9664C23.188 98.9689 26.2546 97.9009 28.5213 98.1679C31.188 97.7674 33.8546 97.0999 35.4546 94.8304C37.4546 91.8934 37.0546 88.4224 37.4666 85.2838L37.1826 85.1423Z" fill="#000000"/>
<path d="M38.8 69.926C34 71.0701 28.8 70.4026 24.1333 68.5336C25.8667 59.9896 25.4667 51.0451 24.6667 42.3676C24.644 41.2515 24.5547 40.1368 24.4 39.0301V37.6951C23.8667 33.2896 23.6 29.0176 23.7333 24.6121C23.7333 22.6096 23.7333 20.7406 23.8667 18.7381C24 17.2696 24.1333 15.8011 24.4 14.3326C24.9333 11.7961 25.3333 9.25956 26.4 6.85656C35.6 6.05556 44.8 6.32256 54 5.78856C57.7333 19.5391 57.0667 33.8236 56.1333 47.9746C56 48.6421 56 49.1761 55.8667 49.8436C55.8667 50.9116 55.7333 52.1131 55.7333 53.1811C55.3333 59.1886 54.1333 65.3296 55.1627 71.2757C54.3253 71.1608 55.1107 70.8204 55.1627 71.2757C54.8 71.2036 54.2667 71.0701 53.8667 71.0701C50 71.6041 46.1333 70.9366 42.2667 71.2036C41.8667 71.2036 41.3333 71.3371 40.9333 71.3371C40 71.2036 38.6667 71.0701 38.8 69.8859V69.926Z" fill="var(--hm-bottom, #000000)"/>
<path d="M29.6507 70.4279C30.1213 75.342 29.8547 80.148 29.7213 85.0875C29.648 85.8712 29.3813 86.6255 28.9467 87.2809H28.9533C31.8107 88.1073 35.0867 87.2556 37.1827 85.1449L37.5493 84.9087C37.564 84.6603 37.5773 84.4094 37.588 84.1557C37.988 79.3497 38.1213 74.6772 38.2547 70.0461V70.0287C35.4107 70.5307 32.504 70.5467 29.6547 70.0795" fill="var(--hm-skin, #FFFFFF)"/>
<path d="M41.7706 90.3795C41.8013 87.0967 41.6946 83.8674 41.5879 80.5512C41.4546 77.4807 41.1879 74.4102 41.1279 71.3931V71.1916C44.4919 71.305 47.8573 71.3424 51.2239 71.301V71.7416C51.5866 76.1471 51.4533 80.5526 51.5866 84.9581C51.5866 86.2517 51.6373 87.1768 51.6733 88.4718L50.8199 89.0712C49.4973 89.8415 48.1533 90.6185 46.6866 91.031C45.2199 91.4435 43.5693 91.4595 42.2186 90.7413L41.7706 90.3795Z" fill="var(--hm-skin, #FFFFFF)"/>
<path fill-rule="evenodd" clip-rule="evenodd" d="M39.9014 71.9445C40.0757 71.9513 40.2501 71.958 40.4246 71.9644C40.4751 73.1233 40.5257 74.282 40.5774 75.4397C40.5774 75.4397 40.8733 82.9328 40.9173 91.5623C40.9173 91.6708 40.9207 91.7801 40.924 91.8909L40.9267 91.9801C40.9573 92.8986 40.9853 93.765 39.8693 95.299C39.7973 95.3991 39.704 95.5206 39.596 95.6594C39.0027 96.4297 38.0107 97.718 37.5747 99.1531C37.296 100.078 37.3853 101.062 37.8253 101.923C38.2653 102.783 39.012 103.43 39.9213 103.744C40.8053 104.053 41.7453 104.206 42.704 104.206C43.888 104.206 45.1013 103.971 46.276 103.509C46.28 103.507 46.2853 103.505 46.2907 103.503C46.8827 103.253 47.448 102.936 47.9707 102.564C51.696 100.021 52.428 95.8637 52.3853 92.8239C52.3347 89.3782 52.2613 85.8925 52.1893 82.5217L52.0007 72.0882C52.9325 72.0739 53.8624 72.0537 54.7894 72.0272L55.0147 72.0646C55.268 72.106 55.5254 72.0246 55.708 71.8443C55.8907 71.6641 55.976 71.4065 55.9374 71.1528C55.3214 67.1349 55.68 62.9928 56.0266 58.9882L56.0267 58.987C57.556 41.3222 59.1374 23.0554 54.8214 5.62968C54.7147 5.19981 54.2814 4.93815 53.852 5.04495C53.4227 5.15175 53.1614 5.58563 53.268 6.0155C57.5197 23.1822 55.951 41.3112 54.4338 58.8451L54.4314 58.8728C54.1053 62.6542 53.769 66.5551 54.228 70.4399C49.4894 70.5614 44.6934 70.5294 39.9614 70.3438L39.9335 70.3425C39.8353 70.338 39.6349 70.3289 39.5747 70.3024C39.5652 70.282 39.5567 70.2512 39.5495 70.2101C39.6012 70.0747 39.6167 69.9238 39.5867 69.7711C39.5721 69.6967 39.5477 69.6267 39.5152 69.5623C39.2412 58.7048 39.3091 47.6953 39.72 36.834L39.7202 36.8303C39.8908 32.32 40.1032 26.7069 36.928 22.6216C36.6574 22.2718 36.1534 22.2104 35.8054 22.4814C35.4574 22.7537 35.3934 23.2557 35.6654 23.6055C38.4827 27.2313 38.2827 32.5219 38.1214 36.7739C37.7146 47.5593 37.6427 58.4899 37.9083 69.2719C33.5581 69.991 29.1217 69.5563 24.9933 68.0049C26.9533 58.752 26.1294 49.1387 25.332 39.8365L25.3146 39.6324L25.3145 39.6313L25.3134 39.6188C25.2516 38.8959 25.1899 38.1741 25.1293 37.4534C24.2813 27.3181 23.74 16.6154 27.1547 6.98474C27.3027 6.56822 27.084 6.11031 26.668 5.96213C26.252 5.81394 25.7947 6.03288 25.6467 6.4494C22.1267 16.3805 22.6733 27.2781 23.5347 37.5883C23.6013 38.3821 23.6693 39.1772 23.7372 39.9723L23.7373 39.9736C24.544 49.3813 25.3773 59.1085 23.2853 68.3253C23.1973 68.7085 23.4013 69.0969 23.764 69.2451C25.4108 69.9146 27.1072 70.4146 28.8308 70.743C28.8434 71.0716 28.8691 71.7331 28.9214 73.064C28.9322 73.339 28.9427 73.6029 28.9527 73.8566C29.1653 79.2237 29.1989 80.0738 28.9214 85.8445C28.9111 86.0595 28.8694 86.2771 28.8029 86.4935C28.5172 86.549 28.2717 86.7592 28.1853 87.058C28.1272 87.259 28.1517 87.4646 28.2386 87.6383C27.7444 88.3799 27.0807 89.0177 26.5894 89.3702C26.1739 89.6676 25.6253 89.9516 25.0434 90.2529L25.0414 90.254C23.1894 91.2125 20.6547 92.5248 20.8 95.5352C20.904 97.6686 22.2227 98.6979 23.424 98.9502C24.0907 99.089 24.7454 99.1478 25.408 99.1478C26.6467 99.1478 27.912 98.9448 29.3307 98.6899C31.4294 98.3094 35.1574 97.2414 36.5427 94.3538C37.176 93.0361 37.5894 91.5022 37.8054 89.6639C38.4786 83.9574 38.724 78.092 38.9613 72.4187L38.9614 72.4171L38.9729 71.7822C39.3239 71.9233 39.6784 71.9363 39.9014 71.9445ZM37.3891 70.9706C36.197 71.1323 35.0009 71.2129 33.808 71.2129C32.6817 71.2129 31.5578 71.1415 30.4421 70.9991C30.457 71.3811 30.4814 71.9993 30.5214 73C30.5316 73.2577 30.5415 73.5058 30.551 73.7451C30.7677 79.1932 30.8024 80.0648 30.5214 85.9219C30.5079 86.2018 30.4633 86.4778 30.3938 86.7478C32.6425 86.9856 35.0239 86.1831 36.616 84.5789C36.6432 84.5516 36.6718 84.5267 36.7016 84.5041C37.0241 80.4465 37.1954 76.3498 37.3627 72.349L37.3891 70.9706ZM36.5062 86.7505C34.9579 87.8223 33.0905 88.3983 31.2133 88.3983C30.7168 88.3983 30.2197 88.3582 29.7278 88.2761C29.0605 89.3703 28.1236 90.2418 27.5214 90.6732C27.0219 91.0306 26.4353 91.3353 25.8143 91.6579L25.7774 91.6771C23.68 92.7625 22.3107 93.6128 22.4 95.4578C22.4187 95.8463 22.572 97.1346 23.7534 97.3829C25.388 97.7247 26.9787 97.4857 29.0467 97.1119C33.3934 96.3242 34.7294 94.4339 35.1014 93.6582C35.6574 92.5021 36.0214 91.1338 36.2174 89.4757C36.3239 88.5716 36.4196 87.6627 36.5062 86.7505ZM42.176 75.3703C42.176 75.3703 42.0904 73.4276 42.0287 72.0177C44.2085 72.0821 46.3981 72.114 48.5854 72.114C49.191 72.114 49.7964 72.1116 50.4013 72.1068L50.5907 82.555L50.6037 83.1748C50.639 84.8552 50.6748 86.5618 50.7076 88.2747C50.6086 88.2889 50.5106 88.3221 50.4187 88.3757C49.1627 89.1086 47.8627 89.8655 46.472 90.2567C45.0147 90.6665 43.6374 90.5864 42.5947 90.0311C42.5658 90.0156 42.5364 90.0022 42.5066 89.9906C42.4383 82.0081 42.176 75.3703 42.176 75.3703ZM46.9027 91.7986C48.2944 91.4078 49.5816 90.7095 50.7402 90.0405C50.7567 90.9765 50.772 91.9125 50.7853 92.8452C50.8387 96.698 49.5867 99.5242 47.0627 101.244L47.048 101.254C46.6227 101.56 46.1613 101.818 45.6773 102.022C43.9413 102.71 42.036 102.787 40.4467 102.232C39.9253 102.053 39.5013 101.684 39.2507 101.194C39 100.703 38.948 100.144 39.1067 99.6177C39.4573 98.4656 40.3373 97.3215 40.864 96.638C40.9827 96.4844 41.0853 96.3509 41.164 96.2415C42.6016 94.2658 42.5601 92.9714 42.5268 91.9318L42.5267 91.9294L42.5265 91.9232C42.5246 91.8641 42.5228 91.8053 42.5212 91.747C43.1901 91.992 43.9248 92.115 44.696 92.115C45.4067 92.115 46.1507 92.0095 46.9027 91.7986Z" fill="var(--hm-stroke, #000000)"/>
</g><g data-hm-layer-slot="body" data-hm-part-id="hm1-p-000032" data-hm-selection-slot="body" data-hm-source-group-id="body" data-hm-source-part-id="008" transform="translate(0, 51)">
<path d="M45.2494 0C45.3694 1.34667 45.92 4.38933 47.9694 3.93333L48.1894 4.26667C48.0894 6.356 47.0307 7.82933 45.372 9.356C43.6867 10.8827 41.5374 11.8 39.2694 11.9613C37.2694 12.108 35.1427 11.6293 33.6467 10.288C32.1507 8.94667 31.364 7.088 32.3547 5.49467H32.4987C32.9494 5.508 33.364 5.272 33.7454 5.032C34.2307 4.72533 35.232 3.468 35.532 3.10667C35.932 2.588 36.0947 0.621333 36.3 0H45.2494V0Z" fill="var(--hm-skin, #FFFFFF)"/>
<path d="M19.6547 65.2867C19.0013 65.2653 18.368 65.0613 17.824 64.6987C17.28 64.336 16.8493 63.8293 16.5787 63.2347C16.712 61.1013 17.112 58.568 15.3787 56.8347C15.112 55.768 15.912 54.968 16.8453 54.62L20.5893 55.1053L19.6547 65.2867Z" fill="var(--hm-skin, #FFFFFF)"/>
<path d="M20.5907 55.1054C19.4054 55.0974 18.2267 54.9174 17.092 54.572C17.172 53.5787 17.2587 52.5587 17.6867 51.6587L20.984 52.0267L20.5907 55.1054Z" fill="var(--hm-clothes, #FFFFFF)"/>
<path d="M51.5413 54.4987C51.3306 55.5187 51.2613 56.5613 51.3333 57.6C51.3306 57.66 51.3386 57.72 51.36 57.776C51.3813 57.832 51.4133 57.884 51.4546 57.928C51.5386 57.9787 51.6373 58.0013 51.7346 57.9907L60.8013 57.9653C60.9386 57.976 61.076 57.9507 61.2013 57.8933C61.4573 57.748 61.4773 57.3933 61.468 57.0933L61.372 54.636L51.5413 54.4987Z" fill="var(--hm-clothes, #FFFFFF)"/>
<path d="M21.076 51.8813C19.7787 51.6347 18.5787 51.6347 17.2454 51.368C18.1787 42.0347 18.9787 33.1013 20.9787 23.6347C22.0454 18.8347 22.9787 14.4347 25.512 10.168C25.512 10.168 26.472 8.79466 26.8454 8.37466L27.52 7.25999C27.3414 6.73866 27.5574 6.13999 27.948 5.75199C28.3387 5.36399 28.8814 5.15866 29.4147 5.04399C29.6627 4.99066 29.9374 4.94266 30.096 4.74533C30.1894 4.60799 30.2467 4.44799 30.264 4.28266C30.4587 3.19733 30.7454 1.88266 31.7947 1.54666C32.6507 1.27199 33.5734 1.86266 34.0614 2.61999C34.5494 3.37733 34.728 4.28266 35.072 5.11333C35.416 5.94399 36.0054 6.76933 36.884 6.96666L38.46 7.45999C41.372 6.65999 43.604 4.39999 45.964 2.51599C46.5907 2.01733 47.2494 1.53066 48.0134 1.29066C48.7774 1.05066 49.672 1.09199 50.3054 1.58266C50.9387 2.07333 51.18 3.07599 50.6947 3.71599C51.0587 3.50933 51.4707 3.40266 51.8894 3.40666C52.308 3.41066 52.7174 3.52399 53.0774 3.73733C53.4374 3.95066 53.7347 4.25466 53.94 4.61866C54.1454 4.98266 54.2507 5.39599 54.2454 5.81333L54.512 8.37333C56.576 11.5053 58.0427 14.972 59.1627 18.5853L59.5867 19.8667C61.8654 29.676 62.2747 39.7933 62.4254 49.8813L62.5587 50.0987C63.38 53.104 66.4467 60.704 67.1134 63.904C67.1347 64.1773 67.0894 64.452 66.98 64.704C65.6467 66.304 63.38 65.904 61.6267 66.448L55.4307 67.6813C46.5627 69.272 37.6627 69.6613 28.7787 68.1627L27.1027 67.9667L21.3694 66.8693C20.852 66.7707 20.284 66.6387 19.9814 66.2027C19.7307 65.8453 19.732 65.3747 19.7507 64.9387C19.8267 63.2053 20.0267 61.4853 20.2267 59.764L21.14 51.8893L21.076 51.8813Z" fill="var(--hm-clothes, #FFFFFF)"/>
<path d="M52.6293 58.1333C51.344 58.548 49.8413 60.092 50.928 61.516C51.5253 62.3013 52.428 62.724 53.256 63.2173C53.8933 63.596 54.0626 64.876 54.3093 65.5533C54.9333 67.2613 56.1453 68.6667 58.1333 68.5333C60.1546 68.4 61.412 66.6787 61.796 64.8227C62.212 62.8093 61.5026 60.1667 61.168 58.176L52.6293 58.1333Z" fill="var(--hm-skin, #FFFFFF)"/>
<path d="M41.2107 12.2587C41.2387 12.6827 41.5907 13.0067 42.008 13.0067C42.0267 13.0067 42.044 13.0067 42.06 13.0027C45.6267 12.7693 49.1187 11.652 52.16 9.77466C52.7881 9.38765 53.3146 8.98289 53.7386 8.56175C53.7599 8.64708 53.7957 8.73034 53.8467 8.808C55.692 11.608 57.1814 14.8827 58.4014 18.8173C58.508 19.1613 58.824 19.3813 59.1654 19.3813C59.244 19.3813 59.324 19.3693 59.4014 19.3453C59.824 19.2147 60.06 18.7667 59.9294 18.344C58.664 14.2627 57.112 10.856 55.1827 7.928C55.0323 7.69913 54.7847 7.57318 54.5302 7.56822C54.8634 7.01126 55.035 6.43029 55.0427 5.82799C55.0494 5.26933 54.908 4.71733 54.6347 4.23066C54.3614 3.74399 53.9627 3.33599 53.4814 3.05199C53.0014 2.76799 52.452 2.61599 51.8934 2.61066C51.84 2.61066 51.788 2.61066 51.7347 2.61333C51.6574 1.98666 51.3334 1.37333 50.792 0.954659C50.004 0.343993 48.8734 0.185326 47.7707 0.531993C46.8627 0.817326 46.104 1.38399 45.4627 1.89466C44.7593 2.45581 44.1704 3.00654 43.6009 3.53915L43.5787 3.55996C42.23 4.82201 41.1647 5.81884 39.292 6.33333C38.8654 6.45066 38.6147 6.89066 38.732 7.31733C38.8494 7.74399 39.2907 7.99466 39.716 7.87733C41.9707 7.25866 43.284 6.02933 44.6734 4.72799L44.695 4.70773C45.2416 4.19668 45.8074 3.66776 46.46 3.14666C47.012 2.70799 47.604 2.26133 48.2507 2.05866C48.8454 1.87199 49.444 1.93333 49.8134 2.21999C50.1294 2.46533 50.2507 2.97866 50.0547 3.23733C49.8254 3.53999 49.84 3.96266 50.0907 4.24799C50.3414 4.53333 50.7574 4.60399 51.088 4.41733C51.3254 4.28266 51.5947 4.21199 51.8667 4.21199H51.88C52.1574 4.21333 52.4307 4.28933 52.6694 4.43066C52.908 4.57199 53.1054 4.77333 53.2414 5.01599C53.3774 5.25866 53.448 5.53199 53.444 5.80933C53.4334 6.67733 52.7187 7.55333 51.3214 8.41466C48.5014 10.156 45.2627 11.1907 41.956 11.408C41.516 11.4373 41.1814 11.8173 41.2107 12.2587Z" fill="var(--hm-stroke, #000000)"/>
<path fill-rule="evenodd" clip-rule="evenodd" d="M26.072 68.576C26.0227 68.576 25.972 68.5707 25.9214 68.5614L21.2227 67.6614C20.6974 67.556 19.832 67.3813 19.3307 66.6693C19.1862 66.4634 19.0939 66.246 19.0361 66.0258C18.4466 65.9237 17.8831 65.6995 17.3814 65.364C16.7134 64.9186 16.184 64.2973 15.852 63.5666C15.7974 63.4466 15.7734 63.316 15.7814 63.1853C15.794 62.9757 15.8102 62.7613 15.8266 62.5443L15.8294 62.508C15.968 60.6346 16.1107 58.6973 14.8147 57.4C14.712 57.2973 14.64 57.1693 14.604 57.028C14.2891 55.7683 14.9831 54.5614 16.3413 53.9615C16.4018 53.3116 16.4933 52.6256 16.7099 51.9586C16.5288 51.7932 16.4271 51.5479 16.4533 51.288C16.5113 50.7101 16.5685 50.133 16.6254 49.5576L16.6663 49.1443C17.529 40.458 18.344 32.2515 20.2 23.468L20.2867 23.0773C21.32 18.42 22.2973 14.0213 24.828 9.75731C24.8387 9.73998 24.8493 9.72398 24.86 9.70798L24.8746 9.68715C25.0278 9.4693 25.8734 8.26614 26.252 7.84131C26.3941 7.68111 26.5863 7.59164 26.7841 7.57547C26.7772 7.55716 26.7705 7.53866 26.764 7.51998C26.496 6.73998 26.74 5.82398 27.3854 5.18398C27.8374 4.73598 28.4454 4.43465 29.248 4.26131L29.2947 4.25064C29.3467 4.23998 29.416 4.22531 29.468 4.21064C29.468 4.20864 29.4684 4.20698 29.4687 4.20531C29.469 4.20364 29.4694 4.20198 29.4694 4.19998C29.472 4.17864 29.4747 4.15865 29.4787 4.13865L29.4794 4.13502C29.6741 3.06661 29.9991 1.28341 31.552 0.783978C32.4774 0.487978 33.868 0.803978 34.7414 2.19331C34.8357 2.34335 34.9195 2.49575 34.9954 2.64957C35.1532 2.30594 35.5391 2.11237 35.9187 2.20934C36.3467 2.31735 36.6067 2.75335 36.4973 3.18134C36.3768 3.66022 36.1838 3.9804 35.6839 4.46982C35.7255 4.58395 35.7682 4.69566 35.8134 4.80531C36.0014 5.25731 36.4134 6.03864 37.0614 6.18531C37.492 6.28265 37.7627 6.71065 37.6667 7.14131C37.5694 7.57198 37.1414 7.84265 36.7107 7.74664C35.708 7.52131 34.864 6.69465 34.3347 5.41998C34.2041 5.10531 34.096 4.78931 33.9934 4.48265L33.9884 4.46793C33.8116 3.94803 33.6443 3.45611 33.3854 3.04531C33.0854 2.56798 32.5 2.16131 32.04 2.30798C31.456 2.49598 31.2254 3.48131 31.0574 4.39865C31.0227 4.68265 30.92 4.95598 30.76 5.19331C30.748 5.21065 30.7347 5.22798 30.7214 5.24531C30.3944 5.652 29.9363 5.75002 29.631 5.81535L29.628 5.81598L29.5854 5.82531C29.0987 5.93064 28.7387 6.09598 28.5134 6.31865C28.3147 6.51598 28.2134 6.80931 28.2787 6.99998C28.34 7.17865 28.5427 7.37065 28.732 7.53331C30.4494 9.03731 32.5387 10.044 34.7787 10.4466C35.2134 10.5253 35.5027 10.9413 35.424 11.376C35.352 11.7626 35.0147 12.0346 34.636 12.0346C34.5894 12.0346 34.5414 12.0306 34.4934 12.0213C31.9681 11.5666 29.612 10.432 27.6814 8.74131C27.6527 8.7166 27.6238 8.69132 27.5947 8.66542C27.561 8.75123 27.5117 8.83259 27.4467 8.90531C27.172 9.21331 26.4613 10.2106 26.188 10.6C23.7987 14.636 22.8507 18.904 21.848 23.424L21.7627 23.8066C19.9245 32.5057 19.1138 40.6783 18.2554 49.3317L18.2547 49.3386C18.2093 49.792 18.164 50.2466 18.1187 50.7026C18.5173 50.7586 18.912 50.8 19.3213 50.8413L19.3429 50.8435C19.7027 50.8803 20.0695 50.9177 20.4448 50.9683L21.0553 45.7051C22.1525 36.3132 23.2871 26.6017 25.4947 17.232C25.596 16.8027 26.0267 16.5347 26.4574 16.6373C26.8867 16.7387 27.1534 17.1693 27.052 17.6C24.8651 26.8831 23.7359 36.5506 22.6437 45.9009L21.0232 59.8724C20.8288 61.5488 20.6279 63.2811 20.552 64.9827C20.5427 65.1947 20.5254 65.592 20.6387 65.752C20.772 65.9414 21.2467 66.0374 21.5294 66.0934L26.22 66.9907C26.6534 67.0733 26.9387 67.4934 26.8547 67.9267C26.784 68.3094 26.4494 68.576 26.072 68.576ZM16.1307 56.4626C16.1066 55.8535 16.79 55.5085 17.0565 55.3972C17.9766 55.6615 18.9209 55.8246 19.8749 55.8828L19.4291 59.7268C19.2537 61.2428 19.0729 62.8049 18.9823 64.3705C18.7312 64.2939 18.4915 64.1805 18.2707 64.0333C17.904 63.788 17.6027 63.4586 17.3934 63.072C17.3993 62.978 17.4063 62.8839 17.4133 62.7892C17.4174 62.7352 17.4215 62.6799 17.4254 62.6253L17.4255 62.6232C17.5695 60.6716 17.7474 58.2593 16.1307 56.4626ZM20.2604 52.5585L20.0595 54.2908C19.3471 54.2529 18.6397 54.1482 17.9467 53.9787C18.0034 53.4096 18.0886 52.8468 18.2716 52.3368C18.573 52.3737 18.8682 52.4039 19.1587 52.4333L19.2202 52.4397C19.574 52.4763 19.9173 52.5118 20.2604 52.5585Z" fill="var(--hm-stroke, #000000)"/>
<path fill-rule="evenodd" clip-rule="evenodd" d="M28.6453 68.9493C32.4213 69.5867 36.2773 69.9053 40.2627 69.9053C45.0913 69.9053 50.109 69.4359 55.3918 68.4983C56.1087 69.05 56.9522 69.3413 57.8814 69.3413C57.9814 69.3413 58.084 69.3387 58.1867 69.3307C59.6004 69.2378 60.8294 68.4695 61.6529 67.2449C61.7227 67.2424 61.7933 67.2307 61.864 67.2107C62.3613 67.056 62.932 66.984 63.5347 66.9093C64.92 66.7373 66.4893 66.5413 67.5947 65.2147C67.644 65.156 67.684 65.0907 67.7147 65.02C67.8733 64.6507 67.9413 64.2427 67.9107 63.8413C67.908 63.8067 67.9027 63.7733 67.896 63.74C67.4987 61.8337 66.3297 58.5651 65.1993 55.4043L65.1987 55.4027C64.4107 53.2027 63.668 51.124 63.3293 49.8867C63.3065 49.8028 63.2712 49.7257 63.2259 49.6568C63.0944 40.0163 62.7409 30.7386 60.472 20.9586C60.372 20.528 59.9427 20.26 59.512 20.36C59.0814 20.46 58.8134 20.8893 58.9134 21.32C61.4451 32.2362 61.5547 42.5926 61.6707 53.5567L61.6707 53.56L61.6734 53.7626L51.5787 53.5973C50.0787 41.8773 49.5614 29.956 50.04 18.152C50.0587 17.7106 49.7147 17.3373 49.2734 17.32C48.832 17.304 48.4587 17.6453 48.4414 18.0866C47.9494 30.2106 48.5014 42.4586 50.0814 54.4893C50.1223 54.7988 50.3365 55.048 50.6189 55.1435C50.5062 55.9625 50.4768 56.7921 50.532 57.6186C50.532 57.768 50.5573 57.9146 50.6093 58.0546C50.6693 58.2146 50.7587 58.3586 50.876 58.4813C50.8871 58.4931 50.8987 58.5045 50.9105 58.5155C50.4272 58.8808 50.027 59.3483 49.8507 59.9107C49.6987 60.3973 49.652 61.1547 50.292 61.9947C50.884 62.7733 51.7014 63.2413 52.4227 63.6533C52.5654 63.7347 52.7067 63.816 52.848 63.9C53.0453 64.0165 53.261 64.8024 53.3554 65.1463L53.3574 65.1533C53.4227 65.3933 53.4854 65.62 53.5587 65.8227C53.7279 66.2872 53.9287 66.7099 54.1581 67.0881C45.0747 68.6114 36.8046 68.7036 28.9107 67.372C28.4747 67.2973 28.0627 67.592 27.9893 68.028C27.916 68.4627 28.2093 68.876 28.6453 68.9493ZM53.3838 58.7848C53.3041 59.0134 53.1219 59.2032 52.8734 59.2827C52.132 59.5227 51.5027 59.988 51.3774 60.3893C51.3534 60.4653 51.2907 60.6667 51.564 61.0253C51.9598 61.5451 52.57 61.8943 53.215 62.2634L53.216 62.264L53.325 62.3265C53.4391 62.3919 53.5532 62.4573 53.6654 62.524C54.4175 62.97 54.6845 63.9435 54.899 64.7256L54.9 64.7294C54.956 64.936 55.0107 65.132 55.0614 65.2733C55.4934 66.4587 56.3654 67.844 58.08 67.7334C59.2067 67.6587 60.5667 66.812 61.0134 64.6587C61.3557 63.0032 61.0461 61.2213 60.7464 59.4965L60.7297 59.4001C60.6989 59.2226 60.6683 59.046 60.6387 58.8693C60.6328 58.8342 60.6292 58.7991 60.628 58.7644L53.3838 58.7848ZM62.0166 58.1952C62.1178 58.3055 62.1894 58.4454 62.216 58.604C62.2507 58.808 62.2854 59.012 62.3214 59.2173L62.3225 59.224C62.6475 61.0953 62.9836 63.0303 62.58 64.984C62.548 65.1388 62.5113 65.2906 62.4702 65.4392C62.7595 65.3929 63.0493 65.3567 63.3347 65.3213C64.5347 65.172 65.5787 65.0413 66.28 64.2853C66.3067 64.196 66.3187 64.1013 66.316 64.008C65.9286 62.2002 64.7437 58.8864 63.6956 55.9552L63.6536 55.8377L63.6519 55.833C63.5206 55.4655 63.3905 55.1017 63.2634 54.7447C63.2311 54.8944 63.1559 55.0331 63.0454 55.1426C62.8974 55.292 62.6934 55.376 62.4827 55.376H62.4694L62.2007 55.3716L62.2667 57.0613C62.2735 57.2691 62.289 57.7801 62.0166 58.1952ZM60.5986 55.3452L52.2262 55.2077C52.1261 55.864 52.088 56.5284 52.112 57.192L60.6693 57.168C60.6693 57.1586 60.6693 57.1486 60.669 57.1381C60.6688 57.1323 60.6685 57.1262 60.668 57.12L60.5986 55.3452Z" fill="var(--hm-stroke, #000000)"/>
</g><g data-hm-layer-slot="head" data-hm-part-id="hm1-p-000007" data-hm-selection-slot="head" data-hm-source-group-id="head" data-hm-source-part-id="007" transform="translate(0, -0.5)">
<path d="M50.056 36.8C49.9413 36.0533 49.2279 35.564 48.5586 35.2147C47.8893 34.8653 47.1413 34.5067 46.8333 33.816C46.2573 32.5267 47.5746 30.9573 46.9919 29.6707C46.7319 29.096 46.1333 28.7373 45.5173 28.5947C44.9013 28.452 44.2613 28.5133 43.6319 28.5693L41.9773 27.7053C40.8693 25.936 38.4506 25.372 36.4119 25.828C34.3733 26.284 32.6239 27.548 30.9333 28.7773L25.6386 32.6373C24.7773 33.2653 23.56 33.8947 22.7373 33.216C21.5106 32.2053 23.004 29.8933 21.952 28.7067C21.7 28.424 21.34 28.264 21.052 28.0173C20.252 27.3267 20.152 26.1187 20.264 25.064C20.6973 20.9933 23.3866 17.2987 27.0013 15.3773C30.6159 13.456 35.0413 13.264 38.9159 14.5773C41.1399 15.3347 43.4253 16.8947 43.7026 19.2267L45.1813 19.708C46.9973 18.108 49.7693 18.4653 52.1013 19.096C53.7746 19.548 55.4413 20.1067 56.9013 21.0387C58.3613 21.9707 59.6133 23.3173 60.156 24.964C60.4906 25.9773 60.5559 27.0973 61.1386 27.996C61.5159 28.58 62.0786 29.02 62.4933 29.5773C63.684 31.1773 63.3093 33.7213 61.7066 34.9107C60.9319 35.4853 59.8933 35.8147 59.4613 36.6787C59.0999 37.4027 59.2653 38.344 58.768 38.9813C58.044 39.908 56.368 39.6387 55.7346 40.6293C55.56 40.9027 55.4946 41.24 55.2879 41.4893C55.0813 41.7387 54.6213 41.8347 54.4626 41.5547L50.5506 41.7333L50.056 36.8Z" fill="var(--hm-hair, #000000)"/>
<path d="M25.1747 33.6693C24.3147 35.8813 23.7974 37.8786 23.6667 39.088C23.3374 42.1333 23.952 45.5173 26.2814 47.6866C27.5227 48.8413 29.06 49.4093 30.704 49.6986C32.4187 50.0013 34.2587 50.2773 35.9227 49.5973C35.8347 50.9853 35.8214 51.8426 35.8854 53.232L45.2667 52.2666C45.1147 50.4413 45.472 48.932 46.2667 47.2813C46.4467 46.908 46.8334 46.912 47.216 46.7906C47.556 46.684 47.8894 46.5613 48.2187 46.4226C48.8867 46.1453 49.5187 45.7866 50.0987 45.356C51.248 44.488 52.144 43.2693 52.48 41.856C52.7854 40.5746 52.5707 39.0493 51.1467 38.328C50.1427 37.8213 49.2427 38.0013 47.7134 39.3453L50.068 36.812C49.9534 36.0653 49.24 35.576 48.5707 35.2266C47.9014 34.8773 47.1534 34.5186 46.8454 33.828C46.2694 32.5386 47.5867 30.9693 47.004 29.6826C46.744 29.108 46.1454 28.7493 45.5294 28.6066C44.9134 28.464 44.2734 28.5253 43.644 28.5813L41.9894 27.7173C40.8814 25.948 38.4627 25.384 36.424 25.84C34.3854 26.296 32.624 27.548 30.9334 28.7773L25.6387 32.6373" fill="var(--hm-skin, #FFFFFF)"/>
<path d="M23.5774 34.3133C22.988 34.3133 22.5454 34.096 22.228 33.8333C21.264 33.0386 21.3907 31.8333 21.492 30.864C21.5627 30.188 21.6294 29.548 21.3534 29.2373C21.2747 29.1493 21.1347 29.056 20.9867 28.9573C20.8467 28.864 20.6867 28.7573 20.532 28.6253C19.6627 27.8746 19.296 26.6146 19.4694 24.98C19.9227 20.728 22.664 16.7773 26.6267 14.672C30.2987 12.72 34.988 12.4026 39.1734 13.8213C42.236 14.864 44.2254 16.8506 44.4974 19.1333C44.5494 19.572 44.236 19.9706 43.7974 20.0226C43.3587 20.0746 42.9614 19.7613 42.908 19.3226C42.616 16.8666 39.5814 15.6506 38.6574 15.336C34.8827 14.0573 30.6654 14.3373 27.376 16.0853C23.876 17.9453 21.456 21.4186 21.0587 25.1506C20.9787 25.9106 21.0014 26.92 21.5734 27.4133C21.652 27.48 21.7587 27.552 21.8707 27.6266C22.0854 27.7693 22.3307 27.932 22.5467 28.176C23.292 29.016 23.1747 30.1346 23.0814 31.032C22.996 31.8533 22.964 32.3693 23.244 32.6C23.7174 32.9906 24.8347 32.2333 25.1654 31.992L30.46 28.132C32.124 26.9226 34.008 25.552 36.2347 25.0533C38.976 24.44 41.2174 25.1573 42.384 27.02C42.6187 27.3946 42.5054 27.888 42.1307 28.1226C41.756 28.3573 41.2627 28.244 41.028 27.8693C39.9134 26.0893 37.548 26.3986 36.584 26.6146C34.6814 27.04 33.0134 28.252 31.4014 29.4253L26.108 33.2853C25.0627 34.048 24.2294 34.3133 23.5774 34.3133Z" fill="var(--hm-stroke, #000000)"/>
<path d="M54.788 42.5306C54.7494 42.5306 54.712 42.5293 54.6747 42.5253C54.2854 42.4906 53.956 42.2826 53.7694 41.9546C53.552 41.5706 53.6867 41.0826 54.0707 40.864C54.2907 40.7386 54.5467 40.7306 54.764 40.8186C54.78 40.7813 54.7974 40.7413 54.8147 40.7026C54.8787 40.552 54.9507 40.38 55.0627 40.2053C55.5507 39.4426 56.3814 39.2 57.048 39.0053C57.5107 38.8706 57.948 38.7426 58.14 38.496C58.2907 38.304 58.3414 37.9786 58.4014 37.6013C58.464 37.2066 58.5334 36.7586 58.748 36.328C59.1534 35.5173 59.888 35.0906 60.536 34.7133C60.7894 34.5666 61.028 34.4266 61.2334 34.2746C61.828 33.8333 62.2387 33.1093 62.36 32.288C62.4814 31.4666 62.2974 30.6546 61.856 30.0613C61.7 29.852 61.508 29.6493 61.304 29.436C61.0174 29.1346 60.72 28.8226 60.4707 28.436C60.0107 27.7266 59.832 26.956 59.66 26.2106C59.5787 25.8613 59.5027 25.532 59.4 25.2213C58.96 23.8866 57.9214 22.6426 56.4747 21.72C55.02 20.7906 53.344 20.2666 51.896 19.8746C49.1174 19.1226 47.3814 19.2866 46.092 20.424C45.76 20.716 45.2547 20.684 44.9627 20.352C44.6707 20.02 44.7027 19.5146 45.0347 19.2226C47.2374 17.2826 50.0814 17.7266 52.3134 18.3293C53.8774 18.752 55.6974 19.3253 57.3347 20.3706C59.0907 21.492 60.364 23.036 60.9187 24.72C61.044 25.1 61.132 25.4813 61.2174 25.8506C61.3654 26.4893 61.5054 27.0933 61.812 27.5666C61.9814 27.828 62.2147 28.0733 62.4614 28.3333C62.688 28.572 62.924 28.8186 63.1374 29.1066C63.8307 30.0386 64.124 31.2826 63.9414 32.5213C63.7587 33.76 63.1187 34.868 62.1854 35.56C61.9094 35.7653 61.62 35.9333 61.34 36.096C60.82 36.3986 60.3694 36.6613 60.1787 37.0426C60.0747 37.2506 60.0294 37.5413 59.98 37.8493C59.8987 38.3693 59.8054 38.96 59.4 39.48C58.8894 40.1333 58.1494 40.3493 57.496 40.54C57.0014 40.684 56.5747 40.8093 56.4107 41.0666C56.372 41.128 56.3307 41.224 56.288 41.3266C56.204 41.5266 56.0987 41.7746 55.9067 42.0066C55.636 42.332 55.2067 42.5306 54.788 42.5306Z" fill="var(--hm-stroke, #000000)"/>
<path d="M50.0547 37.6C49.6667 37.6 49.3254 37.3173 49.2654 36.9213C49.216 36.6026 48.864 36.276 48.188 35.924L48.0827 35.8693C47.3814 35.5053 46.508 35.052 46.1027 34.1426C45.7014 33.244 45.9347 32.3426 46.14 31.5466C46.3 30.9253 46.4387 30.3893 46.264 30.0013C46.136 29.7173 45.78 29.4773 45.3374 29.3746C44.8587 29.264 44.3174 29.312 43.744 29.3626L43.704 29.3666C43.2627 29.4066 42.876 29.0813 42.836 28.6413C42.7974 28.2013 43.1214 27.8133 43.5614 27.7733L43.6014 27.7693C44.2427 27.712 44.9707 27.6466 45.6974 27.816C46.644 28.0346 47.3814 28.5906 47.72 29.3413C48.128 30.2426 47.8947 31.148 47.688 31.9466C47.5347 32.5413 47.3894 33.1026 47.5627 33.4906C47.7414 33.8893 48.2894 34.1746 48.8187 34.4493L48.9267 34.5053C49.6667 34.8906 50.6694 35.536 50.844 36.6786C50.9107 37.116 50.612 37.524 50.1747 37.5906C50.136 37.5973 50.096 37.6 50.0547 37.6Z" fill="var(--hm-stroke, #000000)"/>
<path d="M45.2787 52.3186C44.8681 52.3186 44.5174 52.004 44.4827 51.5853C44.3134 49.5773 44.7041 48.6586 45.5334 46.9306C45.8374 46.3 46.4121 46.1613 46.7561 46.0786C46.8307 46.06 46.9014 46.044 46.9627 46.024C47.2801 45.924 47.5934 45.8093 47.8961 45.6813C48.5081 45.428 49.0827 45.1013 49.6107 44.7093C50.6747 43.9053 51.4161 42.824 51.6907 41.6666C51.8321 41.084 52.0241 39.668 50.7747 39.0373C50.2294 38.7613 49.6947 38.6533 48.2294 39.9413C47.8974 40.2333 47.3921 40.2 47.1001 39.868C46.8081 39.536 46.8414 39.0306 47.1734 38.7386C49.2774 36.8893 50.4934 37.1026 51.4947 37.608C53.0467 38.392 53.7174 40.0893 53.2454 42.0386C52.8854 43.5533 51.9347 44.9573 50.5694 45.988C49.9321 46.4613 49.2414 46.8533 48.5134 47.1546C48.1681 47.3 47.8067 47.4333 47.4427 47.5466C47.3321 47.5813 47.2254 47.608 47.1321 47.6306C47.0734 47.6453 46.9974 47.6626 46.9481 47.6786C46.1814 49.2786 45.9441 49.88 46.0774 51.448C46.1147 51.888 45.7881 52.2746 45.3481 52.312C45.3241 52.3173 45.3014 52.3186 45.2787 52.3186Z" fill="var(--hm-stroke, #000000)"/>
<path d="M35.8854 53.4986C35.4601 53.4986 35.1067 53.164 35.0867 52.7346C35.0441 51.796 35.0347 51.324 35.0614 50.68C33.4587 50.9893 31.8267 50.7053 30.5681 50.4853C28.5347 50.1266 26.9547 49.4026 25.7374 48.2706C23.5001 46.1866 22.4561 42.808 22.8721 38.9986C23.0281 37.5866 23.6094 35.4853 24.4294 33.3773C24.5894 32.9653 25.0534 32.7613 25.4654 32.9213C25.8774 33.0813 26.0814 33.5453 25.9214 33.9573C25.0121 36.296 24.5721 38.1853 24.4627 39.1733C24.1014 42.4733 24.9627 45.3626 26.8281 47.0986C27.8254 48.0266 29.1014 48.6013 30.8441 48.908C32.6254 49.2186 34.2161 49.428 35.6214 48.8533C35.8761 48.7493 36.1667 48.784 36.3907 48.944C36.6147 49.1053 36.7401 49.3693 36.7227 49.644C36.6374 50.9853 36.6227 51.2813 36.6867 52.6573C36.7067 53.0986 36.3654 53.4733 35.9241 53.4933C35.9094 53.4986 35.8974 53.4986 35.8854 53.4986Z" fill="var(--hm-stroke, #000000)"/>
<path d="M29.124 37.3467C29.6395 37.3467 30.0573 36.8393 30.0573 36.2134C30.0573 35.5874 29.6395 35.08 29.124 35.08C28.6085 35.08 28.1907 35.5874 28.1907 36.2134C28.1907 36.8393 28.6085 37.3467 29.124 37.3467Z" fill="var(--hm-stroke, #000000)"/>
<path d="M33.6573 37.66C34.1728 37.66 34.5907 37.1526 34.5907 36.5266C34.5907 35.9007 34.1728 35.3933 33.6573 35.3933C33.1419 35.3933 32.724 35.9007 32.724 36.5266C32.724 37.1526 33.1419 37.66 33.6573 37.66Z" fill="var(--hm-stroke, #000000)"/>
</g><g data-hm-layer-slot="item" data-hm-part-id="hm1-p-000041" data-hm-selection-slot="item" data-hm-source-group-id="item" data-hm-source-part-id="000" transform="translate(0, 0)">
</g><g data-hm-layer-slot="glasses" data-hm-part-id="hm1-p-000056" data-hm-selection-slot="glasses" data-hm-source-group-id="glasses" data-hm-source-part-id="000" transform="translate(0, 0)"></g></svg>