<svg xmlns="http://www.w3.org/2000/svg" width="88" height="88" viewBox="-4 -4.5 88 88" style="--hm-bottom:#1A1A1A;--hm-clothes:#DCE2E8;--hm-hair:#2A2A28;--hm-skin:#F3DCC8;--hm-stroke:#1A1A1A"><g data-hm-layer-slot="bottom" data-hm-part-id="hm1-p-000040" data-hm-selection-slot="bottom" data-hm-source-group-id="bottom" data-hm-source-part-id="008" transform="translate(0, 85)">
<path d="M42.2186 90.7373C43.5693 91.4555 45.2133 91.4408 46.6866 91.027C48.16 90.6131 49.4986 89.8375 50.82 89.0672L51.6906 89.5358C51.72 92.4301 51.9866 95.5006 50.6533 98.1706C49.5866 100.173 47.9866 101.909 45.9866 102.843C43.72 103.778 40.7866 103.911 38.92 102.176C38.6533 101.397 38.6533 100.551 38.92 99.7726C39.8533 97.7701 40.7866 95.7676 41.5866 93.7651C41.8533 92.9641 41.72 92.0296 41.7306 91.1218L42.2186 90.7373Z" fill="#000000"/>
<path d="M37.1826 85.1423C35.088 87.2556 31.8106 88.1073 28.9533 87.2783L29.068 87.1928C28.788 87.6214 28.5213 88.0219 28.2546 88.4224C27.988 88.5559 27.8546 88.8229 27.588 89.0899C25.188 91.3594 20.6546 93.0949 21.4546 96.9664C23.188 98.9689 26.2546 97.9009 28.5213 98.1679C31.188 97.7674 33.8546 97.0999 35.4546 94.8304C37.4546 91.8934 37.0546 88.4224 37.4666 85.2838L37.1826 85.1423Z" fill="#000000"/>
<path d="M38.8 69.926C34 71.0701 28.8 70.4026 24.1333 68.5336C25.8667 59.9896 25.4667 51.0451 24.6667 42.3676C24.644 41.2515 24.5547 40.1368 24.4 39.0301V37.6951C23.8667 33.2896 23.6 29.0176 23.7333 24.6121C23.7333 22.6096 23.7333 20.7406 23.8667 18.7381C24 17.2696 24.1333 15.8011 24.4 14.3326C24.9333 11.7961 25.3333 9.25956 26.4 6.85656C35.6 6.05556 44.8 6.32256 54 5.78856C57.7333 19.5391 57.0667 33.8236 56.1333 47.9746C56 48.6421 56 49.1761 55.8667 49.8436C55.8667 50.9116 55.7333 52.1131 55.7333 53.1811C55.3333 59.1886 54.1333 65.3296 55.1627 71.2757C54.3253 71.1608 55.1107 70.8204 55.1627 71.2757C54.8 71.2036 54.2667 71.0701 53.8667 71.0701C50 71.6041 46.1333 70.9366 42.2667 71.2036C41.8667 71.2036 41.3333 71.3371 40.9333 71.3371C40 71.2036 38.6667 71.0701 38.8 69.8859V69.926Z" fill="var(--hm-bottom, #000000)"/>
<path d="M29.6507 70.4279C30.1213 75.342 29.8547 80.148 29.7213 85.0875C29.648 85.8712 29.3813 86.6255 28.9467 87.2809H28.9533C31.8107 88.1073 35.0867 87.2556 37.1827 85.1449L37.5493 84.9087C37.564 84.6603 37.5773 84.4094 37.588 84.1557C37.988 79.3497 38.1213 74.6772 38.2547 70.0461V70.0287C35.4107 70.5307 32.504 70.5467 29.6547 70.0795" fill="var(--hm-skin, #FFFFFF)"/>
<path d="M41.7706 90.3795C41.8013 87.0967 41.6946 83.8674 41.5879 80.5512C41.4546 77.4807 41.1879 74.4102 41.1279 71.3931V71.1916C44.4919 71.305 47.8573 71.3424 51.2239 71.301V71.7416C51.5866 76.1471 51.4533 80.5526 51.5866 84.9581C51.5866 86.2517 51.6373 87.1768 51.6733 88.4718L50.8199 89.0712C49.4973 89.8415 48.1533 90.6185 46.6866 91.031C45.2199 91.4435 43.5693 91.4595 42.2186 90.7413L41.7706 90.3795Z" fill="var(--hm-skin, #FFFFFF)"/>
<path fill-rule="evenodd" clip-rule="evenodd" d="M39.9014 71.9445C40.0757 71.9513 40.2501 71.958 40.4246 71.9644C40.4751 73.1233 40.5257 74.282 40.5774 75.4397C40.5774 75.4397 40.8733 82.9328 40.9173 91.5623C40.9173 91.6708 40.9207 91.7801 40.924 91.8909L40.9267 91.9801C40.9573 92.8986 40.9853 93.765 39.8693 95.299C39.7973 95.3991 39.704 95.5206 39.596 95.6594C39.0027 96.4297 38.0107 97.718 37.5747 99.1531C37.296 100.078 37.3853 101.062 37.8253 101.923C38.2653 102.783 39.012 103.43 39.9213 103.744C40.8053 104.053 41.7453 104.206 42.704 104.206C43.888 104.206 45.1013 103.971 46.276 103.509C46.28 103.507 46.2853 103.505 46.2907 103.503C46.8827 103.253 47.448 102.936 47.9707 102.564C51.696 100.021 52.428 95.8637 52.3853 92.8239C52.3347 89.3782 52.2613 85.8925 52.1893 82.5217L52.0007 72.0882C52.9325 72.0739 53.8624 72.0537 54.7894 72.0272L55.0147 72.0646C55.268 72.106 55.5254 72.0246 55.708 71.8443C55.8907 71.6641 55.976 71.4065 55.9374 71.1528C55.3214 67.1349 55.68 62.9928 56.0266 58.9882L56.0267 58.987C57.556 41.3222 59.1374 23.0554 54.8214 5.62968C54.7147 5.19981 54.2814 4.93815 53.852 5.04495C53.4227 5.15175 53.1614 5.58563 53.268 6.0155C57.5197 23.1822 55.951 41.3112 54.4338 58.8451L54.4314 58.8728C54.1053 62.6542 53.769 66.5551 54.228 70.4399C49.4894 70.5614 44.6934 70.5294 39.9614 70.3438L39.9335 70.3425C39.8353 70.338 39.6349 70.3289 39.5747 70.3024C39.5652 70.282 39.5567 70.2512 39.5495 70.2101C39.6012 70.0747 39.6167 69.9238 39.5867 69.7711C39.5721 69.6967 39.5477 69.6267 39.5152 69.5623C39.2412 58.7048 39.3091 47.6953 39.72 36.834L39.7202 36.8303C39.8908 32.32 40.1032 26.7069 36.928 22.6216C36.6574 22.2718 36.1534 22.2104 35.8054 22.4814C35.4574 22.7537 35.3934 23.2557 35.6654 23.6055C38.4827 27.2313 38.2827 32.5219 38.1214 36.7739C37.7146 47.5593 37.6427 58.4899 37.9083 69.2719C33.5581 69.991 29.1217 69.5563 24.9933 68.0049C26.9533 58.752 26.1294 49.1387 25.332 39.8365L25.3146 39.6324L25.3145 39.6313L25.3134 39.6188C25.2516 38.8959 25.1899 38.1741 25.1293 37.4534C24.2813 27.3181 23.74 16.6154 27.1547 6.98474C27.3027 6.56822 27.084 6.11031 26.668 5.96213C26.252 5.81394 25.7947 6.03288 25.6467 6.4494C22.1267 16.3805 22.6733 27.2781 23.5347 37.5883C23.6013 38.3821 23.6693 39.1772 23.7372 39.9723L23.7373 39.9736C24.544 49.3813 25.3773 59.1085 23.2853 68.3253C23.1973 68.7085 23.4013 69.0969 23.764 69.2451C25.4108 69.9146 27.1072 70.4146 28.8308 70.743C28.8434 71.0716 28.8691 71.7331 28.9214 73.064C28.9322 73.339 28.9427 73.6029 28.9527 73.8566C29.1653 79.2237 29.1989 80.0738 28.9214 85.8445C28.9111 86.0595 28.8694 86.2771 28.8029 86.4935C28.5172 86.549 28.2717 86.7592 28.1853 87.058C28.1272 87.259 28.1517 87.4646 28.2386 87.6383C27.7444 88.3799 27.0807 89.0177 26.5894 89.3702C26.1739 89.6676 25.6253 89.9516 25.0434 90.2529L25.0414 90.254C23.1894 91.2125 20.6547 92.5248 20.8 95.5352C20.904 97.6686 22.2227 98.6979 23.424 98.9502C24.0907 99.089 24.7454 99.1478 25.408 99.1478C26.6467 99.1478 27.912 98.9448 29.3307 98.6899C31.4294 98.3094 35.1574 97.2414 36.5427 94.3538C37.176 93.0361 37.5894 91.5022 37.8054 89.6639C38.4786 83.9574 38.724 78.092 38.9613 72.4187L38.9614 72.4171L38.9729 71.7822C39.3239 71.9233 39.6784 71.9363 39.9014 71.9445ZM37.3891 70.9706C36.197 71.1323 35.0009 71.2129 33.808 71.2129C32.6817 71.2129 31.5578 71.1415 30.4421 70.9991C30.457 71.3811 30.4814 71.9993 30.5214 73C30.5316 73.2577 30.5415 73.5058 30.551 73.7451C30.7677 79.1932 30.8024 80.0648 30.5214 85.9219C30.5079 86.2018 30.4633 86.4778 30.3938 86.7478C32.6425 86.9856 35.0239 86.1831 36.616 84.5789C36.6432 84.5516 36.6718 84.5267 36.7016 84.5041C37.0241 80.4465 37.1954 76.3498 37.3627 72.349L37.3891 70.9706ZM36.5062 86.7505C34.9579 87.8223 33.0905 88.3983 31.2133 88.3983C30.7168 88.3983 30.2197 88.3582 29.7278 88.2761C29.0605 89.3703 28.1236 90.2418 27.5214 90.6732C27.0219 91.0306 26.4353 91.3353 25.8143 91.6579L25.7774 91.6771C23.68 92.7625 22.3107 93.6128 22.4 95.4578C22.4187 95.8463 22.572 97.1346 23.7534 97.3829C25.388 97.7247 26.9787 97.4857 29.0467 97.1119C33.3934 96.3242 34.7294 94.4339 35.1014 93.6582C35.6574 92.5021 36.0214 91.1338 36.2174 89.4757C36.3239 88.5716 36.4196 87.6627 36.5062 86.7505ZM42.176 75.3703C42.176 75.3703 42.0904 73.4276 42.0287 72.0177C44.2085 72.0821 46.3981 72.114 48.5854 72.114C49.191 72.114 49.7964 72.1116 50.4013 72.1068L50.5907 82.555L50.6037 83.1748C50.639 84.8552 50.6748 86.5618 50.7076 88.2747C50.6086 88.2889 50.5106 88.3221 50.4187 88.3757C49.1627 89.1086 47.8627 89.8655 46.472 90.2567C45.0147 90.6665 43.6374 90.5864 42.5947 90.0311C42.5658 90.0156 42.5364 90.0022 42.5066 89.9906C42.4383 82.0081 42.176 75.3703 42.176 75.3703ZM46.9027 91.7986C48.2944 91.4078 49.5816 90.7095 50.7402 90.0405C50.7567 90.9765 50.772 91.9125 50.7853 92.8452C50.8387 96.698 49.5867 99.5242 47.0627 101.244L47.048 101.254C46.6227 101.56 46.1613 101.818 45.6773 102.022C43.9413 102.71 42.036 102.787 40.4467 102.232C39.9253 102.053 39.5013 101.684 39.2507 101.194C39 100.703 38.948 100.144 39.1067 99.6177C39.4573 98.4656 40.3373 97.3215 40.864 96.638C40.9827 96.4844 41.0853 96.3509 41.164 96.2415C42.6016 94.2658 42.5601 92.9714 42.5268 91.9318L42.5267 91.9294L42.5265 91.9232C42.5246 91.8641 42.5228 91.8053 42.5212 91.747C43.1901 91.992 43.9248 92.115 44.696 92.115C45.4067 92.115 46.1507 92.0095 46.9027 91.7986Z" fill="var(--hm-stroke, #000000)"/>
</g><g data-hm-layer-slot="body" data-hm-part-id="hm1-p-000030" data-hm-selection-slot="body" data-hm-source-group-id="body" data-hm-source-part-id="006" transform="translate(0, 51)">
<path d="M45.2493 0C45.3693 1.34667 45.92 4.38933 47.9693 3.93333L48.1893 4.26667C48.0893 6.356 47.0306 7.82933 45.372 9.356C43.6866 10.8827 41.5373 11.8 39.2693 11.9613C37.2693 12.108 35.1426 11.6293 33.6466 10.288C32.1506 8.94667 31.364 7.088 32.3546 5.49467H32.4986C32.9493 5.508 33.364 5.272 33.7453 5.032C34.2306 4.72533 35.232 3.468 35.532 3.10667C35.932 2.588 36.0946 0.621333 36.3 0H45.2493V0Z" fill="var(--hm-skin, #FFFFFF)"/>
<path d="M48.208 3.2C50.5667 3.832 52.396 5.64933 53.8693 7.51067C55.476 9.54267 56.736 11.8253 57.6 14.2667C58.084 15.6307 58.8493 17.1653 59.1653 18.576L59.5867 19.8667C61.8693 29.6973 62.2773 39.8373 62.4267 49.9467L62.56 50.0987C63.3813 53.104 66.448 60.704 67.1147 63.904C67.136 64.1773 67.0907 64.452 66.9813 64.704C65.648 66.304 63.3813 65.904 61.628 66.448L55.432 67.6813C46.564 69.272 37.664 69.6613 28.78 68.1627L27.104 67.9667L21.3707 66.8693C20.8533 66.7707 20.2853 66.6387 19.9827 66.2027C19.732 65.8453 19.7333 65.3747 19.752 64.9387C19.828 63.2053 20.028 61.4853 20.228 59.764L21.1427 51.8787H21.0733C19.7187 51.7133 18.6307 51.5493 17.276 51.3853C17.8373 45.192 18.5573 39.0147 19.436 32.852C20.2 27.4853 21.0893 22.1173 22.668 16.932C24.0707 12.324 26.296 7.55867 30.5213 5.248L36.388 5.648L48.208 3.2Z" fill="var(--hm-clothes, #FFFFFF)"/>
<path d="M52.792 57.9907C51.508 58.4053 49.8453 59.876 50.9253 61.3C51.524 62.0853 52.4253 62.508 53.2533 63C53.892 63.38 54.06 64.6587 54.308 65.3373C54.9306 67.048 56.144 68.4467 58.128 68.3187C60.1493 68.1853 61.4066 66.464 61.7906 64.6067C62.208 62.5933 61.6573 59.98 61.3226 57.9907H52.792Z" fill="var(--hm-skin, #FFFFFF)"/>
<path d="M19.748 65.2986C18.4053 65.2466 17.112 64.4346 16.5787 63.2346C16.712 61.1013 17.112 58.568 15.3787 56.8346C15.112 55.768 15.912 54.968 16.8453 54.62L20.8453 54.4106L19.748 65.2986Z" fill="var(--hm-skin, #FFFFFF)"/>
<path d="M36.4 5.65601L37.6774 11.2C39.708 10.4867 41.744 9.77201 43.6774 8.82668C44.3734 8.48668 45.072 8.10268 45.576 7.51468C46.172 6.82001 46.4387 5.91468 46.6907 5.03068C47.0694 3.69735 47.4507 2.36401 47.576 0.981348C45.9254 1.10801 44.4 1.86668 42.9227 2.61201C40.9614 3.60001 39 4.59068 36.4 5.65601Z" fill="var(--hm-clothes, #FFFFFF)"/>
<path d="M35 3L34.4733 3.96535C34.4013 4.16802 34.3733 4.38402 34.388 4.59868C34.4787 5.22002 35.2187 5.47602 35.832 5.60535C35.1427 7.26002 34.1467 8.77068 32.8987 10.0574C32.208 9.31602 31.6827 8.43735 31.3573 7.47735C31.032 6.51735 30.916 5.50002 31.0147 4.49202L35 2.5C35.248 2.90667 35.1467 3.12267 35 3Z" fill="var(--hm-clothes, #FFFFFF)"/>
<path d="M51.5413 54.4987C51.3306 55.5187 51.2613 56.5613 51.3333 57.6C51.3306 57.66 51.3386 57.72 51.36 57.776C51.3813 57.832 51.4133 57.884 51.4546 57.928C51.5386 57.9787 51.6373 58.0013 51.7346 57.9907L60.8013 57.9653C60.9386 57.976 61.076 57.9507 61.2013 57.8933C61.4573 57.748 61.4773 57.3933 61.468 57.0933L61.372 54.636L51.5413 54.4987Z" fill="var(--hm-clothes, #FFFFFF)"/>
<path d="M17.6866 51.66C17.2586 52.56 17.172 53.58 17.092 54.5733C18.2266 54.9187 19.4053 55.0987 20.5906 55.1067L21.012 51.9707L17.6866 51.66Z" fill="var(--hm-clothes, #FFFFFF)"/>
<path d="M59.164 19.376C58.7974 19.376 58.468 19.1227 58.384 18.7507C58.192 17.8947 57.8067 16.9507 57.4334 16.0373C57.2294 15.54 57.02 15.0253 56.8454 14.5347C56.008 12.1693 54.796 9.97332 53.2414 8.00665C52.1067 6.57332 50.3294 4.59732 48 3.97199C47.5734 3.85732 47.32 3.41865 47.4347 2.99199C47.5494 2.56532 47.988 2.31199 48.4147 2.42665C51.2027 3.17332 53.2214 5.40265 54.496 7.01332C56.16 9.11865 57.4587 11.468 58.3534 13.9987C58.5147 14.4533 58.7094 14.928 58.9147 15.4307C59.3134 16.4053 59.724 17.4133 59.9454 18.4C60.0414 18.8307 59.7707 19.2587 59.34 19.356C59.2814 19.3693 59.2227 19.376 59.164 19.376Z" fill="var(--hm-stroke, #000000)"/>
<path d="M25.9014 68.5427C25.852 68.5427 25.8014 68.5373 25.7507 68.528L21.224 67.6613C20.6987 67.556 19.8334 67.3813 19.332 66.6693C18.94 66.1107 18.932 65.468 18.956 64.9107C19.0334 63.148 19.2387 61.384 19.436 59.6787L21.052 45.744C22.1507 36.34 23.2854 26.6147 25.496 17.232C25.5974 16.8027 26.028 16.5347 26.4587 16.6373C26.888 16.7387 27.1547 17.1693 27.0534 17.6C24.864 26.8933 23.7347 36.572 22.6414 45.932L21.0254 59.8653C20.8307 61.544 20.6294 63.2787 20.5534 64.9827C20.544 65.1947 20.5267 65.592 20.64 65.752C20.7734 65.9413 21.248 66.0373 21.5307 66.0933L26.0507 66.9587C26.484 67.0413 26.7694 67.4613 26.6854 67.8947C26.612 68.276 26.2774 68.5427 25.9014 68.5427Z" fill="var(--hm-stroke, #000000)"/>
<path d="M40.2627 69.9053C36.2773 69.9053 32.4213 69.5867 28.6453 68.9493C28.2093 68.876 27.916 68.4627 27.9893 68.028C28.0627 67.592 28.4747 67.2973 28.9107 67.372C37.1307 68.7587 45.7587 68.6013 55.288 66.892C55.7227 66.8133 56.1387 67.1027 56.216 67.5387C56.2947 67.9733 56.0053 68.3893 55.5693 68.4667C50.2213 69.4253 45.1453 69.9053 40.2627 69.9053Z" fill="var(--hm-stroke, #000000)"/>
<path d="M61.6253 67.2453C61.284 67.2453 60.968 67.0253 60.8613 66.6827C60.7307 66.26 60.9667 65.812 61.388 65.6813C62.0213 65.4853 62.6893 65.4013 63.3347 65.3213C64.5347 65.172 65.5787 65.0414 66.28 64.2854C66.3067 64.196 66.3187 64.1013 66.316 64.008C65.928 62.1973 64.74 58.876 63.6907 55.9413C62.8933 53.7107 62.1387 51.604 61.7853 50.308C61.6693 49.8813 61.92 49.4413 62.3467 49.3253C62.772 49.2093 63.2133 49.46 63.3293 49.8867C63.668 51.124 64.4107 53.2027 65.1987 55.4027C66.3293 58.564 67.4987 61.8333 67.896 63.74C67.9027 63.7733 67.908 63.8067 67.9107 63.8414C67.9413 64.2427 67.8733 64.6507 67.7147 65.02C67.684 65.0907 67.644 65.156 67.5947 65.2147C66.4893 66.5413 64.92 66.7374 63.5347 66.9094C62.932 66.984 62.3613 67.056 61.864 67.2107C61.784 67.2333 61.704 67.2453 61.6253 67.2453Z" fill="var(--hm-stroke, #000000)"/>
<path d="M57.8814 69.3414C55.944 69.3414 54.3787 68.0747 53.5587 65.8227C53.4854 65.62 53.4227 65.3933 53.3574 65.1533C53.264 64.8133 53.0467 64.0174 52.848 63.9C52.7067 63.816 52.5654 63.7347 52.4227 63.6533C51.7014 63.2413 50.884 62.7733 50.292 61.9947C49.652 61.1547 49.6987 60.3973 49.8507 59.9107C50.1934 58.8173 51.3827 58.0827 52.3827 57.76C52.8027 57.6254 53.2547 57.8547 53.3894 58.276C53.524 58.6973 53.2947 59.148 52.8734 59.2827C52.132 59.5227 51.5027 59.988 51.3774 60.3894C51.3534 60.4654 51.2907 60.6667 51.564 61.0253C51.96 61.5453 52.5707 61.8947 53.216 62.264C53.3667 62.3507 53.5174 62.436 53.6654 62.524C54.4187 62.9707 54.6854 63.9467 54.9 64.7294C54.956 64.936 55.0107 65.132 55.0614 65.2733C55.4934 66.4587 56.3654 67.844 58.08 67.7333C59.2067 67.6587 60.5667 66.812 61.0134 64.6587C61.356 63.0013 61.0454 61.2173 60.7454 59.4907C60.7094 59.2827 60.6734 59.076 60.6387 58.8693C60.5654 58.4333 60.8587 58.0213 61.2947 57.948C61.7307 57.8733 62.1427 58.168 62.216 58.604C62.2507 58.808 62.2854 59.012 62.3214 59.2174C62.6467 61.0907 62.984 63.028 62.58 64.984C62.0627 67.4827 60.3387 69.1893 58.1867 69.3307C58.084 69.3387 57.9814 69.3414 57.8814 69.3414Z" fill="var(--hm-stroke, #000000)"/>
<path d="M19.656 66.0866C19.6467 66.0866 19.6374 66.0866 19.6294 66.0866C18.8267 66.06 18.0494 65.8106 17.3814 65.364C16.7134 64.9186 16.184 64.2973 15.852 63.5666C15.7974 63.4466 15.7734 63.316 15.7814 63.1853C15.7947 62.964 15.812 62.7373 15.8294 62.508C15.968 60.6346 16.1107 58.6973 14.8147 57.4C14.712 57.2973 14.64 57.1693 14.604 57.028C14.272 55.7 15.0614 54.4306 16.568 53.8693C16.9814 53.7146 17.4427 53.9253 17.5974 54.34C17.752 54.7533 17.5414 55.2146 17.1267 55.3693C16.9454 55.4373 16.104 55.788 16.1307 56.4626C17.748 58.26 17.5694 60.6733 17.4254 62.6253C17.4147 62.776 17.4027 62.924 17.3934 63.072C17.6027 63.4586 17.904 63.788 18.2707 64.0333C18.6907 64.3133 19.1787 64.4706 19.684 64.4866C20.1254 64.5013 20.472 64.8706 20.4574 65.3133C20.4414 65.7453 20.0854 66.0866 19.656 66.0866Z" fill="var(--hm-stroke, #000000)"/>
<path d="M37.6827 11.996C37.5494 11.996 37.4147 11.9626 37.2974 11.8986C37.0974 11.7893 36.9494 11.6013 36.8974 11.38L35.62 5.83598C35.532 5.45464 35.7334 5.06531 36.096 4.91598C38.6387 3.87464 40.6 2.88531 42.4974 1.93064L42.5614 1.89864C44.0227 1.16131 45.6787 0.32531 47.5134 0.18531C47.748 0.166643 47.9787 0.25331 48.144 0.42131C48.3094 0.58931 48.392 0.82131 48.3707 1.05464C48.24 2.49731 47.848 3.87731 47.4694 5.21064L47.4574 5.25064C47.2107 6.11731 46.904 7.19464 46.18 8.03731C45.5867 8.72931 44.7947 9.17198 44.0254 9.54664C42.0534 10.5106 39.968 11.244 37.9507 11.952C37.8667 11.9813 37.7747 11.996 37.6827 11.996ZM37.332 6.13464L38.256 10.148C39.9707 9.54131 41.7054 8.89998 43.3254 8.10798C43.8974 7.82798 44.544 7.48798 44.968 6.99464C45.4627 6.41731 45.696 5.60131 45.92 4.81198L45.9307 4.77198C46.2054 3.80398 46.4694 2.87598 46.636 1.93998C45.48 2.21731 44.3654 2.77864 43.28 3.32664L43.2147 3.35998C41.452 4.24931 39.6294 5.16664 37.332 6.13464Z" fill="var(--hm-stroke, #000000)"/>
<path d="M32.8987 10.8573C32.896 10.8573 32.8933 10.8573 32.8907 10.8573C32.672 10.8547 32.4627 10.7627 32.3133 10.6027C31.54 9.77332 30.964 8.80798 30.6 7.73332C30.236 6.65865 30.108 5.54265 30.2187 4.41332C30.244 4.14798 30.4013 3.91332 30.6347 3.78665L34.9373 1.46665C35.2413 1.30265 35.616 1.35198 35.8667 1.58932C36.1173 1.82665 36.188 2.19865 36.0413 2.51065L35.2173 4.26398C35.1947 4.33732 35.184 4.41332 35.184 4.49065C35.2093 4.52665 35.364 4.68932 35.9973 4.82265C36.2307 4.87198 36.4293 5.02265 36.54 5.23332C36.6507 5.44398 36.6627 5.69332 36.5707 5.91332C35.84 7.66798 34.7973 9.24932 33.4733 10.6147C33.3227 10.7693 33.1147 10.8573 32.8987 10.8573ZM31.784 4.98665C31.7587 5.74665 31.8707 6.49598 32.116 7.22132C32.312 7.79998 32.5853 8.33865 32.932 8.83198C33.644 7.99332 34.2467 7.07598 34.7333 6.09065C34.0667 5.78132 33.6853 5.31998 33.596 4.71465C33.5933 4.69465 33.5907 4.67598 33.5893 4.65598C33.5733 4.42932 33.5893 4.20532 33.636 3.98532L31.784 4.98665Z" fill="var(--hm-stroke, #000000)"/>
<path d="M21.0733 52.68C21.0413 52.68 21.008 52.6787 20.976 52.6747C20.3067 52.5933 19.6933 52.5107 19.1013 52.4307C18.4933 52.3493 17.864 52.264 17.18 52.1813C16.7507 52.1293 16.44 51.7453 16.48 51.3147C17.04 45.132 17.768 38.8827 18.6453 32.74C19.3867 27.5333 20.2947 21.9867 21.904 16.7C23.8173 10.4387 26.4347 6.57867 30.1427 4.55067C30.5307 4.33867 31.016 4.48134 31.228 4.86934C31.44 5.25734 31.2973 5.74267 30.9093 5.95467C27.592 7.76934 25.216 11.332 23.4333 17.1667C21.856 22.3493 20.96 27.8227 20.228 32.9653C19.3907 38.8267 18.6907 44.7853 18.1427 50.688C18.548 50.74 18.9347 50.792 19.3147 50.844C19.9027 50.9227 20.5093 51.0053 21.1693 51.0853C21.608 51.1387 21.92 51.5373 21.8667 51.976C21.816 52.3827 21.472 52.68 21.0733 52.68Z" fill="var(--hm-stroke, #000000)"/>
<path d="M34.1134 69.668C33.7134 69.668 33.368 69.3693 33.32 68.9627C31.8867 56.9187 32.6654 44.6667 33.4174 32.8173L35.0974 6.34932C35.1254 5.90799 35.5067 5.57732 35.9467 5.60132C36.388 5.62932 36.7227 6.00933 36.6947 6.45066L35.0147 32.9187C34.2667 44.696 33.4934 56.8747 34.9094 68.7733C34.9614 69.212 34.648 69.6106 34.2094 69.6626C34.1774 69.6666 34.1454 69.668 34.1134 69.668Z" fill="var(--hm-stroke, #000000)"/>
<path d="M62.4827 55.376C62.4787 55.376 62.4734 55.376 62.4694 55.376L50.8614 55.1853C50.4654 55.1786 50.1334 54.8826 50.0814 54.4893C48.5014 42.4586 47.9494 30.2106 48.4414 18.0866C48.4587 17.6453 48.8307 17.304 49.2734 17.32C49.7147 17.3373 50.0587 17.7106 50.04 18.152C49.5614 29.956 50.0787 41.8773 51.5787 53.5973L61.6734 53.7626C61.668 53.2773 61.664 52.7933 61.6587 52.3106C61.5547 41.604 61.456 31.492 59.0187 20.984C58.9187 20.5533 59.1867 20.124 59.6174 20.024C60.048 19.924 60.4774 20.192 60.5774 20.6226C63.0547 31.3013 63.1534 41.4986 63.2587 52.296C63.2654 53.0506 63.2734 53.8066 63.2814 54.568C63.284 54.784 63.1987 54.992 63.0454 55.144C62.8974 55.292 62.6934 55.376 62.4827 55.376Z" fill="var(--hm-stroke, #000000)"/>
<path d="M51.6893 58.7933C51.4613 58.7933 51.2347 58.7306 51.0387 58.612C50.9787 58.576 50.924 58.532 50.876 58.4813C50.7587 58.3586 50.6693 58.2146 50.6093 58.0546C50.5573 57.9146 50.532 57.768 50.532 57.6186C50.4587 56.52 50.5347 55.416 50.7573 54.3386C50.8467 53.9053 51.2693 53.6266 51.7027 53.7173C52.136 53.8066 52.4133 54.2293 52.324 54.6626C52.152 55.4946 52.0813 56.344 52.112 57.192L60.6693 57.168C60.6693 57.1533 60.6693 57.1373 60.668 57.12L60.572 54.6666C60.5547 54.2253 60.8987 53.8533 61.34 53.836C61.784 53.816 62.1533 54.1626 62.1707 54.604L62.2667 57.0613C62.276 57.344 62.3013 58.188 61.596 58.588C61.576 58.5986 61.556 58.6093 61.5347 58.6186C61.2987 58.728 61.0373 58.7773 60.7773 58.764L51.7667 58.7893C51.7413 58.792 51.7147 58.7933 51.6893 58.7933Z" fill="var(--hm-stroke, #000000)"/>
<path d="M20.5907 55.9067H20.5854C19.3214 55.8987 18.068 55.7067 16.8587 55.3387C16.4987 55.2293 16.264 54.884 16.2947 54.5093C16.376 53.5027 16.468 52.3613 16.964 51.316C17.1534 50.9173 17.6307 50.748 18.0307 50.9373C18.4294 51.1267 18.5987 51.604 18.4094 52.004C18.128 52.596 18.016 53.2827 17.9467 53.9787C18.8134 54.1907 19.7027 54.3013 20.596 54.3067C21.0374 54.3093 21.3934 54.6707 21.3907 55.112C21.388 55.552 21.0294 55.9067 20.5907 55.9067Z" fill="var(--hm-stroke, #000000)"/>
</g><g data-hm-layer-slot="head" data-hm-part-id="hm1-p-000007" data-hm-selection-slot="head" data-hm-source-group-id="head" data-hm-source-part-id="007" transform="translate(0, -0.5)">
<path d="M50.056 36.8C49.9413 36.0533 49.2279 35.564 48.5586 35.2147C47.8893 34.8653 47.1413 34.5067 46.8333 33.816C46.2573 32.5267 47.5746 30.9573 46.9919 29.6707C46.7319 29.096 46.1333 28.7373 45.5173 28.5947C44.9013 28.452 44.2613 28.5133 43.6319 28.5693L41.9773 27.7053C40.8693 25.936 38.4506 25.372 36.4119 25.828C34.3733 26.284 32.6239 27.548 30.9333 28.7773L25.6386 32.6373C24.7773 33.2653 23.56 33.8947 22.7373 33.216C21.5106 32.2053 23.004 29.8933 21.952 28.7067C21.7 28.424 21.34 28.264 21.052 28.0173C20.252 27.3267 20.152 26.1187 20.264 25.064C20.6973 20.9933 23.3866 17.2987 27.0013 15.3773C30.6159 13.456 35.0413 13.264 38.9159 14.5773C41.1399 15.3347 43.4253 16.8947 43.7026 19.2267L45.1813 19.708C46.9973 18.108 49.7693 18.4653 52.1013 19.096C53.7746 19.548 55.4413 20.1067 56.9013 21.0387C58.3613 21.9707 59.6133 23.3173 60.156 24.964C60.4906 25.9773 60.5559 27.0973 61.1386 27.996C61.5159 28.58 62.0786 29.02 62.4933 29.5773C63.684 31.1773 63.3093 33.7213 61.7066 34.9107C60.9319 35.4853 59.8933 35.8147 59.4613 36.6787C59.0999 37.4027 59.2653 38.344 58.768 38.9813C58.044 39.908 56.368 39.6387 55.7346 40.6293C55.56 40.9027 55.4946 41.24 55.2879 41.4893C55.0813 41.7387 54.6213 41.8347 54.4626 41.5547L50.5506 41.7333L50.056 36.8Z" fill="var(--hm-hair, #000000)"/>
<path d="M25.1747 33.6693C24.3147 35.8813 23.7974 37.8786 23.6667 39.088C23.3374 42.1333 23.952 45.5173 26.2814 47.6866C27.5227 48.8413 29.06 49.4093 30.704 49.6986C32.4187 50.0013 34.2587 50.2773 35.9227 49.5973C35.8347 50.9853 35.8214 51.8426 35.8854 53.232L45.2667 52.2666C45.1147 50.4413 45.472 48.932 46.2667 47.2813C46.4467 46.908 46.8334 46.912 47.216 46.7906C47.556 46.684 47.8894 46.5613 48.2187 46.4226C48.8867 46.1453 49.5187 45.7866 50.0987 45.356C51.248 44.488 52.144 43.2693 52.48 41.856C52.7854 40.5746 52.5707 39.0493 51.1467 38.328C50.1427 37.8213 49.2427 38.0013 47.7134 39.3453L50.068 36.812C49.9534 36.0653 49.24 35.576 48.5707 35.2266C47.9014 34.8773 47.1534 34.5186 46.8454 33.828C46.2694 32.5386 47.5867 30.9693 47.004 29.6826C46.744 29.108 46.1454 28.7493 45.5294 28.6066C44.9134 28.464 44.2734 28.5253 43.644 28.5813L41.9894 27.7173C40.8814 25.948 38.4627 25.384 36.424 25.84C34.3854 26.296 32.624 27.548 30.9334 28.7773L25.6387 32.6373" fill="var(--hm-skin, #FFFFFF)"/>
<path d="M23.5774 34.3133C22.988 34.3133 22.5454 34.096 22.228 33.8333C21.264 33.0386 21.3907 31.8333 21.492 30.864C21.5627 30.188 21.6294 29.548 21.3534 29.2373C21.2747 29.1493 21.1347 29.056 20.9867 28.9573C20.8467 28.864 20.6867 28.7573 20.532 28.6253C19.6627 27.8746 19.296 26.6146 19.4694 24.98C19.9227 20.728 22.664 16.7773 26.6267 14.672C30.2987 12.72 34.988 12.4026 39.1734 13.8213C42.236 14.864 44.2254 16.8506 44.4974 19.1333C44.5494 19.572 44.236 19.9706 43.7974 20.0226C43.3587 20.0746 42.9614 19.7613 42.908 19.3226C42.616 16.8666 39.5814 15.6506 38.6574 15.336C34.8827 14.0573 30.6654 14.3373 27.376 16.0853C23.876 17.9453 21.456 21.4186 21.0587 25.1506C20.9787 25.9106 21.0014 26.92 21.5734 27.4133C21.652 27.48 21.7587 27.552 21.8707 27.6266C22.0854 27.7693 22.3307 27.932 22.5467 28.176C23.292 29.016 23.1747 30.1346 23.0814 31.032C22.996 31.8533 22.964 32.3693 23.244 32.6C23.7174 32.9906 24.8347 32.2333 25.1654 31.992L30.46 28.132C32.124 26.9226 34.008 25.552 36.2347 25.0533C38.976 24.44 41.2174 25.1573 42.384 27.02C42.6187 27.3946 42.5054 27.888 42.1307 28.1226C41.756 28.3573 41.2627 28.244 41.028 27.8693C39.9134 26.0893 37.548 26.3986 36.584 26.6146C34.6814 27.04 33.0134 28.252 31.4014 29.4253L26.108 33.2853C25.0627 34.048 24.2294 34.3133 23.5774 34.3133Z" fill="var(--hm-stroke, #000000)"/>
<path d="M54.788 42.5306C54.7494 42.5306 54.712 42.5293 54.6747 42.5253C54.2854 42.4906 53.956 42.2826 53.7694 41.9546C53.552 41.5706 53.6867 41.0826 54.0707 40.864C54.2907 40.7386 54.5467 40.7306 54.764 40.8186C54.78 40.7813 54.7974 40.7413 54.8147 40.7026C54.8787 40.552 54.9507 40.38 55.0627 40.2053C55.5507 39.4426 56.3814 39.2 57.048 39.0053C57.5107 38.8706 57.948 38.7426 58.14 38.496C58.2907 38.304 58.3414 37.9786 58.4014 37.6013C58.464 37.2066 58.5334 36.7586 58.748 36.328C59.1534 35.5173 59.888 35.0906 60.536 34.7133C60.7894 34.5666 61.028 34.4266 61.2334 34.2746C61.828 33.8333 62.2387 33.1093 62.36 32.288C62.4814 31.4666 62.2974 30.6546 61.856 30.0613C61.7 29.852 61.508 29.6493 61.304 29.436C61.0174 29.1346 60.72 28.8226 60.4707 28.436C60.0107 27.7266 59.832 26.956 59.66 26.2106C59.5787 25.8613 59.5027 25.532 59.4 25.2213C58.96 23.8866 57.9214 22.6426 56.4747 21.72C55.02 20.7906 53.344 20.2666 51.896 19.8746C49.1174 19.1226 47.3814 19.2866 46.092 20.424C45.76 20.716 45.2547 20.684 44.9627 20.352C44.6707 20.02 44.7027 19.5146 45.0347 19.2226C47.2374 17.2826 50.0814 17.7266 52.3134 18.3293C53.8774 18.752 55.6974 19.3253 57.3347 20.3706C59.0907 21.492 60.364 23.036 60.9187 24.72C61.044 25.1 61.132 25.4813 61.2174 25.8506C61.3654 26.4893 61.5054 27.0933 61.812 27.5666C61.9814 27.828 62.2147 28.0733 62.4614 28.3333C62.688 28.572 62.924 28.8186 63.1374 29.1066C63.8307 30.0386 64.124 31.2826 63.9414 32.5213C63.7587 33.76 63.1187 34.868 62.1854 35.56C61.9094 35.7653 61.62 35.9333 61.34 36.096C60.82 36.3986 60.3694 36.6613 60.1787 37.0426C60.0747 37.2506 60.0294 37.5413 59.98 37.8493C59.8987 38.3693 59.8054 38.96 59.4 39.48C58.8894 40.1333 58.1494 40.3493 57.496 40.54C57.0014 40.684 56.5747 40.8093 56.4107 41.0666C56.372 41.128 56.3307 41.224 56.288 41.3266C56.204 41.5266 56.0987 41.7746 55.9067 42.0066C55.636 42.332 55.2067 42.5306 54.788 42.5306Z" fill="var(--hm-stroke, #000000)"/>
<path d="M50.0547 37.6C49.6667 37.6 49.3254 37.3173 49.2654 36.9213C49.216 36.6026 48.864 36.276 48.188 35.924L48.0827 35.8693C47.3814 35.5053 46.508 35.052 46.1027 34.1426C45.7014 33.244 45.9347 32.3426 46.14 31.5466C46.3 30.9253 46.4387 30.3893 46.264 30.0013C46.136 29.7173 45.78 29.4773 45.3374 29.3746C44.8587 29.264 44.3174 29.312 43.744 29.3626L43.704 29.3666C43.2627 29.4066 42.876 29.0813 42.836 28.6413C42.7974 28.2013 43.1214 27.8133 43.5614 27.7733L43.6014 27.7693C44.2427 27.712 44.9707 27.6466 45.6974 27.816C46.644 28.0346 47.3814 28.5906 47.72 29.3413C48.128 30.2426 47.8947 31.148 47.688 31.9466C47.5347 32.5413 47.3894 33.1026 47.5627 33.4906C47.7414 33.8893 48.2894 34.1746 48.8187 34.4493L48.9267 34.5053C49.6667 34.8906 50.6694 35.536 50.844 36.6786C50.9107 37.116 50.612 37.524 50.1747 37.5906C50.136 37.5973 50.096 37.6 50.0547 37.6Z" fill="var(--hm-stroke, #000000)"/>
<path d="M45.2787 52.3186C44.8681 52.3186 44.5174 52.004 44.4827 51.5853C44.3134 49.5773 44.7041 48.6586 45.5334 46.9306C45.8374 46.3 46.4121 46.1613 46.7561 46.0786C46.8307 46.06 46.9014 46.044 46.9627 46.024C47.2801 45.924 47.5934 45.8093 47.8961 45.6813C48.5081 45.428 49.0827 45.1013 49.6107 44.7093C50.6747 43.9053 51.4161 42.824 51.6907 41.6666C51.8321 41.084 52.0241 39.668 50.7747 39.0373C50.2294 38.7613 49.6947 38.6533 48.2294 39.9413C47.8974 40.2333 47.3921 40.2 47.1001 39.868C46.8081 39.536 46.8414 39.0306 47.1734 38.7386C49.2774 36.8893 50.4934 37.1026 51.4947 37.608C53.0467 38.392 53.7174 40.0893 53.2454 42.0386C52.8854 43.5533 51.9347 44.9573 50.5694 45.988C49.9321 46.4613 49.2414 46.8533 48.5134 47.1546C48.1681 47.3 47.8067 47.4333 47.4427 47.5466C47.3321 47.5813 47.2254 47.608 47.1321 47.6306C47.0734 47.6453 46.9974 47.6626 46.9481 47.6786C46.1814 49.2786 45.9441 49.88 46.0774 51.448C46.1147 51.888 45.7881 52.2746 45.3481 52.312C45.3241 52.3173 45.3014 52.3186 45.2787 52.3186Z" fill="var(--hm-stroke, #000000)"/>
<path d="M35.8854 53.4986C35.4601 53.4986 35.1067 53.164 35.0867 52.7346C35.0441 51.796 35.0347 51.324 35.0614 50.68C33.4587 50.9893 31.8267 50.7053 30.5681 50.4853C28.5347 50.1266 26.9547 49.4026 25.7374 48.2706C23.5001 46.1866 22.4561 42.808 22.8721 38.9986C23.0281 37.5866 23.6094 35.4853 24.4294 33.3773C24.5894 32.9653 25.0534 32.7613 25.4654 32.9213C25.8774 33.0813 26.0814 33.5453 25.9214 33.9573C25.0121 36.296 24.5721 38.1853 24.4627 39.1733C24.1014 42.4733 24.9627 45.3626 26.8281 47.0986C27.8254 48.0266 29.1014 48.6013 30.8441 48.908C32.6254 49.2186 34.2161 49.428 35.6214 48.8533C35.8761 48.7493 36.1667 48.784 36.3907 48.944C36.6147 49.1053 36.7401 49.3693 36.7227 49.644C36.6374 50.9853 36.6227 51.2813 36.6867 52.6573C36.7067 53.0986 36.3654 53.4733 35.9241 53.4933C35.9094 53.4986 35.8974 53.4986 35.8854 53.4986Z" fill="var(--hm-stroke, #000000)"/>
<path d="M29.124 37.3467C29.6395 37.3467 30.0573 36.8393 30.0573 36.2134C30.0573 35.5874 29.6395 35.08 29.124 35.08C28.6085 35.08 28.1907 35.5874 28.1907 36.2134C28.1907 36.8393 28.6085 37.3467 29.124 37.3467Z" fill="var(--hm-stroke, #000000)"/>
<path d="M33.6573 37.66C34.1728 37.66 34.5907 37.1526 34.5907 36.5266C34.5907 35.9007 34.1728 35.3933 33.6573 35.3933C33.1419 35.3933 32.724 35.9007 32.724 36.5266C32.724 37.1526 33.1419 37.66 33.6573 37.66Z" fill="var(--hm-stroke, #000000)"/>
</g><g data-hm-layer-slot="item" data-hm-part-id="hm1-p-000041" data-hm-selection-slot="item" data-hm-source-group-id="item" data-hm-source-part-id="000" transform="translate(0, 0)">
</g><g data-hm-layer-slot="glasses" data-hm-part-id="hm1-p-000056" data-hm-selection-slot="glasses" data-hm-source-group-id="glasses" data-hm-source-part-id="000" transform="translate(0, 0)"></g></svg>