<svg xmlns="http://www.w3.org/2000/svg" width="88" height="88" viewBox="-4 -4.5 88 88" style="--hm-bottom:#3C4650;--hm-clothes:#E7DFD2;--hm-hair:#B9B7AE;--hm-skin:#EDD0B5;--hm-stroke:#1A1A1A"><g data-hm-layer-slot="bottom" data-hm-part-id="hm1-p-000034" data-hm-selection-slot="bottom" data-hm-source-group-id="bottom" data-hm-source-part-id="002" transform="translate(0, 85)">
<path d="M42.4747 86.5941C42.6547 88.5216 42.4067 89.7565 41.7213 91.8626C40.8613 94.678 35.7213 97.1902 38.9213 100.344C39.0547 100.472 41.448 102.303 45.588 101.115C45.888 100.963 46.2 100.834 46.5213 100.729C46.9747 100.517 47.396 100.245 47.772 99.9208C50 98.1026 51.444 95.5493 51.8213 92.7595C52.1067 90.7279 52.3453 88.2813 52.1747 86.5414" fill="#000000"/>
<path d="M29.6 84.1115C29.5907 84.4186 29.5907 84.8041 29.4573 85.0611C29.324 85.3181 29.1907 85.7036 29.0573 85.9606C27.324 88.1451 25.0573 89.4301 22.924 91.2291C21.5907 92.3856 20.3907 94.5701 21.9907 95.9836C25.104 97.347 30.044 96.5297 31.0573 96.1121C31.9907 95.7266 32.924 95.4696 33.724 94.9556C37.4573 92.3856 37.1907 87.7596 37.484 83.9342" fill="#000000"/>
<path d="M40.3173 83.284C40.388 84.2863 40.5213 85.1858 40.5213 86.2138C44.9213 86.4708 49.4547 86.5993 53.8547 86.3423C55.7493 86.1907 57.6013 85.7126 59.3213 84.9288C61.3213 72.2073 61.4547 59.2288 60.2547 46.2503C60.2547 45.8648 60.388 45.3508 60.2547 44.9653C60.1213 44.3228 60.1213 43.8088 59.988 43.1663V41.8813C58.6547 29.9308 56.788 18.3658 54.388 6.80078C45.0547 7.05778 35.8547 7.57178 26.5213 7.82878C22.396 25.9164 20.9147 44.4718 22.1213 62.9553C22.0987 63.5579 22.144 64.1606 22.2547 64.7543C22.5053 68.351 23.0867 71.9207 23.988 75.4198C24.2547 76.3193 24.5213 77.3473 24.9213 78.2468C25.588 79.9173 26.5213 81.5878 27.188 83.2583C29.7213 83.9008 32.388 84.0293 35.0547 83.9008C36.5213 83.7723 38.1213 83.7723 39.652 83.4112L40.3173 83.284Z" fill="var(--hm-bottom, #000000)"/>
<path fill-rule="evenodd" clip-rule="evenodd" d="M53.652 6.93697C58.5343 31.8015 62.5105 58.3871 58.6353 84.4018C55.9709 85.5462 52.8479 85.6789 50.1173 85.71C47.1947 85.7409 44.2387 85.6689 41.32 85.4967C41.056 82.5502 40.776 79.5793 40.504 76.6996C39.2947 63.8881 38.0453 50.6411 38.104 37.6536C38.1267 33.0854 37.64 28.5738 33.9667 26.5049C33.5853 26.2903 33.0947 26.4137 32.872 26.7812C32.648 27.1487 32.7773 27.6216 33.1587 27.8362C36.132 29.5105 36.524 33.5403 36.504 37.6459C36.4453 50.7055 37.6984 63.9886 38.9103 76.835L39.0031 77.8223C39.1531 79.418 39.3053 81.037 39.4551 82.6598C35.601 83.261 31.6975 83.2729 27.8427 82.6954C23.6507 74.7117 22.9867 66.7511 22.696 59.9008C21.9613 42.5019 23.4893 25.0413 27.2373 8.00607C27.3293 7.58973 27.0533 7.1811 26.6213 7.09243C26.1893 7.00377 25.7653 7.26976 25.6733 7.6861C21.8973 24.8473 20.3587 42.4364 21.0973 59.9638C21.3987 67.0788 22.0987 75.3696 26.6053 83.7504C26.7213 83.9663 26.936 84.1166 27.184 84.1565C27.718 84.2418 28.2528 84.3164 28.7883 84.3802C28.7812 84.5168 28.7678 84.6578 28.74 84.7154C28.6648 84.8616 28.5964 85.0254 28.5296 85.1854L28.5133 85.2243C28.4653 85.3412 28.4146 85.4607 28.3707 85.5545C27.2654 86.9268 25.9241 87.9343 24.5042 89.0007L24.472 89.0249C23.7913 89.5366 23.0864 90.0664 22.388 90.656C21.4427 91.4758 20.4306 92.87 20.424 94.3247C20.42 95.1856 20.7746 95.9553 21.4493 96.5516C21.5106 96.6068 21.5813 96.6518 21.6587 96.6852C23.076 97.3059 24.7933 97.5166 26.4 97.5166C28.6547 97.5166 30.6906 97.1015 31.372 96.8227C31.6333 96.7148 31.9053 96.6133 32.168 96.5156L32.1764 96.5125C32.8431 96.2641 33.532 96.0076 34.1666 95.5994C34.171 95.5961 34.1759 95.5933 34.1806 95.5903C34.1831 95.5887 34.1856 95.5871 34.188 95.5852C37.7541 93.1309 37.9837 89.0706 38.1863 85.4881L38.1939 85.3538C38.2127 85.0208 38.2309 84.6994 38.252 84.3829C38.7007 84.3295 39.1488 84.2684 39.5962 84.1995C39.6597 84.8967 39.7224 85.5935 39.784 86.2883C39.8187 86.6686 40.1333 86.9667 40.528 86.9924C40.9214 87.018 41.3155 87.0417 41.7102 87.0635C41.8122 88.6797 41.5596 89.7857 40.9587 91.6313C40.9573 91.6352 40.956 91.6403 40.9547 91.6442C40.7093 92.446 39.968 93.3185 39.2507 94.1615L39.2429 94.1706C38.4453 95.1097 37.6215 96.0796 37.2653 97.1543C36.8253 98.4842 37.1893 99.7397 38.356 100.888C38.3747 100.908 39.9707 102.287 42.888 102.287C43.7507 102.287 44.7293 102.166 45.8173 101.852C45.8666 101.838 45.9147 101.819 45.96 101.796C46.2227 101.663 46.4973 101.549 46.7786 101.458C46.8093 101.447 46.8413 101.436 46.8706 101.422C47.388 101.18 47.868 100.87 48.2973 100.502C50.6786 98.5562 52.212 95.8423 52.6146 92.8624C52.9449 90.5153 53.0803 88.5996 53.019 87.1526C55.215 87.0045 57.4957 86.6365 59.572 85.6843C59.6528 85.6471 59.7241 85.5985 59.785 85.5415C59.9827 85.4264 60.1271 85.2302 60.1627 84.993C64.1653 58.6351 60.1546 31.7632 55.224 6.65041C55.1427 6.2315 54.724 5.9578 54.2893 6.03619C53.8547 6.11586 53.5693 6.51806 53.652 6.93697ZM36.6379 84.5419C35.6038 84.6226 34.5679 84.6628 33.532 84.6628C32.4808 84.6628 31.43 84.6211 30.3809 84.5381C30.3615 84.8218 30.313 85.1285 30.1693 85.4055C30.1211 85.4985 30.0648 85.6324 30.009 85.7652L29.996 85.7961L29.9797 85.835C29.9129 85.995 29.8445 86.1588 29.7693 86.305C29.7466 86.3487 29.72 86.3898 29.6893 86.4283C28.4493 87.9909 26.9427 89.123 25.4853 90.2178L25.4427 90.2498C24.7826 90.7461 24.1006 91.2589 23.448 91.8099C22.7453 92.419 22.0267 93.4406 22.0227 94.3324C22.0213 94.7217 22.1587 95.0507 22.4427 95.3347C25.32 96.5156 29.9227 95.7407 30.7413 95.4041C31.0108 95.2922 31.278 95.1928 31.5373 95.0962L31.5906 95.0764C32.2013 94.8489 32.78 94.6331 33.268 94.3221C36.2 92.2956 36.3973 88.7889 36.588 85.3978C36.6037 85.1155 36.6199 84.8279 36.6379 84.5419ZM43.3165 87.1422C43.4025 88.8924 43.1031 90.1922 42.4867 92.0875C42.1498 93.1845 41.3066 94.1764 40.4918 95.1349L40.488 95.1394C38.68 97.2661 38.0347 98.3519 39.4747 99.7859C39.62 99.8965 41.696 101.4 45.2893 100.396C45.588 100.25 45.8986 100.123 46.2146 100.016C46.5853 99.8386 46.9307 99.6125 47.2387 99.3465C47.2413 99.3439 47.244 99.3417 47.2467 99.3394C47.2493 99.3372 47.252 99.3349 47.2547 99.3323C49.3347 97.6349 50.6746 95.2653 51.028 92.6593C51.3412 90.4322 51.4738 88.5743 51.4197 87.2273C50.9845 87.2399 50.5558 87.2471 50.136 87.252C49.684 87.2559 49.2307 87.2584 48.7773 87.2584C46.9599 87.2584 45.1344 87.2197 43.3165 87.1422Z" fill="var(--hm-stroke, #000000)"/>
</g><g data-hm-layer-slot="body" data-hm-part-id="hm1-p-000028" data-hm-selection-slot="body" data-hm-source-group-id="body" data-hm-source-part-id="004" transform="translate(0, 51)">
<path d="M45.2493 0C45.3693 1.34667 45.92 4.38933 47.9693 3.93333L48.1893 4.26667C48.0893 6.356 47.0306 7.82933 45.372 9.356C43.6866 10.8827 41.5373 11.8 39.2693 11.9613C37.2693 12.108 35.1426 11.6293 33.6466 10.288C32.1506 8.94667 31.364 7.088 32.3546 5.49467H32.4986C32.9493 5.508 33.364 5.272 33.7453 5.032C34.2306 4.72533 34.644 3.348 34.944 2.98667C35.344 2.468 36.0933 0.621333 36.2986 0H45.2493V0Z" fill="var(--hm-skin, #FFFFFF)"/>
<path d="M58.9773 37.1813C61.9307 46.3253 63.9853 53.3387 66.684 62.164C66.8173 62.6147 67.3507 64.208 67.104 64.6067C66.9387 64.8733 66.6613 65.044 66.3907 65.1973C64.9107 66.0387 63.2947 66.1093 61.6253 66.4453L55.4293 67.6787C46.5613 69.2693 37.6613 69.6587 28.7773 68.16L27.1013 67.964L21.368 66.8667C20.8507 66.768 20.2827 66.636 19.98 66.2C19.7294 65.8427 19.7307 65.372 19.7493 64.936C19.8253 63.2027 20.0253 61.4827 20.2253 59.7613L21.8027 46.1613C22.4787 40.3347 23.156 34.4987 24.0773 28.708L24.0133 28.688C22.4627 28.1547 20.936 27.5627 19.408 26.9693C19.1973 26.9093 19.008 26.792 18.8587 26.632C18.5587 26.2453 18.816 25.6907 19.0733 25.2733C21.3453 21.58 23.288 17.6947 24.8813 13.6613C26.0973 10.5813 27.3667 7.116 30.3347 5.648L36.5373 6.356L48.208 3.2C50.2493 3.74667 51.924 5.21067 53.2987 6.81733C55.036 8.848 56.4133 11.1613 57.3733 13.656C59.4973 19.18 59.4987 25.4067 62.06 30.7427C60.8453 31.1027 59.612 31.392 58.3653 31.612L58.9773 37.1813Z" fill="var(--hm-clothes, #FFFFFF)"/>
<path d="M36.2067 7.13202C36.3067 8.50402 36.6813 9.84135 37.3067 11.0667C37.36 11.1947 37.4467 11.3054 37.5573 11.388C37.7533 11.508 38.008 11.4347 38.224 11.356C40.1747 10.648 42.0627 9.77602 43.8667 8.75069C44.7867 8.22802 45.7173 7.63335 46.2667 6.73069C46.7867 5.87869 46.9107 4.85202 47.0227 3.86135L47.2613 1.74535C47.284 1.63735 47.2733 1.52535 47.2293 1.42535C47.112 1.22269 46.8093 1.26935 46.588 1.34402C43.0133 2.55869 39.5773 4.19069 36.2067 7.13202Z" fill="var(--hm-clothes, #FFFFFF)"/>
<path d="M35.0667 2.12C34.6787 2.82933 34.2787 3.59466 34.348 4.4C34.4174 5.20533 35.1787 6 35.9587 5.78933C36.004 6.74533 35.3294 7.56533 34.6947 8.28133L33.044 10.148C32.9827 10.2307 32.9 10.2947 32.804 10.332C32.5747 10.3973 32.3827 10.1547 32.2707 9.94266C31.572 8.624 31.0547 7.21733 30.7334 5.76C30.66 5.55733 30.652 5.33733 30.708 5.12933C30.7654 4.92133 30.884 4.736 31.0507 4.59866C31.8987 3.63333 32.8854 2.79733 33.8987 2.00666C34.1454 1.81333 34.432 1.60666 34.7414 1.64666C35.0507 1.68666 35.3 2.104 35.0667 2.12Z" fill="var(--hm-clothes, #FFFFFF)"/>
<path d="M51.8413 32.2413C52.0893 40.948 52.7493 49.6293 53.8226 58.2867C52.9413 58.3413 52.028 58.5533 51.36 59.1293C50.692 59.7053 50.3533 60.7293 50.768 61.512C51.3293 62.5667 52.8693 62.6893 53.5893 63.6453C54.0613 64.2707 54.0813 65.112 54.3213 65.8627C54.536 66.5307 54.932 67.124 55.4653 67.5787C55.9986 68.0333 56.648 68.3307 57.3413 68.4373C58.0346 68.544 58.7426 68.4547 59.388 68.1813C60.0333 67.908 60.5893 67.4587 60.9946 66.8867C62.0506 65.3947 61.8933 63.3947 61.692 61.5787C60.6026 51.7267 59.512 41.8787 58.4226 32.036L51.8413 32.2413Z" fill="var(--hm-skin, #FFFFFF)"/>
<path d="M20.2307 59.7667C20.0307 61.488 19.8307 63.2107 19.7547 64.9413L19.6547 65.2867C18.6294 65.1027 17.5014 64.7987 16.9574 63.9107C16.0734 62.468 17.2907 60.5147 16.6907 58.932C16.2747 57.824 14.996 56.852 15.4294 55.7507C15.7907 54.8333 17.052 54.7267 17.7934 54.0773C18.5347 53.428 18.652 52.372 18.7334 51.4107L20.7187 27.7747L20.7734 27.508C21.848 27.9213 22.9254 28.3253 24.0147 28.6987L24.076 28.7347C23.156 34.5213 22.476 40.352 21.8094 46.172" fill="var(--hm-skin, #FFFFFF)"/>
<path d="M52.5173 32.932C50.904 32.932 49.2853 32.8187 47.6653 32.5907C47.2613 32.5333 46.9653 32.1827 46.9773 31.776L47.3413 19C47.3533 18.5587 47.7213 18.2067 48.164 18.2227C48.6053 18.2347 48.9533 18.604 48.9413 19.0453L48.5973 31.0987C52.756 31.5947 56.904 31.3013 60.9493 30.2253C59.7707 27.4533 59.1787 24.4813 58.604 21.5973C58.0933 19.032 57.5653 16.3813 56.628 13.9453C55.6987 11.5293 54.3747 9.30666 52.692 7.33999C51.1173 5.49999 49.5827 4.39866 48.0027 3.97599C47.576 3.86133 47.3227 3.42266 47.4373 2.99599C47.552 2.56933 47.9907 2.31599 48.4173 2.43066C50.32 2.93999 52.1173 4.20666 53.9093 6.30133C55.7107 8.40666 57.128 10.7867 58.1227 13.3733C59.108 15.9373 59.6507 18.6573 60.1747 21.288C60.8187 24.5187 61.4253 27.5707 62.784 30.4013C62.8853 30.6133 62.8893 30.8573 62.7933 31.072C62.6973 31.2867 62.5133 31.448 62.2893 31.5147C59.0827 32.456 55.812 32.932 52.5173 32.932Z" fill="var(--hm-stroke, #000000)"/>
<path d="M24.0187 29.4973C23.932 29.4973 23.8453 29.4827 23.7587 29.4533C22.204 28.92 20.6547 28.3187 19.156 27.736L19.1533 27.7347C18.8187 27.6307 18.516 27.4413 18.2773 27.184C18.2613 27.1667 18.2467 27.1493 18.232 27.1307C17.776 26.5427 17.832 25.78 18.3973 24.8613C20.6373 21.2187 22.5707 17.3533 24.1427 13.3747L24.2813 13.0213C25.4867 9.95734 26.8533 6.48534 29.9853 4.93734C30.3813 4.74134 30.8613 4.90401 31.0573 5.30001C31.2533 5.69601 31.0907 6.17601 30.6947 6.37201C28.1173 7.64534 26.924 10.676 25.7707 13.6067L25.6307 13.9613C24.0253 18.0267 22.0493 21.976 19.76 25.6987C19.608 25.9453 19.556 26.0907 19.5387 26.1653C19.568 26.1827 19.6 26.1973 19.6347 26.2067C19.6587 26.2133 19.6813 26.2213 19.704 26.2293L19.736 26.2413C21.22 26.8173 22.7547 27.4133 24.2787 27.936C24.696 28.08 24.9187 28.5347 24.776 28.952C24.6613 29.2893 24.3507 29.4973 24.0187 29.4973Z" fill="var(--hm-stroke, #000000)"/>
<path d="M26.0227 68.5654C25.9733 68.5654 25.9227 68.56 25.872 68.5507L21.2227 67.6614C20.6973 67.556 19.832 67.3814 19.3307 66.6694C18.9387 66.1107 18.9307 65.468 18.9547 64.9107C19.032 63.148 19.2373 61.384 19.4347 59.6787L21.0507 45.744C22.1493 36.34 23.284 26.6147 25.4947 17.232C25.596 16.8027 26.0253 16.5347 26.4573 16.6374C26.8867 16.7387 27.1533 17.1694 27.052 17.6C24.8627 26.8934 23.7333 36.572 22.64 45.932L21.024 59.8654C20.8293 61.544 20.628 63.2787 20.552 64.9827C20.5427 65.1947 20.5253 65.592 20.6387 65.752C20.772 65.9414 21.2467 66.0374 21.5293 66.0934L26.1707 66.9814C26.604 67.064 26.8893 67.484 26.8053 67.9174C26.7347 68.2987 26.4 68.5654 26.0227 68.5654Z" fill="var(--hm-stroke, #000000)"/>
<path d="M40.2627 69.9053C36.2773 69.9053 32.4213 69.5867 28.6453 68.9493C28.2093 68.876 27.916 68.4627 27.9893 68.028C28.0627 67.592 28.4747 67.2973 28.9107 67.372C37.1307 68.7587 45.7587 68.6013 55.288 66.892C55.7227 66.8133 56.1387 67.1027 56.216 67.5387C56.2947 67.9733 56.0053 68.3893 55.5693 68.4667C50.2213 69.4253 45.1453 69.9053 40.2627 69.9053Z" fill="var(--hm-stroke, #000000)"/>
<path d="M61.624 67.2453C61.2507 67.2453 60.9174 66.9826 60.84 66.6026C60.7534 66.1693 61.0334 65.748 61.4667 65.66C61.8894 65.5746 62.3054 65.5066 62.708 65.4413C63.8867 65.248 65 65.0666 65.9934 64.5013C66.1027 64.4386 66.272 64.344 66.368 64.2493C66.3654 64.052 66.2854 63.5986 65.972 62.5773C65.9494 62.504 65.9294 62.44 65.9147 62.3906C65.1787 59.984 64.4854 57.696 63.816 55.4826C62.0374 49.6106 60.3587 44.064 58.2147 37.4266C58.0787 37.0066 58.3094 36.5546 58.7307 36.42C59.1507 36.2853 59.6014 36.5146 59.7374 36.936C61.8854 43.5866 63.5667 49.14 65.348 55.0186C66.0174 57.2306 66.7107 59.5173 67.448 61.9293C67.464 61.9826 67.4814 62.04 67.5027 62.1066C67.952 63.568 68.1294 64.4667 67.784 65.0267C67.52 65.4533 67.1294 65.6973 66.784 65.8933C65.5427 66.5986 64.2334 66.8133 62.9667 67.0213C62.5774 67.0853 62.176 67.1506 61.7827 67.2306C61.7294 67.24 61.6774 67.2453 61.624 67.2453Z" fill="var(--hm-stroke, #000000)"/>
<path d="M57.9067 69.28C57.6733 69.28 57.44 69.2627 57.2067 69.2267C56.3667 69.0973 55.5813 68.7373 54.9347 68.184C54.288 67.632 53.8093 66.912 53.5493 66.1027C53.46 65.82 53.4 65.5453 53.344 65.2787C53.244 64.8093 53.156 64.404 52.944 64.1213C52.7187 63.824 52.3013 63.608 51.8587 63.38C51.2093 63.0453 50.4733 62.6667 50.056 61.8827C49.4973 60.8253 49.832 59.38 50.836 58.5187C51.376 58.0547 52.0787 57.7427 52.9307 57.5867C51.9253 49.2067 51.2987 40.6893 51.0667 32.26C51.0547 31.8187 51.4027 31.4507 51.844 31.4387C51.852 31.4387 51.8587 31.4387 51.8667 31.4387C52.2987 31.4387 52.6547 31.7827 52.6667 32.216C52.904 40.8627 53.56 49.6 54.616 58.1867C54.6427 58.4053 54.5787 58.6253 54.4373 58.796C54.296 58.9653 54.092 59.0693 53.872 59.0827C52.988 59.1373 52.3173 59.356 51.88 59.732C51.444 60.1067 51.2613 60.7347 51.472 61.132C51.6533 61.4733 52.0893 61.6973 52.5933 61.9573C53.148 62.244 53.7773 62.568 54.2227 63.1573C54.6493 63.7227 54.788 64.3707 54.9107 64.9427C54.9627 65.1827 55.0107 65.4093 55.076 65.616C55.244 66.14 55.556 66.608 55.976 66.968C56.396 67.3267 56.908 67.5613 57.4533 67.6453C58 67.7293 58.5573 67.66 59.0667 67.4453C59.576 67.2293 60.0133 66.8773 60.3333 66.4267C61.1987 65.2067 61.0933 63.48 60.8947 61.668L57.6547 32.124C57.6067 31.6853 57.924 31.2893 58.3627 31.2413C58.8027 31.1933 59.1973 31.5107 59.2453 31.9493L62.4853 61.4933C62.6613 63.1027 62.928 65.5347 61.6387 67.352C61.1467 68.0453 60.4733 68.5867 59.6907 68.9187C59.1227 69.1587 58.5173 69.28 57.9067 69.28Z" fill="var(--hm-stroke, #000000)"/>
<path d="M19.66 66.0827C19.6133 66.0827 19.5653 66.0787 19.5173 66.0693C18.312 65.8533 16.9853 65.4773 16.2787 64.324C15.6533 63.3067 15.812 62.172 15.952 61.172C16.0547 60.4427 16.1507 59.7533 15.9453 59.2093C15.8347 58.912 15.62 58.596 15.3947 58.26C14.8853 57.504 14.252 56.564 14.688 55.4533C15.0293 54.592 15.8213 54.224 16.456 53.928C16.7747 53.78 17.0747 53.64 17.2707 53.4693C17.7573 53.0453 17.864 52.22 17.9387 51.3387L19.924 27.7027C19.9613 27.2627 20.3507 26.936 20.788 26.972C21.228 27.0093 21.5547 27.396 21.5187 27.836L19.5333 51.472C19.4347 52.6453 19.26 53.8587 18.3213 54.6747C17.9547 54.9933 17.5173 55.1973 17.1307 55.3773C16.6747 55.5893 16.2813 55.772 16.176 56.04C16.056 56.344 16.3027 56.744 16.7213 57.3653C16.9893 57.7627 17.2653 58.1733 17.4427 58.6453C17.7907 59.5707 17.6547 60.5387 17.536 61.392C17.4187 62.232 17.3173 62.9573 17.6413 63.4853C18.0187 64.1 18.9427 64.34 19.7987 64.4933C20.2333 64.5707 20.5227 64.9867 20.4453 65.4213C20.3773 65.8107 20.04 66.0827 19.66 66.0827Z" fill="var(--hm-stroke, #000000)"/>
<path d="M37.8 12.2507C37.5907 12.2507 37.3613 12.2054 37.14 12.0694C37.12 12.0574 37.1013 12.044 37.0827 12.0307C36.864 11.8694 36.692 11.6534 36.5827 11.4054C35.912 10.0854 35.5173 8.66669 35.4093 7.18936C35.3907 6.93869 35.492 6.69336 35.6813 6.52802C38.6973 3.89602 41.9827 2.06269 46.332 0.585358C47.1573 0.306691 47.6947 0.629358 47.9227 1.02269C47.9373 1.04936 47.9507 1.07602 47.9627 1.10269C48.068 1.34402 48.0987 1.60536 48.0533 1.86402L47.8187 3.94936C47.7093 4.92002 47.572 6.12669 46.9507 7.14536C46.288 8.23469 45.216 8.90269 44.2627 9.44402C42.424 10.4894 40.4853 11.384 38.4973 12.1054C38.3653 12.156 38.104 12.2507 37.8 12.2507ZM37.0413 7.46936C37.1667 8.56002 37.4773 9.61069 37.9667 10.5987C39.864 9.90936 41.716 9.05336 43.472 8.05602C44.2507 7.61336 45.12 7.07869 45.584 6.31602C46.0227 5.59869 46.1267 4.67069 46.228 3.77336L46.3987 2.25736C42.6253 3.58402 39.7067 5.20936 37.0413 7.46936Z" fill="var(--hm-stroke, #000000)"/>
<path d="M32.792 11.1987C32.4707 11.1987 31.9934 11.0613 31.6294 10.3733C30.9 8.99733 30.36 7.528 30.0227 6.00666C29.9454 5.72266 29.9267 5.432 29.9667 5.14133C29.972 5.104 29.98 5.068 29.9894 5.032C30.0894 4.67866 30.28 4.356 30.5387 4.09733C31.432 3.12 32.42 2.22133 33.4774 1.42533C33.752 1.212 34.256 0.82133 34.9134 0.90933C35.4307 0.978663 36.1707 1.49866 36.1494 2.15866C36.1414 2.39866 36.04 2.61066 35.876 2.76C35.8374 2.82666 35.7987 2.89333 35.76 2.96133C35.472 3.46 35.1734 3.976 35.208 4.39333C35.224 4.58666 35.364 4.80533 36.2614 5.08533C36.5827 5.18533 36.8067 5.476 36.8227 5.812C36.884 7.14933 35.9294 8.228 35.3587 8.872L33.7254 10.7173C33.5787 10.904 33.384 11.0493 33.1627 11.136C33.1374 11.1453 33.112 11.1547 33.0867 11.1613C33.0267 11.176 32.9227 11.1987 32.792 11.1987ZM31.548 5.416C31.5454 5.476 31.5534 5.53466 31.5694 5.59333C31.5734 5.60933 31.5774 5.62533 31.5814 5.64133C31.8587 6.90133 32.2894 8.12133 32.864 9.27466L34.1627 7.808C34.5734 7.344 34.976 6.86 35.1454 6.38133C34.4894 6.1 33.7054 5.576 33.6174 4.52533C33.576 4.03066 33.6854 3.57733 33.8587 3.16C33.0934 3.78266 32.3734 4.46266 31.7094 5.19066C31.6987 5.20266 31.688 5.21333 31.676 5.22533C31.62 5.28 31.576 5.34533 31.548 5.416Z" fill="var(--hm-stroke, #000000)"/>
<path d="M35 13.6C35.405 13.6 35.7334 13.2717 35.7334 12.8667C35.7334 12.4617 35.405 12.1333 35 12.1333C34.595 12.1333 34.2667 12.4617 34.2667 12.8667C34.2667 13.2717 34.595 13.6 35 13.6Z" fill="var(--hm-stroke, #000000)"/>
<path d="M34.4667 18.6667C34.8717 18.6667 35.2 18.3383 35.2 17.9333C35.2 17.5283 34.8717 17.2 34.4667 17.2C34.0617 17.2 33.7333 17.5283 33.7333 17.9333C33.7333 18.3383 34.0617 18.6667 34.4667 18.6667Z" fill="var(--hm-stroke, #000000)"/>
</g><g data-hm-layer-slot="head" data-hm-part-id="hm1-p-000005" data-hm-selection-slot="head" data-hm-source-group-id="head" data-hm-source-part-id="005" transform="translate(0, -0.5)">
<path d="M50.2667 46.2146C50.5334 47.0333 51.7814 46.7133 52.4574 46.1773C55.6787 43.6213 57.5934 39.548 57.6867 35.436C57.78 31.324 56.1014 27.2347 53.2787 24.244C51.592 22.4587 49.3174 20.9893 46.8654 21.1147L42.9334 19.1653C42.388 17.9533 40.9467 17.3973 39.62 17.3333C38.2934 17.2693 36.9667 17.5707 35.64 17.5107C34.5827 17.4627 33.54 17.1866 32.4827 17.216C30.0254 17.2826 27.9214 18.9573 26.2027 20.716C23.3134 23.672 20.8174 27.4053 20.8254 31.54C20.8254 33.884 21.492 36.6626 19.7587 38.244C19.5347 38.4493 19.2507 38.7107 19.3587 38.9947C19.3974 39.0693 19.4494 39.136 19.5147 39.1893C19.58 39.2427 19.6547 39.2827 19.7347 39.3053C21.184 39.8933 23.0414 39.0547 23.5574 37.572L26.168 32.6467C27.0427 31.3133 28.8534 30.9213 30.4414 31.084C32.0294 31.2467 33.552 31.836 35.1427 31.9787C36.4227 32.0827 37.7107 31.8987 38.9107 31.44C40.1107 30.9813 41.192 30.2573 42.076 29.324L42.876 29.54C43.6414 29.9187 44.2867 30.504 44.74 31.228C45.192 31.9533 45.4347 32.7893 45.4387 33.644C45.4307 34.52 45.172 35.3706 45.028 36.236C44.884 37.1013 44.8854 38.0427 45.348 38.7867C45.8107 39.5307 46.864 39.9547 47.604 39.484" fill="var(--hm-hair, #000000)"/>
<path d="M45.28 52.1853C45.1266 50.3613 45.4813 48.9373 46.2746 47.2866C46.4533 46.9133 46.8413 46.9173 47.224 46.796C47.5626 46.6893 47.8986 46.5666 48.2266 46.428C48.8946 46.1506 49.5253 45.792 50.1066 45.3613C51.256 44.4933 52.1506 43.2746 52.488 41.8613C52.7933 40.58 52.5786 39.0546 51.148 38.3333C50.1453 37.8266 49.2453 38.0066 47.716 39.3506L47.608 39.4933C46.868 39.964 45.8133 39.5413 45.352 38.796C44.8906 38.0506 44.892 37.1106 45.032 36.2453C45.172 35.38 45.432 34.5293 45.4426 33.6533C45.4386 32.7986 45.196 31.9626 44.744 31.2373C44.292 30.512 43.6466 29.928 42.88 29.5493L42.08 29.3333C41.196 30.2666 40.1146 30.9893 38.9146 31.4493C37.7146 31.9093 36.4266 32.0933 35.1466 31.988C33.556 31.8453 32.0333 31.2573 30.4453 31.0933C28.8573 30.9293 27.0466 31.32 26.172 32.656L25.3333 33.4666C24.5333 34.6666 24.4 36.1333 24 37.6C24 38.0213 22.3786 43.712 26.1333 47.4666C27.4666 48.8 29.2 49.3333 31 49.7333C32.6146 49.9826 34.3786 50.2333 35.9333 49.6C35.844 50.988 35.8586 52.2093 35.9226 53.5986" fill="var(--hm-skin, #FFFFFF)"/>
<path d="M51.0374 47.5107C50.8534 47.5107 50.672 47.488 50.4987 47.436C50.0147 47.2907 49.66 46.9467 49.5014 46.4667C49.3627 46.0467 49.5907 45.5947 50.0094 45.456C50.412 45.3227 50.844 45.5267 51.0014 45.9133C51.1747 45.932 51.6094 45.824 51.956 45.5507C54.9494 43.176 56.7907 39.388 56.8814 35.4187C56.968 31.58 55.4414 27.708 52.6907 24.7933C51.6227 23.6627 49.448 21.7853 46.9 21.9133C46.4587 21.9373 46.0827 21.596 46.06 21.1547C46.0374 20.7133 46.3774 20.3373 46.8187 20.3147C49.184 20.1933 51.6814 21.3933 53.8547 23.6933C56.892 26.9107 58.5773 31.1973 58.4813 35.4533C58.3813 39.892 56.312 44.1347 52.9494 46.8027C52.4707 47.1813 51.732 47.5107 51.0374 47.5107Z" fill="var(--hm-stroke, #000000)"/>
<path d="M46.9053 40.4867C46.7307 40.4867 46.5533 40.4667 46.376 40.4267C45.684 40.2693 45.048 39.816 44.6733 39.2147C44.1707 38.4067 44.0307 37.3907 44.244 36.1107C44.292 35.8213 44.352 35.5373 44.4093 35.264C44.528 34.6987 44.64 34.164 44.644 33.6427C44.64 32.948 44.44 32.2573 44.0667 31.6573C43.692 31.0587 43.16 30.576 42.5267 30.2627C42.1307 30.0667 41.968 29.5867 42.164 29.1907C42.36 28.7947 42.84 28.632 43.236 28.828C44.136 29.2733 44.892 29.9587 45.424 30.8093C45.956 31.6613 46.2387 32.6413 46.244 33.6453C46.2373 34.336 46.104 34.9733 45.9747 35.5907C45.9187 35.8613 45.864 36.116 45.8227 36.3733C45.6787 37.2413 45.7493 37.9133 46.0333 38.3707C46.1813 38.6093 46.456 38.804 46.732 38.868C46.8547 38.896 47.0333 38.9093 47.18 38.816C47.5533 38.5787 48.0467 38.6893 48.284 39.0613C48.5213 39.4347 48.4107 39.928 48.0387 40.1653C47.7027 40.3773 47.312 40.4867 46.9053 40.4867Z" fill="var(--hm-stroke, #000000)"/>
<path d="M26.1667 33.452C26.016 33.452 25.864 33.4093 25.728 33.3213C25.3587 33.0787 25.256 32.5827 25.4973 32.2133C26.4347 30.7853 28.3133 30.068 30.5213 30.2933C31.3493 30.3787 32.1493 30.5693 32.9213 30.7533C33.7107 30.9413 34.456 31.12 35.212 31.1867C36.3587 31.28 37.5413 31.112 38.6227 30.6973C39.704 30.2827 40.696 29.62 41.4933 28.7787C41.7973 28.4573 42.304 28.444 42.624 28.748C42.9453 29.052 42.9587 29.5587 42.6547 29.8787C41.6947 30.892 40.4987 31.692 39.1947 32.1907C37.8907 32.6893 36.4667 32.8933 35.0747 32.78C34.1973 32.7013 33.3587 32.5013 32.5493 32.308C31.7933 32.128 31.08 31.9573 30.3573 31.884C29.12 31.7573 27.544 32.008 26.8347 33.0893C26.6827 33.3253 26.428 33.452 26.1667 33.452Z" fill="var(--hm-stroke, #000000)"/>
<path d="M20.7293 40.2933C20.2933 40.2933 19.864 40.216 19.4667 40.0587C19.2973 40.004 19.1427 39.9187 19.0053 39.804C18.856 39.68 18.7347 39.5293 18.6467 39.3573C18.6334 39.332 18.6213 39.3053 18.612 39.2773C18.3107 38.4853 18.9467 37.9013 19.2187 37.652C20.2973 36.668 20.196 34.9573 20.0893 33.1467C20.0587 32.616 20.0253 32.0667 20.0253 31.5373C20.0187 27.7973 21.904 23.9667 25.6307 20.1547C27.1627 18.5867 29.5374 16.4933 32.4614 16.4147C33.132 16.396 33.776 16.4853 34.3987 16.572C34.8427 16.6333 35.2613 16.692 35.6773 16.7107C36.2827 16.7373 36.8973 16.6827 37.548 16.624C38.2307 16.5627 38.9374 16.4987 39.66 16.5333C41.1267 16.604 42.9494 17.2467 43.664 18.836C43.8454 19.2387 43.6654 19.712 43.2627 19.8933C42.86 20.0747 42.3867 19.8947 42.2054 19.492C41.7867 18.5613 40.576 18.1787 39.5827 18.1307C38.9707 18.1013 38.3494 18.1573 37.692 18.216C37.0174 18.2773 36.3174 18.34 35.6054 18.308C35.116 18.2853 34.64 18.22 34.18 18.156C33.596 18.0747 33.0454 17.9987 32.5067 18.0133C30.164 18.0773 28.1147 19.904 26.776 21.2733C23.3534 24.776 21.62 28.2293 21.6267 31.536C21.6267 32.02 21.656 32.5213 21.688 33.052C21.8027 34.9907 21.932 37.1773 20.464 38.6747C20.852 38.728 21.272 38.664 21.668 38.484C22.216 38.236 22.6293 37.8067 22.804 37.3067C22.9493 36.8893 23.4053 36.668 23.8227 36.8147C24.24 36.96 24.46 37.416 24.316 37.8333C23.9987 38.7453 23.2747 39.5147 22.3293 39.9427C21.812 40.1773 21.2653 40.2933 20.7293 40.2933Z" fill="var(--hm-stroke, #000000)"/>
<path d="M45.2787 52.3187C44.868 52.3187 44.5174 52.0027 44.4827 51.5853C44.3134 49.5773 44.704 48.6573 45.5334 46.9307C45.8374 46.3 46.412 46.1613 46.756 46.0787C46.8307 46.06 46.9014 46.044 46.9627 46.024C47.28 45.924 47.5934 45.8093 47.896 45.6813C48.508 45.428 49.0827 45.1013 49.6107 44.7093C50.6747 43.9053 51.416 42.8227 51.6907 41.6667C51.832 41.084 52.024 39.668 50.7747 39.0373C50.2294 38.7613 49.6947 38.6533 48.2294 39.9413C47.8974 40.2333 47.392 40.2 47.1 39.868C46.808 39.536 46.8414 39.0307 47.1734 38.7387C49.2774 36.8893 50.4947 37.1027 51.4947 37.608C53.0467 38.392 53.7174 40.0893 53.2454 42.0387C52.8854 43.5533 51.9347 44.9573 50.5694 45.988C49.932 46.4613 49.2414 46.8533 48.5134 47.1547C48.168 47.3 47.8067 47.4333 47.4427 47.5467C47.332 47.5813 47.2254 47.608 47.132 47.6307C47.0734 47.6453 46.9974 47.6627 46.948 47.6787C46.1814 49.2787 45.944 49.88 46.0774 51.448C46.1147 51.888 45.788 52.276 45.348 52.312C45.324 52.3173 45.3014 52.3187 45.2787 52.3187Z" fill="var(--hm-stroke, #000000)"/>
<path d="M35.884 53.4987C35.4587 53.4987 35.1053 53.164 35.0853 52.7347C35.0427 51.796 35.0333 51.324 35.06 50.68C33.4573 50.9893 31.8253 50.7053 30.5667 50.4853C28.5333 50.1267 26.9533 49.4027 25.736 48.2707C23.4987 46.1867 22.4547 42.808 22.8707 38.9987C23.0267 37.5867 23.608 35.4853 24.428 33.3773C24.588 32.9653 25.052 32.7613 25.464 32.9213C25.876 33.0813 26.08 33.5453 25.92 33.9573C25.0107 36.296 24.5707 38.1853 24.4613 39.1733C24.1 42.4733 24.9613 45.3627 26.8267 47.0987C27.824 48.0267 29.1 48.6013 30.8427 48.908C32.624 49.2187 34.2133 49.428 35.62 48.8533C35.8747 48.7493 36.1653 48.784 36.3893 48.944C36.6133 49.104 36.7387 49.3693 36.7213 49.644C36.636 50.9853 36.6213 51.2813 36.6853 52.6573C36.7053 53.0987 36.364 53.4733 35.9227 53.4933C35.9093 53.4987 35.8973 53.4987 35.884 53.4987Z" fill="var(--hm-stroke, #000000)"/>
<path d="M29.124 37.3467C29.6395 37.3467 30.0573 36.8393 30.0573 36.2134C30.0573 35.5874 29.6395 35.08 29.124 35.08C28.6085 35.08 28.1907 35.5874 28.1907 36.2134C28.1907 36.8393 28.6085 37.3467 29.124 37.3467Z" fill="var(--hm-stroke, #000000)"/>
<path d="M33.6573 37.66C34.1728 37.66 34.5907 37.1526 34.5907 36.5266C34.5907 35.9007 34.1728 35.3933 33.6573 35.3933C33.1419 35.3933 32.724 35.9007 32.724 36.5266C32.724 37.1526 33.1419 37.66 33.6573 37.66Z" fill="var(--hm-stroke, #000000)"/>
</g><g data-hm-layer-slot="item" data-hm-part-id="hm1-p-000041" data-hm-selection-slot="item" data-hm-source-group-id="item" data-hm-source-part-id="000" transform="translate(0, 0)">
</g><g data-hm-layer-slot="glasses" data-hm-part-id="hm1-p-000056" data-hm-selection-slot="glasses" data-hm-source-group-id="glasses" data-hm-source-part-id="000" transform="translate(0, 0)"></g></svg>