<svg xmlns="http://www.w3.org/2000/svg" viewBox="0 0 340 200" role="img" aria-label="生成AI導入を4段階で全社に広げるロードマップ">
<rect width="340" height="200" fill="#FBFCFD"/>
<g stroke="#11161D" stroke-opacity=".05" stroke-width="1"><line x1="85" y1="0" x2="85" y2="200"/><line x1="170" y1="0" x2="170" y2="200"/><line x1="255" y1="0" x2="255" y2="200"/><line x1="0" y1="66" x2="340" y2="66"/><line x1="0" y1="133" x2="340" y2="133"/></g>
<g stroke="#005EFF" stroke-width="2" fill="none"><path d="M14 28 V14 H28"/><path d="M312 14 H326 V28"/><path d="M14 172 V186 H28"/><path d="M326 172 V186 H312"/></g>
<text x="26" y="42" fill="#005EFF" font-family="'IBM Plex Sans','Helvetica Neue',Arial,sans-serif" font-size="11" font-weight="600" letter-spacing="2.2">ROADMAP</text>
<g stroke="#2A333F" stroke-opacity=".22" stroke-width="1"><line x1="62" y1="138" x2="62" y2="100"/><line x1="124" y1="138" x2="124" y2="100"/><line x1="186" y1="138" x2="186" y2="100"/><line x1="248" y1="138" x2="248" y2="100"/></g>
<g>
<rect x="50" y="118" width="24" height="20" rx="2" fill="#005EFF"/>
<rect x="112" y="106" width="24" height="32" rx="2" fill="#005EFF"/>
<rect x="174" y="92" width="24" height="46" rx="2" fill="#FBFCFD" stroke="#005EFF" stroke-width="1.5"/>
<rect x="236" y="78" width="24" height="60" rx="2" fill="#FBFCFD" stroke="#005EFF" stroke-width="1.5"/>
</g>
<line x1="44" y1="138" x2="286" y2="138" stroke="#11161D" stroke-width="1.5"/>
<g fill="#5A6677" font-family="'IBM Plex Sans','Helvetica Neue',Arial,sans-serif" font-size="9" letter-spacing="1" text-anchor="middle"><text x="62" y="153">01</text><text x="124" y="153">02</text><text x="186" y="153">03</text><text x="248" y="153">04</text></g>
<text x="26" y="180" fill="#5A6677" font-family="'IBM Plex Sans','Helvetica Neue',Arial,sans-serif" font-size="11" letter-spacing="1">TechWorker Media</text>
</svg>
