<svg xmlns="http://www.w3.org/2000/svg" viewBox="0 0 340 200" role="img" aria-label="面談メモを生成AIで構造化">
<rect width="340" height="200" fill="#FBFCFD"/>
<g stroke="#11161D" stroke-opacity=".05" stroke-width="1"><line x1="85" y1="0" x2="85" y2="200"/><line x1="170" y1="0" x2="170" y2="200"/><line x1="255" y1="0" x2="255" y2="200"/><line x1="0" y1="66" x2="340" y2="66"/><line x1="0" y1="133" x2="340" y2="133"/></g>
<g stroke="#005EFF" stroke-width="2" fill="none"><path d="M14 28 V14 H28"/><path d="M312 14 H326 V28"/><path d="M14 172 V186 H28"/><path d="M326 172 V186 H312"/></g>
<text x="26" y="42" fill="#005EFF" font-family="'IBM Plex Sans','Helvetica Neue',Arial,sans-serif" font-size="11" font-weight="600" letter-spacing="2.2">INTERVIEW NOTES</text>
<rect x="106" y="62" width="128" height="102" rx="9" fill="#FBFCFD" stroke="#005EFF" stroke-opacity=".28"/>
<rect x="120" y="78" width="12" height="12" rx="3" fill="#005EFF"/>
<rect x="140" y="81" width="80" height="6" rx="3" fill="#2A333F" opacity=".26"/>
<rect x="120" y="100" width="12" height="12" rx="3" fill="#005EFF" opacity=".55"/>
<rect x="140" y="103" width="66" height="6" rx="3" fill="#005EFF" opacity=".5"/>
<rect x="120" y="122" width="12" height="12" rx="3" fill="#005EFF" opacity=".55"/>
<rect x="140" y="125" width="80" height="6" rx="3" fill="#2A333F" opacity=".26"/>
<rect x="120" y="144" width="12" height="12" rx="3" fill="#005EFF" opacity=".55"/>
<rect x="140" y="147" width="54" height="6" rx="3" fill="#2A333F" opacity=".26"/>
<text x="26" y="184" fill="#5A6677" font-family="'IBM Plex Sans','Helvetica Neue',Arial,sans-serif" font-size="11" letter-spacing="1">TechWorker Media</text>
</svg>
