<svg xmlns="http://www.w3.org/2000/svg" viewBox="0 0 340 200" role="img" aria-label="生成AIで作成する求人票の下書き">
<rect width="340" height="200" fill="#FBFCFD"/>
<g stroke="#11161D" stroke-opacity=".05" stroke-width="1"><line x1="85" y1="0" x2="85" y2="200"/><line x1="170" y1="0" x2="170" y2="200"/><line x1="255" y1="0" x2="255" y2="200"/><line x1="0" y1="66" x2="340" y2="66"/><line x1="0" y1="133" x2="340" y2="133"/></g>
<g stroke="#005EFF" stroke-width="2" fill="none"><path d="M14 28 V14 H28"/><path d="M312 14 H326 V28"/><path d="M14 172 V186 H28"/><path d="M326 172 V186 H312"/></g>
<text x="26" y="42" fill="#005EFF" font-family="'IBM Plex Sans','Helvetica Neue',Arial,sans-serif" font-size="11" font-weight="600" letter-spacing="2.2">JOB POSTING</text>
<rect x="106" y="64" width="128" height="98" rx="9" fill="#FBFCFD" stroke="#005EFF" stroke-opacity=".28"/>
<rect x="122" y="80" width="74" height="7" rx="3.5" fill="#005EFF"/>
<rect x="122" y="98" width="96" height="5" rx="2.5" fill="#2A333F" opacity=".26"/>
<rect x="122" y="110" width="84" height="5" rx="2.5" fill="#2A333F" opacity=".26"/>
<rect x="122" y="124" width="96" height="5" rx="2.5" fill="#005EFF" opacity=".5"/>
<rect x="122" y="136" width="60" height="5" rx="2.5" fill="#2A333F" opacity=".26"/>
<text x="26" y="180" fill="#5A6677" font-family="'IBM Plex Sans','Helvetica Neue',Arial,sans-serif" font-size="11" letter-spacing="1">TechWorker Media</text>
</svg>
