<svg xmlns="http://www.w3.org/2000/svg" viewBox="0 0 340 200" role="img" aria-label="求人と候補者の対応付け">
<rect width="340" height="200" fill="#FBFCFD"/>
<g stroke="#11161D" stroke-opacity=".05" stroke-width="1"><line x1="85" y1="0" x2="85" y2="200"/><line x1="170" y1="0" x2="170" y2="200"/><line x1="255" y1="0" x2="255" y2="200"/><line x1="0" y1="66" x2="340" y2="66"/><line x1="0" y1="133" x2="340" y2="133"/></g>
<g stroke="#005EFF" stroke-width="2" fill="none"><path d="M14 28 V14 H28"/><path d="M312 14 H326 V28"/><path d="M14 172 V186 H28"/><path d="M326 172 V186 H312"/></g>
<text x="26" y="42" fill="#005EFF" font-family="'IBM Plex Sans','Helvetica Neue',Arial,sans-serif" font-size="11" font-weight="600" letter-spacing="2.2">MATCHING</text>
<g stroke="#005EFF" stroke-width="1.4"><line x1="104" y1="78" x2="236" y2="78"/><line x1="104" y1="118" x2="236" y2="158"/><line x1="104" y1="158" x2="236" y2="118"/></g>
<g fill="#FBFCFD" stroke="#11161D" stroke-width="1.5"><circle cx="104" cy="78" r="9"/><circle cx="104" cy="118" r="9"/><circle cx="104" cy="158" r="9"/></g>
<g fill="#005EFF"><circle cx="236" cy="78" r="9"/><circle cx="236" cy="118" r="9"/><circle cx="236" cy="158" r="9"/></g>
<text x="26" y="180" fill="#5A6677" font-family="'IBM Plex Sans','Helvetica Neue',Arial,sans-serif" font-size="11" letter-spacing="1">TechWorker Media</text>
</svg>
