<svg xmlns="http://www.w3.org/2000/svg" viewBox="0 0 340 200" role="img" aria-label="生成AIで作る、データ化された顧客ペルソナ">
<rect width="340" height="200" fill="#FBFCFD"/>
<g stroke="#11161D" stroke-opacity=".05" stroke-width="1"><line x1="85" y1="0" x2="85" y2="200"/><line x1="170" y1="0" x2="170" y2="200"/><line x1="255" y1="0" x2="255" y2="200"/><line x1="0" y1="66" x2="340" y2="66"/><line x1="0" y1="133" x2="340" y2="133"/></g>
<g stroke="#005EFF" stroke-width="2" fill="none"><path d="M14 28 V14 H28"/><path d="M312 14 H326 V28"/><path d="M14 172 V186 H28"/><path d="M326 172 V186 H312"/></g>
<text x="26" y="42" fill="#005EFF" font-family="'IBM Plex Sans','Helvetica Neue',Arial,sans-serif" font-size="11" font-weight="600" letter-spacing="2.2">AI PERSONA</text>
<g fill="none" stroke="#11161D" stroke-width="1.6" stroke-opacity=".55"><circle cx="92" cy="92" r="16"/><path d="M66 150 a26 26 0 0 1 52 0"/></g>
<g stroke="#005EFF" stroke-width="1.4"><line x1="120" y1="86" x2="156" y2="80"/><line x1="120" y1="108" x2="156" y2="112"/><line x1="120" y1="130" x2="156" y2="142"/></g>
<g fill="#005EFF"><circle cx="166" cy="80" r="4"/><circle cx="166" cy="112" r="4" fill-opacity=".55"/><circle cx="166" cy="142" r="4" fill-opacity=".3"/></g>
<rect x="186" y="64" width="100" height="80" rx="9" fill="#FBFCFD" stroke="#005EFF" stroke-opacity=".3"/>
<g font-family="'IBM Plex Sans','Helvetica Neue',Arial,sans-serif"><text x="198" y="82" fill="#5A6677" font-size="8" letter-spacing=".5">属性</text><text x="198" y="104" fill="#5A6677" font-size="8" letter-spacing=".5">志向</text><text x="198" y="126" fill="#5A6677" font-size="8" letter-spacing=".5">行動</text></g>
<g fill="#005EFF"><rect x="224" y="74" width="50" height="6" rx="3"/><rect x="224" y="96" width="38" height="6" rx="3" opacity=".5"/><rect x="224" y="118" width="46" height="6" rx="3" opacity=".32"/></g>
<text x="26" y="180" fill="#5A6677" font-family="'IBM Plex Sans','Helvetica Neue',Arial,sans-serif" font-size="11" letter-spacing="1">TechWorker Media</text>
</svg>
