<svg xmlns="http://www.w3.org/2000/svg" viewBox="0 0 340 200" role="img" aria-label="人材会社の営業ダッシュボード">
<rect width="340" height="200" fill="#FBFCFD"/>
<g stroke="#11161D" stroke-opacity=".05" stroke-width="1"><line x1="85" y1="0" x2="85" y2="200"/><line x1="170" y1="0" x2="170" y2="200"/><line x1="255" y1="0" x2="255" y2="200"/><line x1="0" y1="66" x2="340" y2="66"/><line x1="0" y1="133" x2="340" y2="133"/></g>
<g stroke="#005EFF" stroke-width="2" fill="none"><path d="M14 28 V14 H28"/><path d="M312 14 H326 V28"/><path d="M14 172 V186 H28"/><path d="M326 172 V186 H312"/></g>
<text x="26" y="42" fill="#005EFF" font-family="'IBM Plex Sans','Helvetica Neue',Arial,sans-serif" font-size="11" font-weight="600" letter-spacing="2.2">RA &#183; SALES</text>
<line x1="96" y1="152" x2="264" y2="152" stroke="#11161D" stroke-opacity=".14" stroke-width="1"/>
<rect x="104" y="120" width="18" height="32" fill="#2A333F" opacity=".22"/>
<rect x="132" y="108" width="18" height="44" fill="#2A333F" opacity=".22"/>
<rect x="160" y="114" width="18" height="38" fill="#2A333F" opacity=".22"/>
<rect x="188" y="94" width="18" height="58" fill="#005EFF" opacity=".55"/>
<rect x="216" y="80" width="18" height="72" fill="#005EFF" opacity=".78"/>
<rect x="244" y="68" width="18" height="84" fill="#005EFF"/>
<text x="26" y="184" fill="#5A6677" font-family="'IBM Plex Sans','Helvetica Neue',Arial,sans-serif" font-size="11" letter-spacing="1">TechWorker Media</text>
</svg>
