<svg xmlns="http://www.w3.org/2000/svg" viewBox="0 0 340 200" role="img" aria-label="候補者プールからの探索とスカウト">
<rect width="340" height="200" fill="#FBFCFD"/>
<g stroke="#11161D" stroke-opacity=".05" stroke-width="1"><line x1="85" y1="0" x2="85" y2="200"/><line x1="170" y1="0" x2="170" y2="200"/><line x1="255" y1="0" x2="255" y2="200"/><line x1="0" y1="66" x2="340" y2="66"/><line x1="0" y1="133" x2="340" y2="133"/></g>
<g stroke="#005EFF" stroke-width="2" fill="none"><path d="M14 28 V14 H28"/><path d="M312 14 H326 V28"/><path d="M14 172 V186 H28"/><path d="M326 172 V186 H312"/></g>
<text x="26" y="42" fill="#005EFF" font-family="'IBM Plex Sans','Helvetica Neue',Arial,sans-serif" font-size="11" font-weight="600" letter-spacing="2.2">SOURCING</text>
<g stroke="#005EFF" stroke-width="1.4" opacity=".9"><line x1="60" y1="150" x2="180" y2="86"/><line x1="60" y1="150" x2="250" y2="120"/></g>
<g fill="#2A333F" opacity=".32"><circle cx="150" cy="72" r="4"/><circle cx="210" cy="80" r="4"/><circle cx="275" cy="92" r="4"/><circle cx="170" cy="118" r="4"/><circle cx="225" cy="150" r="4"/><circle cx="285" cy="146" r="4"/><circle cx="130" cy="150" r="4"/></g>
<circle cx="60" cy="150" r="7" fill="#11161D"/>
<circle cx="180" cy="86" r="7.5" fill="#005EFF"/>
<circle cx="250" cy="120" r="7.5" fill="#005EFF"/>
<text x="26" y="180" fill="#5A6677" font-family="'IBM Plex Sans','Helvetica Neue',Arial,sans-serif" font-size="11" letter-spacing="1">TechWorker Media</text>
</svg>
