<svg xmlns="http://www.w3.org/2000/svg" viewBox="0 0 340 200" role="img" aria-label="候補者リストの絞り込みスクリーニング">
<rect width="340" height="200" fill="#FBFCFD"/>
<g stroke="#11161D" stroke-opacity=".05" stroke-width="1"><line x1="85" y1="0" x2="85" y2="200"/><line x1="170" y1="0" x2="170" y2="200"/><line x1="255" y1="0" x2="255" y2="200"/><line x1="0" y1="66" x2="340" y2="66"/><line x1="0" y1="133" x2="340" y2="133"/></g>
<g stroke="#005EFF" stroke-width="2" fill="none"><path d="M14 28 V14 H28"/><path d="M312 14 H326 V28"/><path d="M14 172 V186 H28"/><path d="M326 172 V186 H312"/></g>
<text x="26" y="42" fill="#005EFF" font-family="'IBM Plex Sans','Helvetica Neue',Arial,sans-serif" font-size="11" font-weight="600" letter-spacing="2.2">SCREENING</text>
<g fill="#2A333F" opacity=".24"><rect x="40" y="64" width="86" height="7" rx="3.5"/><rect x="40" y="82" width="70" height="7" rx="3.5"/><rect x="40" y="100" width="92" height="7" rx="3.5"/><rect x="40" y="118" width="64" height="7" rx="3.5"/><rect x="40" y="136" width="80" height="7" rx="3.5"/><rect x="40" y="154" width="58" height="7" rx="3.5"/></g>
<g stroke="#005EFF" stroke-width="1.4" fill="none" opacity=".9"><path d="M150 86 H196"/><path d="M150 122 H196"/></g>
<g fill="#005EFF"><rect x="210" y="80" width="90" height="13" rx="3.5"/><rect x="210" y="116" width="76" height="13" rx="3.5"/></g>
<g fill="none" stroke="#11161D" stroke-width="1.6" opacity=".4"><circle cx="300" cy="150" r="9"/><line x1="307" y1="157" x2="314" y2="164"/></g>
<text x="26" y="180" fill="#5A6677" font-family="'IBM Plex Sans','Helvetica Neue',Arial,sans-serif" font-size="11" letter-spacing="1">TechWorker Media</text>
</svg>
