<svg xmlns="http://www.w3.org/2000/svg" viewBox="0 0 340 200" role="img" aria-label="相談を論点に整理する">
<rect width="340" height="200" fill="#FBFCFD"/>
<g stroke="#11161D" stroke-opacity=".05" stroke-width="1"><line x1="85" y1="0" x2="85" y2="200"/><line x1="170" y1="0" x2="170" y2="200"/><line x1="255" y1="0" x2="255" y2="200"/><line x1="0" y1="66" x2="340" y2="66"/><line x1="0" y1="133" x2="340" y2="133"/></g>
<g stroke="#005EFF" stroke-width="2" fill="none"><path d="M14 28 V14 H28"/><path d="M312 14 H326 V28"/><path d="M14 172 V186 H28"/><path d="M326 172 V186 H312"/></g>
<text x="26" y="42" fill="#005EFF" font-family="'IBM Plex Sans','Helvetica Neue',Arial,sans-serif" font-size="11" font-weight="600" letter-spacing="2.2">ADVISORY</text>
<g stroke="#005EFF" stroke-width="1.5"><line x1="73" y1="111" x2="248" y2="82"/><line x1="73" y1="111" x2="248" y2="111"/><line x1="73" y1="111" x2="248" y2="140"/></g>
<circle cx="62" cy="111" r="11" fill="#11161D"/>
<circle cx="256" cy="82" r="8" fill="#FBFCFD" stroke="#005EFF" stroke-width="1.5"/>
<circle cx="256" cy="111" r="8" fill="#005EFF"/>
<circle cx="256" cy="140" r="8" fill="#FBFCFD" stroke="#005EFF" stroke-width="1.5"/>
<text x="26" y="180" fill="#5A6677" font-family="'IBM Plex Sans','Helvetica Neue',Arial,sans-serif" font-size="11" letter-spacing="1">TechWorker Media</text>
</svg>
