<svg xmlns="http://www.w3.org/2000/svg" viewBox="0 0 340 200" role="img" aria-label="生活者デジタルツイン">
<rect width="340" height="200" fill="#FBFCFD"/>
<g stroke="#11161D" stroke-opacity=".05" stroke-width="1"><line x1="85" y1="0" x2="85" y2="200"/><line x1="170" y1="0" x2="170" y2="200"/><line x1="255" y1="0" x2="255" y2="200"/><line x1="0" y1="66" x2="340" y2="66"/><line x1="0" y1="133" x2="340" y2="133"/></g>
<g stroke="#005EFF" stroke-width="2" fill="none"><path d="M14 28 V14 H28"/><path d="M312 14 H326 V28"/><path d="M14 172 V186 H28"/><path d="M326 172 V186 H312"/></g>
<text x="26" y="42" fill="#005EFF" font-family="'IBM Plex Sans','Helvetica Neue',Arial,sans-serif" font-size="11" font-weight="600" letter-spacing="2.2">DIGITAL TWIN</text>
<line x1="170" y1="62" x2="170" y2="166" stroke="#005EFF" stroke-width="1.5" stroke-dasharray="3 4"/>
<g fill="none" stroke="#11161D" stroke-width="1.6" stroke-opacity=".55"><circle cx="104" cy="96" r="15"/><path d="M80 150 a24 24 0 0 1 48 0"/></g>
<g fill="#005EFF"><circle cx="236" cy="96" r="15" fill-opacity=".14" stroke="#005EFF" stroke-width="1.5"/></g>
<g fill="#005EFF"><rect x="212" y="128" width="48" height="6" rx="3" opacity=".5"/><rect x="212" y="140" width="36" height="6" rx="3" opacity=".32"/><rect x="212" y="152" width="44" height="6" rx="3"/></g>
<circle cx="236" cy="96" r="4" fill="#005EFF"/>
<text x="26" y="180" fill="#5A6677" font-family="'IBM Plex Sans','Helvetica Neue',Arial,sans-serif" font-size="11" letter-spacing="1">TechWorker Media</text>
</svg>
