<svg xmlns="http://www.w3.org/2000/svg" viewBox="0 0 340 200" role="img" aria-label="士業の正確な書面">
<rect width="340" height="200" fill="#FBFCFD"/>
<g stroke="#11161D" stroke-opacity=".05" stroke-width="1"><line x1="85" y1="0" x2="85" y2="200"/><line x1="170" y1="0" x2="170" y2="200"/><line x1="255" y1="0" x2="255" y2="200"/><line x1="0" y1="66" x2="340" y2="66"/><line x1="0" y1="133" x2="340" y2="133"/></g>
<g stroke="#005EFF" stroke-width="2" fill="none"><path d="M14 28 V14 H28"/><path d="M312 14 H326 V28"/><path d="M14 172 V186 H28"/><path d="M326 172 V186 H312"/></g>
<text x="26" y="42" fill="#005EFF" font-family="'IBM Plex Sans','Helvetica Neue',Arial,sans-serif" font-size="11" font-weight="600" letter-spacing="2.2">LICENSED</text>
<g stroke="#005EFF" stroke-width="3" stroke-linecap="round" opacity=".9"><line x1="104" y1="82" x2="230" y2="82"/><line x1="104" y1="102" x2="230" y2="102"/><line x1="104" y1="122" x2="230" y2="122"/><line x1="104" y1="142" x2="196" y2="142"/></g>
<circle cx="244" cy="142" r="13" fill="#005EFF"/>
<path d="M237 142 l5 5 l8 -10" stroke="#FBFCFD" stroke-width="2.2" fill="none" stroke-linecap="round" stroke-linejoin="round"/>
<text x="26" y="180" fill="#5A6677" font-family="'IBM Plex Sans','Helvetica Neue',Arial,sans-serif" font-size="11" letter-spacing="1">TechWorker Media</text>
</svg>
