<svg xmlns="http://www.w3.org/2000/svg" viewBox="0 0 340 200" role="img" aria-label="人材のネットワーク">
<rect width="340" height="200" fill="#FBFCFD"/>
<g stroke="#11161D" stroke-opacity=".05" stroke-width="1"><line x1="85" y1="0" x2="85" y2="200"/><line x1="170" y1="0" x2="170" y2="200"/><line x1="255" y1="0" x2="255" y2="200"/><line x1="0" y1="66" x2="340" y2="66"/><line x1="0" y1="133" x2="340" y2="133"/></g>
<g stroke="#005EFF" stroke-width="2" fill="none"><path d="M14 28 V14 H28"/><path d="M312 14 H326 V28"/><path d="M14 172 V186 H28"/><path d="M326 172 V186 H312"/></g>
<text x="26" y="42" fill="#005EFF" font-family="'IBM Plex Sans','Helvetica Neue',Arial,sans-serif" font-size="11" font-weight="600" letter-spacing="2.2">TALENT</text>
<g stroke="#005EFF" stroke-width="1.4" opacity=".85"><line x1="84" y1="104" x2="156" y2="80"/><line x1="156" y1="80" x2="232" y2="98"/><line x1="84" y1="104" x2="150" y2="134"/><line x1="150" y1="134" x2="232" y2="98"/><line x1="232" y1="98" x2="288" y2="126"/></g>
<circle cx="84" cy="104" r="9" fill="#005EFF"/>
<circle cx="156" cy="80" r="8" fill="#FBFCFD" stroke="#005EFF" stroke-width="1.5"/>
<circle cx="232" cy="98" r="9" fill="#005EFF"/>
<circle cx="150" cy="134" r="8" fill="#FBFCFD" stroke="#005EFF" stroke-width="1.5"/>
<circle cx="288" cy="126" r="8" fill="#FBFCFD" stroke="#005EFF" stroke-width="1.5"/>
<text x="26" y="180" fill="#5A6677" font-family="'IBM Plex Sans','Helvetica Neue',Arial,sans-serif" font-size="11" letter-spacing="1">TechWorker Media</text>
</svg>
