<svg xmlns="http://www.w3.org/2000/svg" viewBox="0 0 340 200" role="img" aria-label="発散から収束へ、生成AIでアイディエーションする">
<rect width="340" height="200" fill="#FBFCFD"/>
<g stroke="#11161D" stroke-opacity=".05" stroke-width="1"><line x1="85" y1="0" x2="85" y2="200"/><line x1="170" y1="0" x2="170" y2="200"/><line x1="255" y1="0" x2="255" y2="200"/><line x1="0" y1="66" x2="340" y2="66"/><line x1="0" y1="133" x2="340" y2="133"/></g>
<g stroke="#005EFF" stroke-width="2" fill="none"><path d="M14 28 V14 H28"/><path d="M312 14 H326 V28"/><path d="M14 172 V186 H28"/><path d="M326 172 V186 H312"/></g>
<text x="26" y="42" fill="#005EFF" font-family="'IBM Plex Sans','Helvetica Neue',Arial,sans-serif" font-size="11" font-weight="600" letter-spacing="2.2">IDEATION</text>
<g stroke="#005EFF" stroke-width="1.4" fill="none" opacity=".85">
  <path d="M54 111 L146 65"/>
  <path d="M54 111 L146 88"/>
  <path d="M54 111 L146 111"/>
  <path d="M54 111 L146 134"/>
  <path d="M54 111 L146 157"/>
</g>
<circle cx="54" cy="111" r="6" fill="#11161D"/>
<g fill="#005EFF">
  <circle cx="146" cy="65" r="5" opacity=".28"/>
  <circle cx="146" cy="88" r="5" opacity=".28"/>
  <circle cx="146" cy="111" r="5" opacity=".28"/>
  <circle cx="146" cy="134" r="5" opacity=".28"/>
  <circle cx="146" cy="157" r="5" opacity=".28"/>
</g>
<g stroke="#2A333F" stroke-opacity=".22" stroke-width="1.2" stroke-dasharray="2 3"><line x1="176" y1="0" x2="176" y2="200"/></g>
<g stroke="#005EFF" stroke-width="1.4" fill="none">
  <path d="M206 88 L286 111"/>
  <path d="M206 111 L286 111"/>
  <path d="M206 134 L286 111"/>
</g>
<circle cx="206" cy="88" r="5" fill="#FBFCFD" stroke="#005EFF" stroke-width="1.5"/>
<circle cx="206" cy="111" r="5" fill="#FBFCFD" stroke="#005EFF" stroke-width="1.5"/>
<circle cx="206" cy="134" r="5" fill="#FBFCFD" stroke="#005EFF" stroke-width="1.5"/>
<circle cx="286" cy="111" r="9" fill="#005EFF"/>
<text x="26" y="180" fill="#5A6677" font-family="'IBM Plex Sans','Helvetica Neue',Arial,sans-serif" font-size="11" letter-spacing="1">TechWorker Media</text>
</svg>
