<svg xmlns="http://www.w3.org/2000/svg" viewBox="0 0 340 200" role="img" aria-label="社内データから新規事業の種を探す">
<rect width="340" height="200" fill="#FBFCFD"/>
<g stroke="#11161D" stroke-opacity=".05" stroke-width="1"><line x1="85" y1="0" x2="85" y2="200"/><line x1="170" y1="0" x2="170" y2="200"/><line x1="255" y1="0" x2="255" y2="200"/><line x1="0" y1="66" x2="340" y2="66"/><line x1="0" y1="133" x2="340" y2="133"/></g>
<g stroke="#005EFF" stroke-width="2" fill="none"><path d="M14 28 V14 H28"/><path d="M312 14 H326 V28"/><path d="M14 172 V186 H28"/><path d="M326 172 V186 H312"/></g>
<text x="26" y="42" fill="#005EFF" font-family="'IBM Plex Sans','Helvetica Neue',Arial,sans-serif" font-size="11" font-weight="600" letter-spacing="2.2">EXPLORATION</text>
<g stroke="#11161D" stroke-opacity=".14" stroke-width="1.5" fill="none"><circle cx="150" cy="108" r="10"/><circle cx="150" cy="108" r="20"/><circle cx="150" cy="108" r="30"/></g>
<circle cx="150" cy="108" r="4" fill="#005EFF"/>
<g stroke="#005EFF" stroke-width="1.5"><line x1="176" y1="88" x2="215" y2="70"/><line x1="180" y1="120" x2="222" y2="128"/><line x1="163" y1="136" x2="188" y2="163"/></g>
<circle cx="222" cy="65" r="6" fill="#FBFCFD" stroke="#005EFF" stroke-width="1.5"/>
<circle cx="230" cy="130" r="6" fill="#005EFF"/>
<circle cx="194" cy="169" r="6" fill="#FBFCFD" stroke="#005EFF" stroke-width="1.5"/>
<text x="26" y="180" fill="#5A6677" font-family="'IBM Plex Sans','Helvetica Neue',Arial,sans-serif" font-size="11" letter-spacing="1">TechWorker Media</text>
</svg>
