<svg xmlns="http://www.w3.org/2000/svg" viewBox="0 0 340 200" role="img" aria-label="検証項目を合否ゲートにかけ、稟議が通るPoCの結果へ">
<rect width="340" height="200" fill="#FBFCFD"/>
<g stroke="#11161D" stroke-opacity=".05" stroke-width="1"><line x1="85" y1="0" x2="85" y2="200"/><line x1="170" y1="0" x2="170" y2="200"/><line x1="255" y1="0" x2="255" y2="200"/><line x1="0" y1="66" x2="340" y2="66"/><line x1="0" y1="133" x2="340" y2="133"/></g>
<g stroke="#005EFF" stroke-width="2" fill="none"><path d="M14 28 V14 H28"/><path d="M312 14 H326 V28"/><path d="M14 172 V186 H28"/><path d="M326 172 V186 H312"/></g>
<text x="26" y="42" fill="#005EFF" font-family="'IBM Plex Sans','Helvetica Neue',Arial,sans-serif" font-size="11" font-weight="600" letter-spacing="2.2">PROOF OF CONCEPT</text>
<g stroke="#11161D" stroke-opacity=".18" stroke-width="1.5" fill="none">
  <rect x="34" y="86" width="13" height="13" rx="2"/>
  <rect x="34" y="105" width="13" height="13" rx="2"/>
  <rect x="34" y="124" width="13" height="13" rx="2"/>
</g>
<g stroke="#11161D" stroke-opacity=".14" stroke-width="1.5"><line x1="55" y1="92.5" x2="118" y2="92.5"/><line x1="55" y1="111.5" x2="102" y2="111.5"/><line x1="55" y1="130.5" x2="110" y2="130.5"/></g>
<line x1="150" y1="60" x2="150" y2="150" stroke="#2A333F" stroke-opacity=".2" stroke-width="1.3" stroke-dasharray="2 3"/>
<circle cx="150" cy="105" r="21" fill="none" stroke="#005EFF" stroke-width="1.6" stroke-dasharray="3 3.5"/>
<text x="150" y="109" fill="#005EFF" font-family="'IBM Plex Sans','Helvetica Neue',Arial,sans-serif" font-size="9.5" font-weight="600" letter-spacing=".6" text-anchor="middle">GO / NO-GO</text>
<path d="M176 105 H236" stroke="#005EFF" stroke-width="1.6" fill="none"/>
<path d="M230 99 L237 105 L230 111" stroke="#005EFF" stroke-width="1.6" fill="none" stroke-linecap="round" stroke-linejoin="round"/>
<circle cx="262" cy="105" r="16" fill="#005EFF"/>
<path d="M254 106 L260 112 L271 99" stroke="#FBFCFD" stroke-width="2.4" fill="none" stroke-linecap="round" stroke-linejoin="round"/>
<text x="262" y="140" fill="#5A6677" font-family="'IBM Plex Sans','Helvetica Neue',Arial,sans-serif" font-size="9" letter-spacing=".4" text-anchor="middle">DECISION READY</text>
<text x="26" y="180" fill="#5A6677" font-family="'IBM Plex Sans','Helvetica Neue',Arial,sans-serif" font-size="11" letter-spacing="1">TechWorker Media</text>
</svg>
