<svg xmlns="http://www.w3.org/2000/svg" viewBox="0 0 340 200" role="img" aria-label="発売前に価格とメッセージを生成AIで検証する">
<rect width="340" height="200" fill="#FBFCFD"/>
<g stroke="#11161D" stroke-opacity=".05" stroke-width="1"><line x1="85" y1="0" x2="85" y2="200"/><line x1="170" y1="0" x2="170" y2="200"/><line x1="255" y1="0" x2="255" y2="200"/><line x1="0" y1="66" x2="340" y2="66"/><line x1="0" y1="133" x2="340" y2="133"/></g>
<g stroke="#005EFF" stroke-width="2" fill="none"><path d="M14 28 V14 H28"/><path d="M312 14 H326 V28"/><path d="M14 172 V186 H28"/><path d="M326 172 V186 H312"/></g>
<text x="26" y="42" fill="#005EFF" font-family="'IBM Plex Sans','Helvetica Neue',Arial,sans-serif" font-size="11" font-weight="600" letter-spacing="2.2">PRICING &amp; MESSAGE</text>
<g fill="#005EFF"><rect x="58" y="84" width="64" height="6" rx="3"/><rect x="58" y="100" width="48" height="5" rx="2.5" fill="#2A333F" opacity=".24"/><rect x="58" y="112" width="40" height="5" rx="2.5" fill="#2A333F" opacity=".24"/></g>
<text x="58" y="146" fill="#005EFF" font-family="'IBM Plex Sans','Helvetica Neue',Arial,sans-serif" font-size="24" font-weight="700" letter-spacing="-.5">¥—</text>
<g stroke="#005EFF" stroke-width="1.4"><line x1="128" y1="100" x2="184" y2="92"/><line x1="128" y1="118" x2="184" y2="128"/></g>
<g stroke="#005EFF" stroke-width="1.5" fill="none"><circle cx="262" cy="100" r="30" stroke-opacity=".18"/><path d="M262 70 A30 30 0 0 1 288 116" stroke-opacity="1"/></g>
<circle cx="262" cy="100" r="22" fill="#005EFF" fill-opacity=".08"/>
<text x="262" y="97" fill="#005EFF" font-family="'IBM Plex Sans','Helvetica Neue',Arial,sans-serif" font-size="16" font-weight="700" letter-spacing="-.5" text-anchor="middle">—</text>
<text x="262" y="113" fill="#5A6677" font-family="'IBM Plex Sans','Helvetica Neue',Arial,sans-serif" font-size="8" letter-spacing="1" text-anchor="middle">SCORE</text>
<g fill="#005EFF"><circle cx="200" cy="92" r="4"/><circle cx="200" cy="128" r="4" fill-opacity=".4"/></g>
<text x="26" y="180" fill="#5A6677" font-family="'IBM Plex Sans','Helvetica Neue',Arial,sans-serif" font-size="11" letter-spacing="1">TechWorker Media</text>
</svg>
