<svg xmlns="http://www.w3.org/2000/svg" viewBox="0 0 340 200" role="img" aria-label="就業規則・手続き書類をAIの下書きで整える社労士の業務">
<rect width="340" height="200" fill="#FBFCFD"/>
<g stroke="#11161D" stroke-opacity=".05" stroke-width="1"><line x1="85" y1="0" x2="85" y2="200"/><line x1="170" y1="0" x2="170" y2="200"/><line x1="255" y1="0" x2="255" y2="200"/><line x1="0" y1="66" x2="340" y2="66"/><line x1="0" y1="133" x2="340" y2="133"/></g>
<g stroke="#005EFF" stroke-width="2" fill="none"><path d="M14 28 V14 H28"/><path d="M312 14 H326 V28"/><path d="M14 172 V186 H28"/><path d="M326 172 V186 H312"/></g>
<text x="26" y="42" fill="#005EFF" font-family="'IBM Plex Sans','Helvetica Neue',Arial,sans-serif" font-size="11" font-weight="600" letter-spacing="2.2">LABOR</text>
<rect x="44" y="78" width="78" height="84" rx="4" fill="#FFFFFF" stroke="#2A333F" stroke-opacity=".26" stroke-width="1.5"/>
<g stroke="#2A333F" stroke-opacity=".26" stroke-width="3" stroke-linecap="round"><line x1="56" y1="94" x2="104" y2="94"/><line x1="56" y1="108" x2="110" y2="108"/><line x1="56" y1="122" x2="98" y2="122"/><line x1="56" y1="136" x2="110" y2="136"/></g>
<path d="M122 120 H150" stroke="#005EFF" stroke-width="2" fill="none"/>
<path d="M143 114 l8 6 l-8 6" stroke="#005EFF" stroke-width="2" fill="none" stroke-linecap="round" stroke-linejoin="round"/>
<rect x="170" y="78" width="96" height="84" rx="4" fill="#FFFFFF" stroke="#005EFF" stroke-width="1.5"/>
<g stroke="#005EFF" stroke-width="3" stroke-linecap="round"><line x1="194" y1="94" x2="252" y2="94"/><line x1="194" y1="108" x2="246" y2="108"/><line x1="194" y1="122" x2="252" y2="122"/></g>
<rect x="182" y="88" width="7" height="7" rx="1.5" fill="#005EFF"/>
<rect x="182" y="102" width="7" height="7" rx="1.5" fill="#005EFF"/>
<rect x="182" y="116" width="7" height="7" rx="1.5" fill="#005EFF"/>
<circle cx="238" cy="143" r="13" fill="none" stroke="#005EFF" stroke-width="2"/>
<path d="M232 143 l4 4 l8 -8" stroke="#005EFF" stroke-width="2" fill="none" stroke-linecap="round" stroke-linejoin="round"/>
<text x="26" y="180" fill="#5A6677" font-family="'IBM Plex Sans','Helvetica Neue',Arial,sans-serif" font-size="11" letter-spacing="1">TechWorker Media</text>
</svg>
