<svg xmlns="http://www.w3.org/2000/svg" viewBox="0 0 340 200" role="img" aria-label="新規事業の5フェーズを生成AIで進める">
<rect width="340" height="200" fill="#FBFCFD"/>
<g stroke="#11161D" stroke-opacity=".05" stroke-width="1"><line x1="85" y1="0" x2="85" y2="200"/><line x1="170" y1="0" x2="170" y2="200"/><line x1="255" y1="0" x2="255" y2="200"/><line x1="0" y1="66" x2="340" y2="66"/><line x1="0" y1="133" x2="340" y2="133"/></g>
<g stroke="#005EFF" stroke-width="2" fill="none"><path d="M14 28 V14 H28"/><path d="M312 14 H326 V28"/><path d="M14 172 V186 H28"/><path d="M326 172 V186 H312"/></g>
<text x="26" y="42" fill="#005EFF" font-family="'IBM Plex Sans','Helvetica Neue',Arial,sans-serif" font-size="11" font-weight="600" letter-spacing="2.2">OVERVIEW</text>
<line x1="34" y1="121" x2="306" y2="121" stroke="#11161D" stroke-opacity=".14" stroke-width="1.5"/>
<g font-family="'IBM Plex Sans','Helvetica Neue',Arial,sans-serif">
<circle cx="34" cy="121" r="6" fill="#11161D"/>
<circle cx="102" cy="121" r="6" fill="#11161D"/>
<circle cx="170" cy="121" r="6" fill="#005EFF"/>
<circle cx="238" cy="121" r="6" fill="#FBFCFD" stroke="#005EFF" stroke-width="1.5"/>
<circle cx="306" cy="121" r="6" fill="#FBFCFD" stroke="#11161D" stroke-opacity=".35" stroke-width="1.5"/>
<text x="34" y="103" fill="#5A6677" font-size="9" letter-spacing=".5" text-anchor="middle">探索</text>
<text x="102" y="103" fill="#5A6677" font-size="9" letter-spacing=".5" text-anchor="middle">構想</text>
<text x="170" y="103" fill="#005EFF" font-size="9" font-weight="600" letter-spacing=".5" text-anchor="middle">検証</text>
<text x="238" y="103" fill="#5A6677" font-size="9" letter-spacing=".5" text-anchor="middle">PoC</text>
<text x="306" y="103" fill="#5A6677" font-size="9" letter-spacing=".5" text-anchor="middle">定着</text>
<text x="34" y="146" fill="#5A6677" font-size="9" letter-spacing="1" text-anchor="middle">01</text>
<text x="102" y="146" fill="#5A6677" font-size="9" letter-spacing="1" text-anchor="middle">02</text>
<text x="170" y="146" fill="#5A6677" font-size="9" letter-spacing="1" text-anchor="middle">03</text>
<text x="238" y="146" fill="#5A6677" font-size="9" letter-spacing="1" text-anchor="middle">04</text>
<text x="306" y="146" fill="#5A6677" font-size="9" letter-spacing="1" text-anchor="middle">05</text>
</g>
<text x="26" y="180" fill="#5A6677" font-family="'IBM Plex Sans','Helvetica Neue',Arial,sans-serif" font-size="11" letter-spacing="1">TechWorker Media</text>
</svg>
