<svg xmlns="http://www.w3.org/2000/svg" viewBox="0 0 340 200" role="img" aria-label="記帳と月次の数表をAIで整える">
<rect width="340" height="200" fill="#FBFCFD"/>
<g stroke="#11161D" stroke-opacity=".05" stroke-width="1"><line x1="85" y1="0" x2="85" y2="200"/><line x1="170" y1="0" x2="170" y2="200"/><line x1="255" y1="0" x2="255" y2="200"/><line x1="0" y1="66" x2="340" y2="66"/><line x1="0" y1="133" x2="340" y2="133"/></g>
<g stroke="#005EFF" stroke-width="2" fill="none"><path d="M14 28 V14 H28"/><path d="M312 14 H326 V28"/><path d="M14 172 V186 H28"/><path d="M326 172 V186 H312"/></g>
<text x="26" y="42" fill="#005EFF" font-family="'IBM Plex Sans','Helvetica Neue',Arial,sans-serif" font-size="11" font-weight="600" letter-spacing="2.2">TAX</text>
<g stroke="#2A333F" stroke-opacity=".18" stroke-width="1"><line x1="44" y1="74" x2="232" y2="74"/><line x1="44" y1="96" x2="232" y2="96"/><line x1="44" y1="118" x2="232" y2="118"/><line x1="44" y1="140" x2="232" y2="140"/><line x1="160" y1="64" x2="160" y2="150"/></g>
<g fill="#2A333F" fill-opacity=".26"><rect x="50" y="81" width="58" height="6" rx="3"/><rect x="50" y="103" width="46" height="6" rx="3"/><rect x="50" y="125" width="54" height="6" rx="3"/></g>
<g fill="#005EFF"><rect x="178" y="81" width="40" height="6" rx="3"/><rect x="186" y="103" width="32" height="6" rx="3"/><rect x="170" y="125" width="48" height="6" rx="3"/></g>
<circle cx="280" cy="100" r="22" fill="#005EFF"/>
<path d="M270 100 l7 7 l13 -14" stroke="#FBFCFD" stroke-width="2.6" fill="none" stroke-linecap="round" stroke-linejoin="round"/>
<text x="26" y="180" fill="#5A6677" font-family="'IBM Plex Sans','Helvetica Neue',Arial,sans-serif" font-size="11" letter-spacing="1">TechWorker Media</text>
</svg>
