<svg xmlns="http://www.w3.org/2000/svg" viewBox="0 0 340 200" role="img" aria-label="推進体制で生成AIをチームに定着させる">
<rect width="340" height="200" fill="#FBFCFD"/>
<g stroke="#11161D" stroke-opacity=".05" stroke-width="1"><line x1="85" y1="0" x2="85" y2="200"/><line x1="170" y1="0" x2="170" y2="200"/><line x1="255" y1="0" x2="255" y2="200"/><line x1="0" y1="66" x2="340" y2="66"/><line x1="0" y1="133" x2="340" y2="133"/></g>
<g stroke="#005EFF" stroke-width="2" fill="none"><path d="M14 28 V14 H28"/><path d="M312 14 H326 V28"/><path d="M14 172 V186 H28"/><path d="M326 172 V186 H312"/></g>
<text x="26" y="42" fill="#005EFF" font-family="'IBM Plex Sans','Helvetica Neue',Arial,sans-serif" font-size="11" font-weight="600" letter-spacing="2.2">ADOPTION</text>
<g stroke="#2A333F" stroke-opacity=".22" stroke-width="1.2" stroke-dasharray="2 3"><line x1="170" y1="20" x2="170" y2="180"/></g>
<g font-family="'IBM Plex Sans','Helvetica Neue',Arial,sans-serif">
<text x="52" y="80" fill="#5A6677" font-size="9" letter-spacing="1" text-anchor="middle">推進役なし</text>
<g fill="#11161D" fill-opacity=".14">
  <rect x="30" y="98" width="14" height="42" rx="2"/>
  <rect x="52" y="112" width="14" height="28" rx="2"/>
  <rect x="74" y="123" width="14" height="17" rx="2"/>
</g>
<rect x="96" y="128" width="14" height="12" rx="2" fill="#11161D" fill-opacity=".14"/>
<text x="252" y="80" fill="#005EFF" font-size="9" font-weight="600" letter-spacing="1" text-anchor="middle">推進体制あり</text>
<g fill="#005EFF">
  <rect x="230" y="109" width="14" height="31" rx="2" opacity=".55"/>
  <rect x="252" y="104" width="14" height="36" rx="2" opacity=".72"/>
  <rect x="274" y="99" width="14" height="41" rx="2" opacity=".88"/>
  <rect x="296" y="94" width="14" height="46" rx="2"/>
</g>
</g>
<text x="26" y="180" fill="#5A6677" font-family="'IBM Plex Sans','Helvetica Neue',Arial,sans-serif" font-size="11" letter-spacing="1">TechWorker Media</text>
</svg>
