<svg xmlns="http://www.w3.org/2000/svg" viewBox="0 0 48 48">
  <defs>
    <linearGradient id="mc1" x1="8" y1="8" x2="40" y2="40" gradientUnits="userSpaceOnUse">
      <stop offset="0" stop-color="#1FC9A7"/>
      <stop offset=".35" stop-color="#1E88E5"/>
      <stop offset=".65" stop-color="#7B1FA2"/>
      <stop offset="1" stop-color="#E91E63"/>
    </linearGradient>
  </defs>
  <path d="M24 4C12.95 4 4 12.95 4 24c0 6.1 2.74 11.56 7.05 15.22L18 34v-6.5c0-1.38.5-2.63 1.32-3.54A5.003 5.003 0 0 1 24 22c2.76 0 5 2.24 5 5 0 1.38-.56 2.63-1.46 3.54-.9.9-2.14 1.46-3.54 1.46v4c2.49 0 4.74-1.01 6.36-2.64A8.958 8.958 0 0 0 33 27c0-4.97-4.03-9-9-9s-9 4.03-9 9v7.5l-3.5 3C14.55 40 19.04 42 24 42c11.05 0 20-8.95 20-20S35.05 4 24 4z" fill="url(#mc1)"/>
</svg>