<svg xmlns="http://www.w3.org/2000/svg" viewBox="0 0 48 48">
  <path d="M7 6.5c1.6 1.3 2.2 1.2 5.3 1l28.4-1.7c.6 0 .1-.6-.1-.7l-4.7-3.4c-.9-.7-2.1-1.5-4.3-1.3L7.1 3c-1 .1-1.2.6-.1 1L7 6.5z" fill="#000"/>
  <path d="M8.7 11.6v30.7c0 1.6.8 2.2 2.6 2.1l30.5-1.8c1.8-.1 2-1.1 2-2.3V11c0-1.2-.5-1.8-1.5-1.7L10.5 11c-1.2.1-1.8.7-1.8 1.6v-1zm30.6 1.8c.2.8 0 1.6-.8 1.7l-1.6.3v21.4c-1.4.7-2.7 1.2-3.8 1.2-1.8 0-2.2-.6-3.6-2.2L16.6 14.9v20l3.3.7c0 0 0 1.6-2.2 1.6l-6.1.4c-.2-.4 0-1.3.6-1.5l1.7-.4V12.8l-2.3-.2c-.2-.8.3-2 1.5-2.1l6.6-.4L34 31v-19.6l-2.8-.3c-.2-1 .5-1.7 1.4-1.8l6.3-.4.4 3.5z" fill="#000"/>
</svg>